<svg xmlns="http://www.w3.org/2000/svg" width="147" height="127" viewBox="0 0 147 127">
<g>
<path d="M 12.33,86.39 L 12.78,86.51 L 14.12,86.71 L 14.85,86.80 L 16.62,86.92 L 19.56,87.00 L 20.58,87.00 L 22.45,87.06 L 23.34,87.11 L 23.38,87.11 L 22.97,87.15 L 22.34,87.42 L 22.19,87.68 L 22.02,88.28 L 22.10,88.73 L 22.34,89.73 L 22.61,90.42 L 22.98,91.30 L 23.17,91.55 L 23.56,91.92 L 23.67,91.91 L 23.55,91.99 L 23.03,92.29 L 21.52,92.65 L 21.08,92.73 L 19.99,92.83 L 19.40,92.88 L 17.97,92.94 L 17.20,92.96 L 15.35,92.99 L 13.34,93.00 L 16.19,92.93 L 17.98,92.81 L 18.69,92.73 L 19.98,92.55 L 20.38,92.44 L 21.00,92.21 L 21.00,92.08 L 20.73,90.28 L 20.27,89.34 L 19.90,89.01 L 19.06,88.42 L 18.50,88.25 L 17.27,88.00 L 16.52,88.00 L 14.31,87.90 L 13.18,87.69 L 12.80,87.47 L 12.16,86.96 L 12.04,86.54 L 12.00,86.28 M 5.53,82.90 L 4.87,85.23 L 4.72,86.36 L 4.54,88.55 L 4.68,89.43 L 5.23,92.79 L 4.14,92.72 L 3.10,92.63 L 2.51,92.54 L 2.63,92.42 L 2.77,91.98 L 3.00,90.98 L 3.00,90.29 L 2.96,88.85 L 2.86,88.31 L 2.75,88.24 L 2.49,88.22 L 2.26,88.38 L 1.75,88.82 L 1.56,89.02 L 2.13,87.99 L 3.46,85.92 L 4.43,84.51 L 5.74,82.26 M 0.57,92.07 L 0.52,92.03 L 0.44,91.90 M 27.00,87.81 L 27.00,87.92 L 26.84,88.30 L 26.74,88.51 L 26.66,88.62 L 26.92,87.92 L 26.85,87.73 M 22.24,64.89 L 20.78,67.48 L 18.30,72.01 L 17.71,73.08 L 16.64,75.05 L 16.13,76.01 L 15.21,77.75 L 14.77,78.59 L 14.00,80.08 L 13.64,80.80 L 13.08,81.93 L 13.84,80.23 L 14.54,78.84 L 15.28,77.41 L 15.71,76.60 L 16.60,74.95 L 17.10,74.03 L 18.15,72.14 L 18.73,71.10 L 19.93,68.96 L 20.59,67.79 L 23.49,62.66 M 6.89,79.77 L 7.00,79.39 L 7.00,79.01 L 7.31,78.41 L 8.06,78.00 L 8.31,78.00 M 8.56,77.02 L 8.94,77.24 L 8.79,77.56 L 8.64,77.67 L 8.56,77.10 L 8.51,77.01 M 8.51,76.48 L 8.54,76.33 L 9.04,75.92 M 15.53,65.41 L 15.31,66.05 L 15.09,66.50 L 14.61,67.49 L 14.30,68.07 L 13.64,69.27 L 13.27,69.90 L 13.08,70.22 L 13.42,69.63 L 14.60,67.33 L 14.86,66.80 L 15.23,65.93 L 15.49,65.03 M 88.94,69.25 L 90.60,69.94 L 90.54,69.94 L 90.05,69.87 L 89.08,69.46 L 88.58,69.18 L 88.29,68.91 M 51.39,2.42 L 51.23,2.94 L 51.23,3.14 L 51.29,3.51 L 51.41,3.63 L 51.71,3.85 L 51.96,3.91 L 52.52,4.00 L 52.89,4.00 L 54.33,3.78 L 54.86,3.42 L 54.92,3.16 L 54.90,2.92 L 55.36,3.64 L 55.66,4.13 L 56.52,5.55 L 56.99,6.32 L 58.15,8.25 L 58.76,9.27 L 60.17,11.63 L 60.90,12.86 L 62.51,15.58 L 63.34,16.98 L 65.12,19.99 L 66.93,23.06 L 70.85,29.72 L 72.83,33.09 L 76.83,39.92 L 78.80,43.30 L 82.52,49.68 L 83.41,51.22 L 85.09,54.11 L 85.90,55.52 L 87.39,58.09 L 88.10,59.33 L 89.35,61.51 L 89.54,61.85 L 88.99,60.89 L 88.70,60.40 L 88.15,59.49 L 87.94,59.16 L 87.55,58.55 L 87.40,58.36 L 87.16,58.05 L 87.09,58.00 L 86.99,57.98 L 86.99,58.07 L 87.02,58.33 L 87.09,58.56 L 87.26,59.09 L 87.39,59.46 L 87.44,61.33 L 86.74,62.44 L 85.99,63.00 L 84.40,64.21 L 83.97,63.59 L 83.48,62.87 L 82.38,61.18 L 81.81,60.29 L 80.52,58.23 L 79.85,57.16 L 78.33,54.70 L 77.55,53.41 L 75.79,50.51 L 74.88,49.01 L 72.85,45.63 L 71.80,43.88 L 69.48,39.99 L 65.62,33.55 L 64.06,30.94 L 61.14,26.16 L 60.43,25.02 L 59.11,22.91 L 58.47,21.89 L 57.30,20.06 L 56.74,19.18 L 55.75,17.69 L 55.29,16.98 L 54.52,15.87 L 54.17,15.37 L 53.65,14.69 L 53.20,14.23 L 53.05,14.18 L 52.70,14.24 L 52.60,14.27 L 52.73,14.17 L 53.01,14.00 L 53.11,14.00 L 54.52,14.71 L 55.76,15.81 L 56.48,16.60 L 57.97,18.33 L 58.75,19.35 L 60.34,21.49 L 61.12,22.63 L 62.66,24.95 L 63.35,26.11 L 64.69,28.39 L 65.23,29.45 L 66.21,31.48 L 66.52,32.32 L 67.00,33.87 L 67.00,34.39 L 67.18,35.23 L 67.46,35.89 L 67.67,36.24 L 68.66,37.69 L 69.29,38.30 L 70.44,39.51 L 71.38,40.57 L 71.90,41.17 L 74.03,43.76 L 74.96,45.00 L 77.58,48.44 L 78.29,49.35 L 78.55,49.68 L 79.01,50.26 L 79.11,50.38 L 79.63,50.65 L 79.69,50.21 L 79.59,49.78 L 79.32,48.80 L 79.09,48.20 L 78.55,46.95 L 78.20,46.32 L 77.35,44.31 L 77.00,43.00 L 77.00,42.57 L 76.74,41.67 L 76.32,40.84 L 76.02,40.36 L 74.59,38.28 L 73.67,37.25 L 71.19,34.15 L 70.31,32.91 L 69.83,32.19 L 68.84,30.68 L 68.29,29.80 L 67.15,27.95 L 66.51,26.87 L 65.17,24.61 L 64.41,23.30 L 62.83,20.55 L 61.93,18.96 L 60.05,15.65 L 58.99,13.75 L 57.69,11.46 L 56.94,10.19 L 56.61,9.67 L 55.98,8.69 L 55.70,8.31 L 55.15,7.59 L 54.90,7.32 L 53.94,6.45 L 53.45,6.25 L 52.44,6.00 L 51.82,6.00 L 49.83,6.24 L 49.37,6.40 L 49.22,6.49 L 49.18,6.53 L 51.52,2.08 M 19.47,59.16 L 19.29,59.40 L 19.52,59.09 M 22.00,54.55 L 21.72,55.41 L 21.29,56.28 L 20.97,56.81 L 20.15,58.10 L 21.05,56.63 L 21.34,56.12 L 21.75,55.30 L 22.00,54.47 M 42.68,29.38 L 42.11,30.36 L 40.86,32.50 L 38.81,36.00 L 36.60,39.79 L 32.53,46.81 L 30.56,50.23 L 27.86,54.96 L 28.28,54.22 L 30.59,50.16 L 31.68,48.26 L 33.80,44.56 L 34.79,42.84 L 36.73,39.48 L 37.63,37.93 L 39.38,34.92 L 40.20,33.53 L 41.78,30.85 L 42.51,29.62 L 43.92,27.25 L 44.56,26.20 M 43.80,15.70 L 43.50,16.19 L 42.94,17.10 L 42.77,17.42 L 42.48,17.93 L 42.46,18.00 L 42.34,18.32 L 42.31,18.00 L 42.23,18.00 L 42.21,17.85 L 42.22,17.75 L 42.38,17.44 L 43.43,16.08 L 43.67,15.81 L 44.24,15.00 M 48.75,7.51 L 48.35,8.30 L 48.06,8.83 L 46.68,11.19 L 45.81,12.53 L 48.92,7.02 M 53.65,1.12 L 53.50,1.00 L 52.46,0.29 L 52.72,-0.20 M 22.44,53.24 L 23.49,52.01 L 22.44,53.26 L 22.00,54.19 L 22.00,54.13 M 25.23,49.00 L 25.62,48.75 L 25.23,49.00 L 24.94,49.00 L 24.35,49.26 L 24.94,49.00 M 26.03,47.09 L 26.49,46.12 L 26.75,45.60 L 27.43,44.38 L 28.62,42.41 L 29.68,40.74 L 31.68,37.54 L 32.66,35.96 L 34.47,32.98 L 35.35,31.52 L 35.59,31.12 L 34.98,32.17 L 33.44,34.72 L 30.27,39.90 L 28.66,42.41 L 27.45,44.38 L 26.76,45.60 L 26.50,46.12 L 26.03,47.09 L 25.90,47.44 L 25.72,48.04 L 25.90,47.44 Z" fill="rgba(2,65,202,1)"/>
<path d="M 53.45,6.25 L 53.94,6.45 L 54.90,7.32 L 55.15,7.59 L 55.70,8.31 L 55.98,8.69 L 56.61,9.67 L 56.94,10.19 L 57.69,11.46 L 58.99,13.75 L 60.05,15.65 L 61.93,18.96 L 62.83,20.55 L 64.41,23.30 L 65.17,24.61 L 66.51,26.87 L 67.15,27.95 L 68.29,29.80 L 68.84,30.68 L 69.83,32.19 L 70.31,32.91 L 71.19,34.15 L 73.67,37.25 L 74.59,38.28 L 76.02,40.36 L 76.32,40.84 L 76.74,41.67 L 77.00,42.57 L 77.00,43.00 L 77.35,44.31 L 78.20,46.32 L 78.55,46.95 L 79.09,48.20 L 79.32,48.80 L 79.59,49.78 L 79.69,50.21 L 79.63,50.65 L 79.11,50.38 L 79.01,50.26 L 78.55,49.68 L 78.29,49.35 L 77.58,48.44 L 74.96,45.00 L 74.03,43.76 L 71.90,41.17 L 71.38,40.57 L 70.44,39.51 L 69.29,38.30 L 68.66,37.69 L 67.67,36.24 L 67.46,35.89 L 67.18,35.23 L 67.00,34.39 L 67.00,33.87 L 66.52,32.32 L 66.21,31.48 L 65.23,29.45 L 64.69,28.39 L 63.35,26.11 L 62.66,24.95 L 61.12,22.63 L 60.34,21.49 L 58.75,19.35 L 57.97,18.33 L 56.48,16.60 L 55.76,15.81 L 54.52,14.71 L 53.11,14.00 L 53.01,14.00 L 52.73,14.17 L 52.58,14.29 L 52.17,14.70 L 51.95,14.94 L 51.42,15.60 L 51.14,15.97 L 50.48,16.89 L 50.13,17.38 L 49.33,18.58 L 48.91,19.21 L 47.97,20.68 L 47.48,21.45 L 46.38,23.21 L 45.82,24.13 L 44.56,26.19 L 43.92,27.25 L 42.51,29.62 L 41.78,30.85 L 40.20,33.53 L 39.38,34.92 L 37.63,37.93 L 36.73,39.48 L 34.79,42.84 L 33.80,44.56 L 31.68,48.26 L 30.59,50.16 L 28.28,54.22 L 27.10,56.30 L 24.59,60.72 L 20.59,67.79 L 19.93,68.96 L 18.73,71.10 L 18.15,72.14 L 17.10,74.03 L 16.60,74.95 L 15.71,76.60 L 15.28,77.41 L 14.54,78.84 L 13.84,80.23 L 12.87,82.41 L 12.45,83.41 L 12.05,84.91 L 11.91,85.59 L 12.04,86.54 L 12.16,86.96 L 12.80,87.47 L 13.18,87.69 L 14.31,87.90 L 16.52,88.00 L 17.27,88.00 L 18.50,88.25 L 19.06,88.42 L 19.90,89.01 L 20.27,89.34 L 20.73,90.28 L 21.00,92.08 L 21.00,92.21 L 20.38,92.44 L 19.98,92.55 L 18.69,92.73 L 17.98,92.81 L 16.19,92.93 L 13.13,93.00 L 5.26,93.00 L 4.68,89.43 L 4.54,88.55 L 4.72,86.36 L 4.87,85.23 L 5.53,82.90 L 5.90,81.77 L 6.87,79.80 L 8.50,77.77 L 8.79,77.56 L 8.94,77.24 L 8.56,77.02 L 8.30,77.01 L 8.36,76.64 L 9.20,75.75 L 9.40,75.59 L 9.96,74.92 L 10.27,74.54 L 10.98,73.53 L 11.71,72.47 L 13.27,69.90 L 13.64,69.27 L 14.30,68.07 L 14.61,67.49 L 15.09,66.50 L 15.31,66.05 L 15.53,65.41 L 15.49,65.00 L 15.42,65.00 L 15.58,64.64 L 15.70,64.41 L 16.18,63.66 L 16.45,63.24 L 17.19,62.20 L 18.51,60.42 L 19.47,59.16 L 20.97,56.81 L 21.29,56.28 L 21.72,55.41 L 22.00,54.55 L 22.00,54.19 L 22.44,53.26 L 23.49,52.01 L 23.90,51.67 L 24.38,50.88 L 24.43,49.89 L 24.28,49.64 L 24.35,49.26 L 24.94,49.00 L 25.23,49.00 L 25.62,48.75 L 25.75,48.16 L 25.72,48.04 L 25.90,47.44 L 26.03,47.09 L 26.50,46.12 L 26.76,45.60 L 27.45,44.38 L 28.66,42.41 L 30.27,39.90 L 33.44,34.72 L 34.98,32.17 L 37.72,27.41 L 38.36,26.28 L 39.49,24.22 L 40.03,23.23 L 40.92,21.50 L 41.33,20.69 L 41.93,19.38 L 42.46,18.00 L 42.48,17.93 L 42.77,17.42 L 42.94,17.10 L 43.50,16.19 L 43.80,15.70 L 44.54,14.51 L 45.80,12.55 L 46.68,11.19 L 48.06,8.83 L 48.35,8.30 L 48.75,7.51 L 49.00,6.80 L 49.00,6.69 L 49.22,6.49 L 49.37,6.40 L 49.83,6.24 L 51.82,6.00 L 52.44,6.00 Z" fill="rgba(1,66,209,1)"/>
<path d="M 2.75,88.24 L 2.86,88.31 L 2.96,88.85 L 3.00,90.29 L 3.00,90.98 L 2.77,91.98 L 2.63,92.42 L 2.18,92.88 L 1.94,93.03 L 1.36,92.88 L 1.06,92.72 L 0.44,91.90 L 0.25,91.60 L 0.44,90.65 L 1.38,89.19 L 1.75,88.82 L 2.26,88.38 L 2.49,88.22 M 26.13,87.15 L 26.52,87.25 L 26.83,87.67 L 26.92,87.92 L 26.65,88.67 L 25.61,90.25 L 25.20,90.79 L 24.56,91.47 L 24.26,91.75 L 23.78,91.90 L 23.56,91.92 L 23.17,91.55 L 22.98,91.30 L 22.61,90.42 L 22.34,89.73 L 22.10,88.73 L 22.02,88.28 L 22.19,87.68 L 22.34,87.42 L 22.97,87.15 L 24.50,87.00 L 25.20,87.00 M 87.09,58.00 L 87.16,58.05 L 87.40,58.36 L 87.55,58.55 L 87.94,59.16 L 88.15,59.49 L 88.70,60.40 L 88.99,60.89 L 89.68,62.09 L 90.91,64.25 L 94.15,70.00 L 90.74,70.00 L 88.94,69.25 L 88.04,68.78 L 86.40,67.30 L 83.89,64.59 L 85.99,63.00 L 86.74,62.44 L 87.44,61.33 L 87.39,59.46 L 87.26,59.09 L 87.09,58.56 L 87.02,58.33 L 86.99,58.07 L 86.99,57.98 M 52.44,0.28 L 53.50,1.00 L 54.03,1.44 L 54.64,2.21 L 54.88,2.57 L 54.92,3.16 L 54.86,3.42 L 54.33,3.78 L 52.89,4.00 L 52.52,4.00 L 51.96,3.91 L 51.71,3.85 L 51.41,3.63 L 51.29,3.51 L 51.23,3.14 L 51.23,2.94 L 51.39,2.42 L 51.56,1.98 L 51.82,1.14 L 52.00,0.30 L 52.00,0.15 Z" fill="rgba(2,63,196,1)"/>
<path d="M 19.65,126.24 L 19.63,126.21 L 19.96,125.48 L 20.18,125.02 L 20.96,123.53 L 21.39,122.70 L 22.55,120.53 L 23.18,119.38 L 24.67,116.65 L 25.45,115.23 L 27.21,112.05 L 28.11,110.41 L 30.08,106.87 L 32.09,103.26 L 36.49,95.41 L 38.72,91.46 L 43.20,83.55 L 44.30,81.61 L 46.44,77.86 L 47.50,76.01 L 49.50,72.53 L 50.47,70.83 L 52.27,67.72 L 53.14,66.22 L 54.68,63.59 L 55.41,62.35 L 56.63,60.30 L 58.05,58.00 L 58.25,57.68 L 58.59,57.29 L 58.76,57.14 L 59.10,57.11 L 59.27,57.14 L 59.69,57.48 L 60.50,58.44 L 60.91,58.97 L 61.56,60.13 L 62.00,61.45 L 62.00,61.53 L 61.84,61.97 L 61.74,62.24 L 61.39,63.01 L 61.19,63.44 L 60.66,64.52 L 60.38,65.10 L 59.69,66.45 L 59.32,67.16 L 58.49,68.76 L 58.06,69.59 L 57.10,71.40 L 56.11,73.26 L 53.83,77.48 L 52.65,79.66 L 50.07,84.33 L 48.77,86.69 L 46.04,91.56 L 44.67,93.99 L 41.93,98.81 L 37.95,105.70 L 36.89,107.51 L 35.00,110.87 L 34.10,112.47 L 32.66,115.18 L 32.34,115.81 L 31.80,116.88 L 31.55,117.38 L 31.18,118.19 L 31.01,118.56 L 30.83,119.07 L 30.78,119.45 L 30.81,119.48 L 31.11,119.54 L 31.30,119.57 L 31.89,119.62 L 32.23,119.65 L 33.10,119.69 L 33.56,119.72 L 34.69,119.76 L 35.87,119.80 L 38.93,119.87 L 40.55,119.90 L 44.36,119.95 L 46.35,119.97 L 50.76,120.00 L 53.02,120.02 L 57.87,120.03 L 62.79,120.04 L 73.27,120.00 L 78.50,119.98 L 88.62,119.88 L 91.06,119.85 L 95.67,119.79 L 97.91,119.76 L 101.98,119.68 L 103.94,119.64 L 107.31,119.55 L 108.90,119.50 L 111.42,119.40 L 111.99,119.37 L 112.94,119.32 L 113.38,119.29 L 114.07,119.23 L 114.37,119.20 L 114.76,119.14 L 115.00,119.05 L 115.00,118.92 L 114.72,118.22 L 114.55,117.82 L 113.97,116.68 L 113.66,116.06 L 112.86,114.63 L 111.50,112.30 L 111.02,111.50 L 110.14,109.99 L 109.73,109.26 L 109.03,107.98 L 108.71,107.39 L 108.28,106.50 L 108.00,105.75 L 108.00,105.56 L 108.25,105.29 L 108.41,105.17 L 108.92,105.03 L 109.48,104.92 L 111.05,105.05 L 111.86,105.16 L 113.46,105.66 L 115.22,106.75 L 115.43,106.99 L 116.23,108.09 L 116.68,108.73 L 117.83,110.45 L 118.45,111.37 L 119.82,113.49 L 121.97,116.88 L 122.47,117.70 L 123.34,119.12 L 123.75,119.80 L 124.43,120.98 L 124.74,121.54 L 125.25,122.49 L 125.48,122.94 L 125.81,123.69 L 126.11,124.40 L 126.24,125.31 L 125.84,126.12 L 125.79,126.15 L 125.39,126.22 L 125.15,126.25 L 124.38,126.31 L 123.96,126.33 L 122.85,126.39 L 122.25,126.42 L 120.83,126.47 L 120.08,126.50 L 118.36,126.54 L 117.47,126.57 L 115.48,126.61 L 113.43,126.65 L 108.64,126.73 L 106.14,126.77 L 100.61,126.83 L 97.76,126.85 L 91.68,126.90 L 85.50,126.94 L 72.37,126.97 L 69.08,126.97 L 62.57,126.97 L 59.35,126.96 L 53.10,126.94 L 50.02,126.93 L 44.23,126.89 L 41.41,126.87 L 36.28,126.81 L 33.82,126.78 L 29.55,126.71 L 28.54,126.69 L 26.73,126.65 L 25.86,126.63 L 24.33,126.58 L 23.60,126.56 L 22.38,126.51 L 21.82,126.48 L 20.93,126.43 L 20.53,126.40 L 20.01,126.34 L 19.79,126.31 M 66.47,90.05 L 68.00,87.10 L 100.42,86.80 L 102.65,86.78 L 106.94,86.73 L 109.06,86.70 L 113.06,86.63 L 115.01,86.60 L 118.62,86.52 L 120.37,86.48 L 123.51,86.39 L 125.01,86.35 L 127.58,86.26 L 128.78,86.21 L 130.69,86.11 L 131.55,86.07 L 132.71,85.97 L 133.50,85.83 L 133.55,85.78 L 133.50,85.45 L 133.45,85.25 L 133.22,84.64 L 133.08,84.30 L 132.69,83.43 L 132.48,82.97 L 131.94,81.88 L 131.38,80.75 L 129.89,77.98 L 127.25,73.33 L 126.78,72.52 L 125.60,70.51 L 124.99,69.44 L 123.56,67.00 L 122.83,65.74 L 121.21,62.96 L 120.38,61.54 L 118.63,58.51 L 116.85,55.45 L 113.09,48.98 L 107.60,39.50 L 106.70,37.94 L 105.06,35.10 L 104.26,33.73 L 102.81,31.23 L 102.11,30.03 L 100.85,27.86 L 100.24,26.82 L 99.14,24.95 L 98.61,24.06 L 97.67,22.47 L 97.22,21.71 L 96.42,20.39 L 95.65,19.13 L 94.48,17.30 L 93.94,16.48 L 93.15,15.41 L 92.79,14.96 L 92.26,14.48 L 92.02,14.29 L 91.64,14.23 L 91.13,14.42 L 90.99,14.51 L 90.49,15.10 L 90.21,15.45 L 89.49,16.48 L 86.96,20.57 L 86.56,21.27 L 85.84,22.44 L 85.50,22.98 L 84.88,23.85 L 84.58,24.25 L 84.04,24.83 L 83.78,25.08 L 83.29,25.38 L 83.05,25.50 L 82.60,25.53 L 82.37,25.51 L 81.94,25.28 L 80.57,23.66 L 80.36,23.31 L 80.25,22.43 L 80.25,21.93 L 80.63,20.56 L 80.89,19.79 L 81.84,17.68 L 82.12,17.09 L 82.79,15.74 L 84.00,13.42 L 85.24,11.08 L 87.79,6.64 L 88.39,5.63 L 89.42,3.97 L 90.59,2.28 L 92.68,-0.34 L 96.14,6.08 L 96.27,6.31 L 96.63,6.98 L 96.83,7.34 L 97.34,8.24 L 97.87,9.19 L 99.31,11.75 L 100.09,13.12 L 101.95,16.41 L 102.93,18.14 L 105.15,22.03 L 106.29,24.04 L 108.78,28.40 L 110.06,30.62 L 112.74,35.32 L 115.46,40.07 L 121.16,50.01 L 124.01,54.96 L 129.50,64.50 L 130.83,66.81 L 133.34,71.17 L 134.57,73.30 L 136.82,77.19 L 137.91,79.07 L 139.82,82.36 L 140.72,83.92 L 142.21,86.47 L 142.90,87.65 L 143.90,89.34 L 144.11,89.70 L 144.44,90.24 L 144.76,90.75 L 146.23,93.00 L 105.59,93.00 L 64.95,93.00 L 66.47,90.05 Z" fill="rgba(255,255,255,1)"/>
</g>
</svg>