<svg xmlns="http://www.w3.org/2000/svg" viewBox="1 7 146.23 127">
<g>
<path d="M 61.02,64.57 L 61.34,64.92 L 61.96,65.96 L 62.25,66.51 L 62.70,67.71 L 63.00,69.35 L 63.00,69.44 L 62.68,70.16 L 62.47,70.61 L 61.76,71.98 L 61.37,72.75 L 60.33,74.69 L 59.78,75.72 L 58.47,78.13 L 57.79,79.38 L 56.26,82.15 L 55.47,83.58 L 53.78,86.63 L 52.05,89.74 L 48.32,96.37 L 46.44,99.69 L 42.74,106.19 L 41.84,107.78 L 40.11,110.78 L 39.26,112.25 L 37.69,114.96 L 36.93,116.27 L 35.56,118.60 L 34.91,119.70 L 33.80,121.54 L 33.29,122.39 L 32.50,123.64 L 31.73,124.77 L 31.45,125.12 L 31.16,125.82 L 31.20,126.54 L 31.22,126.55 L 31.47,126.58 L 31.63,126.60 L 32.17,126.63 L 32.77,126.66 L 34.75,126.70 L 35.86,126.73 L 38.77,126.76 L 40.33,126.78 L 44.05,126.80 L 46.00,126.81 L 50.42,126.82 L 52.70,126.83 L 57.69,126.82 L 60.25,126.82 L 65.70,126.80 L 74.26,126.76 L 116.83,126.50 L 112.92,120.00 L 112.38,119.11 L 111.40,117.42 L 110.93,116.60 L 110.15,115.19 L 109.80,114.53 L 109.31,113.55 L 109.00,112.75 L 109.00,112.65 L 109.26,112.46 L 109.43,112.37 L 109.97,112.22 L 112.29,112.00 L 113.13,112.00 L 114.52,112.42 L 114.87,112.60 L 115.65,113.27 L 116.06,113.66 L 117.02,114.84 L 117.54,115.50 L 118.81,117.34 L 119.49,118.36 L 121.17,121.01 L 121.62,121.72 L 122.62,123.34 L 123.13,124.18 L 124.27,126.04 L 124.86,127.01 L 126.16,129.15 L 128.30,132.68 L 128.38,132.81 L 128.02,133.05 L 127.74,133.16 L 126.50,133.34 L 126.13,133.39 L 125.18,133.47 L 124.67,133.51 L 123.44,133.58 L 122.78,133.61 L 121.23,133.67 L 120.42,133.70 L 118.53,133.75 L 117.54,133.77 L 115.29,133.81 L 114.12,133.83 L 111.49,133.87 L 110.12,133.89 L 107.07,133.91 L 105.49,133.93 L 102.01,133.95 L 100.21,133.96 L 96.26,133.97 L 94.23,133.98 L 89.79,133.99 L 87.51,133.99 L 82.57,134.00 L 74.55,134.00 L 70.80,134.00 L 63.59,133.99 L 60.05,133.98 L 53.37,133.96 L 50.11,133.95 L 44.11,133.91 L 41.20,133.90 L 36.02,133.85 L 33.55,133.83 L 29.35,133.78 L 28.37,133.77 L 26.61,133.74 L 25.77,133.72 L 24.30,133.70 L 23.61,133.68 L 22.46,133.65 L 21.93,133.63 L 21.11,133.60 L 20.75,133.59 L 20.28,133.55 L 20.10,133.54 L 20.00,133.50 L 20.00,133.46 L 20.10,133.21 L 20.17,133.06 L 20.41,132.57 L 20.69,132.03 L 21.63,130.28 L 22.16,129.29 L 23.61,126.68 L 24.40,125.27 L 26.34,121.82 L 27.37,120.00 L 29.78,115.77 L 31.04,113.56 L 33.89,108.58 L 35.37,106.00 L 38.65,100.30 L 44.02,91.00 L 45.57,88.32 L 48.55,83.13 L 50.01,80.61 L 52.58,76.13 L 53.18,75.07 L 54.26,73.18 L 54.77,72.28 L 55.65,70.74 L 56.06,70.03 L 56.69,68.90 L 57.33,67.75 L 57.89,66.72 L 59.00,65.10 L 59.26,64.76 L 59.69,64.30 L 60.15,64.00 L 60.40,64.00 M 94.02,7.51 L 94.72,8.75 L 94.81,8.99 L 95.34,10.06 L 95.66,10.68 L 96.56,12.34 L 97.04,13.22 L 98.19,15.26 L 100.06,18.50 L 100.41,19.10 L 101.38,20.76 L 101.90,21.66 L 103.17,23.86 L 103.84,25.02 L 105.38,27.68 L 106.18,29.06 L 107.93,32.10 L 108.83,33.66 L 110.76,37.00 L 111.73,38.70 L 113.78,42.27 L 115.85,45.87 L 120.17,53.38 L 122.32,57.14 L 126.53,64.48 L 127.56,66.28 L 129.54,69.73 L 130.50,71.42 L 132.32,74.60 L 133.21,76.15 L 134.83,78.98 L 135.61,80.35 L 136.98,82.76 L 137.63,83.90 L 138.71,85.81 L 139.95,88.00 L 140.95,89.79 L 143.06,93.40 L 143.56,94.24 L 144.42,95.67 L 145.41,97.25 L 147.23,100.00 L 65.95,100.00 L 67.50,97.00 L 69.05,94.00 L 104.21,94.00 L 108.17,94.00 L 110.08,94.00 L 113.53,93.99 L 115.20,93.99 L 118.17,93.97 L 119.60,93.96 L 122.13,93.93 L 123.34,93.91 L 125.46,93.87 L 126.47,93.84 L 128.20,93.77 L 129.02,93.73 L 130.40,93.63 L 131.04,93.57 L 132.10,93.44 L 132.59,93.37 L 133.36,93.20 L 133.71,93.11 L 134.22,92.90 L 134.67,92.68 L 134.93,92.10 L 134.98,91.78 L 134.61,90.97 L 133.62,89.47 L 133.53,89.34 L 132.96,88.39 L 132.61,87.82 L 131.58,86.06 L 131.01,85.09 L 129.57,82.63 L 128.80,81.32 L 127.01,78.24 L 126.08,76.63 L 124.00,73.03 L 122.93,71.18 L 120.62,67.16 L 119.43,65.11 L 116.94,60.77 L 113.05,54.00 L 111.74,51.70 L 109.18,47.27 L 107.92,45.10 L 105.53,40.99 L 104.35,38.99 L 102.18,35.30 L 101.12,33.52 L 99.21,30.34 L 98.30,28.82 L 96.72,26.24 L 95.98,25.03 L 94.78,23.14 L 94.23,22.29 L 93.47,21.18 L 92.88,20.50 L 92.75,20.50 L 92.20,21.04 L 91.89,21.39 L 91.07,22.50 L 90.64,23.12 L 89.65,24.67 L 88.10,27.32 L 87.66,28.12 L 86.91,29.43 L 86.56,30.04 L 85.97,31.02 L 85.69,31.47 L 85.22,32.15 L 85.00,32.45 L 84.62,32.86 L 84.25,33.21 L 83.65,33.23 L 82.65,32.50 L 82.19,32.05 L 81.48,30.78 L 81.00,28.95 L 81.00,28.81 L 81.12,28.34 L 81.21,28.08 L 81.48,27.38 L 81.78,26.63 L 82.75,24.60 L 83.27,23.52 L 84.56,21.05 L 85.23,19.78 L 86.68,17.16 L 87.41,15.85 L 88.85,13.37 L 89.56,12.17 L 90.84,10.12 L 91.44,9.18 L 92.39,7.85 L 92.60,7.58 L 92.93,7.22 L 93.27,7.00 L 93.49,7.00 Z" fill="rgba(0,0,0,1)"/>
<path d="M 12.85,93.50 L 14.02,93.71 L 14.70,93.81 L 16.53,93.93 L 20.00,94.00 L 21.10,94.00 L 23.11,94.04 L 24.06,94.07 L 25.65,94.16 L 26.38,94.21 L 27.37,94.33 L 28.00,94.54 L 28.00,94.61 L 27.87,94.94 L 27.79,95.13 L 27.53,95.64 L 26.38,97.54 L 25.99,98.13 L 25.24,98.93 L 24.80,99.27 L 23.37,99.66 L 22.94,99.74 L 21.81,99.85 L 21.20,99.90 L 19.64,99.95 L 18.80,99.97 L 18.73,99.97 L 19.22,99.96 L 20.36,99.91 L 20.80,99.86 L 21.58,99.76 L 21.86,99.68 L 22.71,99.29 L 22.85,98.94 L 23.00,98.12 L 23.00,97.50 L 22.88,96.16 L 22.63,95.58 L 22.36,95.41 L 21.71,95.13 L 21.18,95.08 L 19.96,95.00 L 19.08,95.00 L 16.05,94.85 L 14.43,94.61 L 13.83,94.42 L 12.77,94.00 L 12.46,93.72 L 12.00,93.13 L 12.00,93.06 L 12.51,93.36 M 4.85,92.32 L 4.76,92.81 L 4.74,93.17 L 4.72,94.90 L 4.83,96.00 L 5.19,99.80 L 4.12,99.73 L 3.11,99.64 L 1.80,99.40 L 1.54,99.34 L 1.20,99.20 L 1.07,99.12 L 1.00,98.96 L 1.00,98.70 L 1.47,97.57 L 1.77,96.94 L 2.61,95.44 L 3.04,94.69 L 3.95,93.33 L 5.01,92.08 M 7.90,87.16 L 7.35,88.55 L 6.99,89.26 L 6.25,90.66 L 5.90,91.17 L 5.57,91.63 L 5.42,91.77 L 5.16,92.00 L 5.08,92.00 L 5.34,91.79 L 6.04,90.78 L 6.40,90.22 L 7.12,88.86 L 7.46,88.18 L 7.92,87.07 M 69.01,43.65 L 69.42,44.02 L 69.71,44.37 L 70.35,45.16 L 70.77,45.72 L 71.66,46.97 L 72.21,47.78 L 73.38,49.51 L 74.07,50.58 L 75.53,52.83 L 76.38,54.17 L 78.16,56.98 L 79.18,58.60 L 81.30,61.99 L 82.50,63.92 L 84.54,67.05 L 85.83,68.88 L 86.40,69.62 L 87.46,70.94 L 87.87,71.35 L 88.57,71.99 L 88.75,71.99 L 88.86,71.47 L 88.66,70.64 L 88.43,70.01 L 87.89,68.64 L 87.52,67.80 L 86.72,66.00 L 86.23,64.99 L 84.08,60.64 L 82.81,58.28 L 80.17,53.51 L 78.81,51.27 L 77.65,48.64 L 77.47,47.88 L 77.46,47.57 L 77.48,47.02 L 77.58,46.86 L 77.65,46.67 L 79.67,50.12 L 80.55,51.62 L 82.21,54.46 L 84.51,58.39 L 85.96,60.85 L 88.59,65.37 L 89.21,66.45 L 90.37,68.45 L 90.92,69.42 L 91.92,71.15 L 92.40,71.98 L 93.20,73.40 L 93.58,74.07 L 94.17,75.13 L 94.44,75.61 L 94.79,76.25 L 95.00,76.70 L 95.00,76.76 L 94.72,76.84 L 94.54,76.87 L 93.95,76.91 L 91.44,76.81 L 91.00,76.77 L 90.24,76.65 L 89.86,76.56 L 89.12,76.16 L 88.74,75.92 L 87.86,75.04 L 87.39,74.53 L 86.23,72.96 L 85.91,72.51 L 85.20,71.45 L 84.83,70.89 L 84.00,69.59 L 83.56,68.90 L 82.58,67.32 L 82.08,66.49 L 80.93,64.60 L 80.34,63.62 L 79.02,61.40 L 78.33,60.25 L 76.81,57.68 L 76.02,56.35 L 74.28,53.39 L 71.40,48.50 L 70.27,46.57 L 68.52,43.62 L 68.62,43.54 M 33.65,53.46 L 31.86,56.60 L 31.01,58.09 L 29.60,60.61 L 28.03,63.50 L 27.01,65.42 L 24.79,69.47 L 24.26,70.42 L 23.32,72.09 L 22.21,74.00 L 20.92,76.14 L 20.92,76.14 L 22.21,74.00 L 23.33,72.07 L 24.29,70.37 L 24.83,69.39 L 27.11,65.23 L 28.17,63.22 L 29.09,61.51 L 29.83,60.18 L 30.24,59.44 L 32.03,56.26 L 33.05,54.50 L 34.31,52.32 M 54.23,7.34 L 54.40,7.57 L 54.92,8.32 L 55.20,8.75 L 55.93,9.87 L 56.31,10.47 L 57.21,11.92 L 57.68,12.68 L 58.74,14.40 L 59.28,15.29 L 60.45,17.25 L 64.28,23.75 L 64.95,24.90 L 66.46,27.48 L 67.23,28.81 L 68.90,31.67 L 70.59,34.58 L 74.25,40.84 L 76.08,43.98 L 77.41,46.25 L 77.28,46.32 L 76.80,46.30 L 76.37,46.03 L 76.09,45.74 L 75.49,45.09 L 75.13,44.61 L 74.34,43.54 L 73.87,42.84 L 72.88,41.33 L 72.30,40.41 L 71.08,38.43 L 70.38,37.26 L 68.92,34.79 L 68.09,33.36 L 66.36,30.36 L 65.39,28.66 L 62.81,24.11 L 61.35,21.57 L 60.74,20.52 L 59.60,18.54 L 59.14,17.74 L 58.26,16.25 L 57.91,15.66 L 57.25,14.58 L 56.99,14.16 L 56.50,13.41 L 56.30,13.12 L 55.61,12.21 L 55.34,11.94 L 54.56,11.43 L 54.00,11.29 L 53.69,11.32 L 52.44,11.69 L 51.77,12.23 L 50.43,13.54 L 49.78,14.50 L 48.75,16.20 L 49.49,14.75 L 50.01,13.68 L 51.00,11.74 L 51.49,10.81 L 52.34,9.28 L 52.74,8.57 L 53.35,7.61 L 53.90,7.00 L 53.94,7.00 M 54.28,20.30 L 54.94,20.69 L 55.42,21.16 L 55.93,21.68 L 56.24,22.02 L 56.89,22.74 L 57.29,23.19 L 58.83,25.17 L 60.02,26.89 L 60.65,27.89 L 63.29,32.18 L 64.52,34.39 L 65.71,36.57 L 66.23,37.57 L 67.20,39.51 L 67.57,40.33 L 68.21,41.83 L 68.37,42.35 L 68.58,43.22 L 68.49,43.35 L 68.43,43.47 L 68.07,42.87 L 66.99,41.05 L 64.94,37.61 L 63.94,35.93 L 62.07,32.83 L 61.17,31.33 L 59.54,28.65 L 58.76,27.37 L 57.41,25.18 L 56.78,24.16 L 55.76,22.55 L 55.30,21.82 L 54.65,20.86 L 54.20,20.28 M 54.03,20.22 L 53.70,20.43 L 53.49,20.59 L 52.97,21.16 L 51.14,23.74 L 50.16,25.36 L 48.50,28.13 L 48.70,27.77 L 48.84,27.50 L 50.79,24.09 L 51.44,23.05 L 51.73,22.61 L 52.29,21.80 L 52.50,21.53 L 53.44,20.47 L 53.97,20.20 M 47.92,17.95 L 46.00,21.58 L 45.36,22.50 L 45.08,22.82 L 44.55,23.34 L 44.34,23.42 L 43.89,23.79 L 44.35,23.31 L 44.54,23.20 L 45.18,22.38 L 45.54,21.89 L 46.43,20.46 L 46.90,19.69 L 47.92,17.82 L 48.28,17.12 M 12.23,92.04 L 12.59,91.21 L 12.87,90.64 L 13.48,89.41 L 13.87,88.67 L 14.69,87.11 L 15.17,86.24 L 16.30,84.19 L 15.10,86.37 L 14.63,87.24 L 13.82,88.79 L 13.44,89.52 L 12.84,90.74 L 12.57,91.30 L 12.22,92.13 L 12.00,92.87 L 12.00,92.77 Z" fill="rgba(3,63,195,1)"/>
<path d="M 4.83,96.00 L 4.72,94.90 L 4.74,93.18 L 4.76,92.81 L 4.85,92.32 L 5.06,92.00 L 5.16,92.00 L 5.42,91.77 L 5.57,91.63 L 5.90,91.17 L 6.25,90.66 L 6.99,89.26 L 7.35,88.55 L 7.90,87.16 L 8.17,85.75 L 8.13,85.54 L 8.36,85.22 L 9.06,85.00 L 9.35,85.00 L 9.63,84.71 L 9.50,84.00 L 9.33,83.72 L 9.35,83.29 L 9.84,83.00 L 9.98,83.00 L 10.40,82.70 L 10.62,82.51 L 11.16,81.89 L 11.73,81.22 L 12.98,79.32 L 13.59,78.34 L 14.60,76.39 L 14.81,75.94 L 15.11,75.15 L 15.31,74.25 L 15.32,73.91 L 15.59,73.37 L 16.23,73.00 L 16.47,73.00 L 16.67,72.71 L 16.50,72.00 L 16.33,71.72 L 16.35,71.29 L 16.85,71.00 L 16.99,71.00 L 17.45,70.62 L 17.70,70.37 L 18.33,69.59 L 18.99,68.74 L 20.51,66.36 L 21.25,65.14 L 22.48,62.77 L 22.74,62.23 L 23.10,61.32 L 23.33,60.33 L 23.33,59.99 L 23.74,59.29 L 24.73,58.55 L 25.11,58.40 L 25.53,57.88 L 25.50,57.01 L 25.33,56.73 L 25.39,56.30 L 26.00,56.00 L 26.31,56.00 L 26.62,55.73 L 26.55,55.08 L 26.39,54.83 L 26.61,53.97 L 27.56,52.58 L 28.00,52.15 L 28.49,51.46 L 28.50,51.00 L 28.32,51.00 L 28.51,50.53 L 29.45,49.41 L 29.73,49.13 L 30.65,47.88 L 31.15,47.16 L 32.41,45.24 L 33.06,44.21 L 34.51,41.86 L 35.24,40.65 L 36.73,38.12 L 37.47,36.86 L 38.85,34.42 L 39.51,33.23 L 40.63,31.13 L 41.15,30.14 L 41.87,28.63 L 42.02,28.30 L 42.21,27.80 L 42.33,27.32 L 42.33,26.95 L 42.60,26.39 L 43.23,26.00 L 43.47,26.00 L 43.67,25.70 L 43.50,24.99 L 43.32,24.72 L 43.49,24.12 L 44.34,23.42 L 44.55,23.34 L 45.08,22.82 L 45.36,22.50 L 46.00,21.58 L 47.92,17.95 L 48.50,16.62 L 49.78,14.50 L 50.43,13.54 L 51.77,12.23 L 52.44,11.69 L 53.69,11.32 L 54.00,11.29 L 54.56,11.43 L 55.34,11.94 L 55.61,12.21 L 56.30,13.12 L 56.50,13.41 L 56.99,14.16 L 57.25,14.58 L 57.91,15.66 L 58.26,16.25 L 59.14,17.74 L 59.60,18.54 L 60.74,20.52 L 61.35,21.57 L 62.81,24.11 L 65.39,28.66 L 66.36,30.36 L 68.09,33.36 L 68.92,34.79 L 70.38,37.26 L 71.08,38.43 L 72.30,40.41 L 72.88,41.33 L 73.87,42.84 L 74.34,43.54 L 75.13,44.61 L 75.49,45.09 L 76.09,45.74 L 76.37,46.03 L 76.80,46.30 L 77.28,46.32 L 77.58,46.14 L 77.81,46.20 L 77.58,46.86 L 77.48,47.02 L 77.46,47.57 L 77.47,47.88 L 77.65,48.64 L 78.81,51.27 L 80.17,53.51 L 82.81,58.28 L 84.08,60.64 L 86.23,64.99 L 86.72,66.00 L 87.52,67.80 L 87.89,68.64 L 88.43,70.01 L 88.66,70.64 L 88.86,71.47 L 88.75,71.99 L 88.57,71.99 L 87.87,71.35 L 87.46,70.94 L 86.40,69.62 L 85.83,68.88 L 84.54,67.05 L 82.50,63.92 L 81.30,61.99 L 79.18,58.60 L 78.16,56.98 L 76.38,54.17 L 75.53,52.83 L 74.07,50.58 L 73.38,49.51 L 72.21,47.78 L 71.66,46.97 L 70.77,45.72 L 70.35,45.16 L 69.71,44.37 L 69.42,44.02 L 69.01,43.65 L 68.62,43.54 L 68.45,43.67 L 68.33,43.67 L 68.49,43.35 L 68.58,43.22 L 68.37,42.35 L 68.21,41.83 L 67.57,40.33 L 67.20,39.51 L 66.23,37.57 L 65.71,36.57 L 64.52,34.39 L 63.29,32.18 L 60.65,27.89 L 60.02,26.89 L 58.83,25.17 L 57.29,23.19 L 56.89,22.74 L 56.24,22.02 L 55.93,21.68 L 55.42,21.16 L 54.94,20.69 L 54.28,20.30 L 53.97,20.20 L 53.44,20.47 L 52.50,21.53 L 52.29,21.80 L 51.73,22.61 L 51.44,23.05 L 50.79,24.09 L 48.84,27.50 L 48.70,27.77 L 48.27,28.55 L 48.03,28.98 L 47.44,30.02 L 46.81,31.12 L 45.19,33.92 L 44.33,35.39 L 42.39,38.66 L 39.37,43.72 L 37.35,47.09 L 33.05,54.50 L 32.03,56.26 L 30.24,59.44 L 29.83,60.18 L 29.09,61.51 L 28.17,63.22 L 27.11,65.23 L 24.83,69.39 L 24.29,70.37 L 23.33,72.07 L 22.21,74.00 L 20.92,76.14 L 18.44,80.41 L 17.24,82.49 L 15.17,86.24 L 14.69,87.11 L 13.87,88.67 L 13.48,89.41 L 12.87,90.64 L 12.59,91.21 L 12.23,92.04 L 12.00,92.77 L 12.00,93.13 L 12.46,93.72 L 12.77,94.00 L 13.83,94.42 L 14.43,94.61 L 16.05,94.85 L 19.08,95.00 L 19.96,95.00 L 21.18,95.08 L 21.71,95.13 L 22.36,95.41 L 22.63,95.58 L 22.88,96.16 L 23.00,97.50 L 23.00,98.12 L 22.85,98.94 L 22.71,99.29 L 21.86,99.68 L 21.58,99.76 L 20.80,99.86 L 20.36,99.91 L 19.22,99.96 L 18.59,99.98 L 17.02,99.99 L 14.11,100.00 L 5.21,100.00 L 4.83,96.00 Z" fill="rgba(1,67,210,1)"/>
</g>
</svg>