<svg xmlns="http://www.w3.org/2000/svg" width="1000" height="1000" viewBox="0 0 1000 1000">
<g>
<path d="M 125.50,489.66 L 125.72,489.77 L 126.29,490.25 L 126.89,490.79 L 128.31,492.55 L 129.01,493.47 L 130.18,495.37 L 130.43,495.82 L 130.78,496.61 L 131.00,497.53 L 131.00,497.61 L 130.87,497.98 L 130.78,498.20 L 130.48,498.85 L 130.14,499.56 L 129.06,501.65 L 128.46,502.79 L 126.96,505.52 L 124.39,510.05 L 123.93,510.84 L 122.73,512.92 L 122.09,514.04 L 120.56,516.71 L 119.75,518.10 L 117.95,521.24 L 117.02,522.86 L 115.01,526.36 L 112.96,529.94 L 108.49,537.72 L 101.74,549.50 L 99.53,553.35 L 95.32,560.68 L 94.30,562.45 L 92.37,565.79 L 91.43,567.41 L 89.70,570.40 L 88.86,571.85 L 87.38,574.40 L 86.67,575.61 L 85.48,577.64 L 84.93,578.58 L 84.09,580.00 L 83.28,581.34 L 82.61,582.40 L 81.72,584.21 L 81.55,584.61 L 81.37,585.20 L 81.38,585.71 L 81.40,585.73 L 81.77,585.76 L 82.01,585.78 L 82.82,585.81 L 83.27,585.83 L 84.48,585.86 L 85.14,585.88 L 86.73,585.90 L 87.58,585.92 L 89.54,585.95 L 90.56,585.96 L 92.86,585.98 L 94.05,585.99 L 96.67,586.02 L 98.02,586.03 L 100.93,586.05 L 103.91,586.06 L 110.67,586.09 L 114.16,586.10 L 121.80,586.12 L 125.72,586.13 L 134.07,586.13 L 147.20,586.11 L 150.43,586.11 L 156.44,586.09 L 159.38,586.09 L 164.83,586.07 L 167.49,586.06 L 172.40,586.04 L 174.79,586.03 L 179.18,586.00 L 181.31,585.99 L 185.21,585.96 L 187.10,585.94 L 190.53,585.90 L 192.18,585.88 L 195.16,585.84 L 196.60,585.82 L 199.15,585.77 L 200.38,585.74 L 202.54,585.68 L 203.57,585.65 L 205.35,585.59 L 206.19,585.56 L 207.62,585.48 L 208.29,585.45 L 209.39,585.37 L 209.90,585.32 L 210.70,585.23 L 211.06,585.19 L 211.57,585.09 L 212.17,584.75 L 212.13,584.58 L 211.79,583.87 L 211.58,583.47 L 210.98,582.40 L 208.57,578.50 L 207.86,577.41 L 206.57,575.40 L 205.95,574.41 L 204.84,572.61 L 204.31,571.74 L 203.39,570.17 L 202.96,569.41 L 202.23,568.08 L 201.89,567.45 L 201.37,566.37 L 201.13,565.86 L 200.81,565.05 L 200.68,564.68 L 200.58,564.14 L 200.67,563.66 L 200.85,563.49 L 201.47,563.23 L 201.82,563.12 L 202.71,562.98 L 203.65,562.88 L 205.91,563.02 L 207.05,563.13 L 209.13,563.64 L 209.61,563.79 L 210.39,564.14 L 211.23,564.75 L 211.36,564.90 L 211.79,565.48 L 212.02,565.81 L 212.64,566.72 L 212.97,567.21 L 213.74,568.40 L 214.15,569.02 L 215.05,570.44 L 215.98,571.90 L 218.09,575.30 L 219.17,577.04 L 221.41,580.69 L 222.51,582.51 L 224.62,586.03 L 225.63,587.73 L 227.36,590.70 L 227.76,591.39 L 228.45,592.60 L 228.77,593.17 L 229.28,594.10 L 229.51,594.53 L 229.81,595.14 L 230.00,595.64 L 230.00,595.67 L 229.57,595.73 L 229.29,595.76 L 228.31,595.81 L 227.76,595.84 L 226.27,595.89 L 225.46,595.92 L 223.47,595.97 L 222.42,596.00 L 219.98,596.05 L 218.70,596.07 L 215.82,596.12 L 214.32,596.14 L 211.04,596.19 L 209.34,596.21 L 205.68,596.25 L 203.80,596.27 L 199.78,596.30 L 197.73,596.32 L 193.39,596.35 L 191.18,596.37 L 186.55,596.40 L 184.20,596.41 L 179.29,596.43 L 174.33,596.45 L 163.72,596.48 L 147.00,596.50 L 141.29,596.50 L 130.33,596.49 L 124.94,596.48 L 114.77,596.45 L 112.29,596.44 L 107.52,596.42 L 105.17,596.41 L 100.68,596.39 L 98.47,596.38 L 94.28,596.35 L 92.23,596.34 L 88.38,596.31 L 86.50,596.30 L 83.01,596.27 L 81.32,596.25 L 78.22,596.22 L 76.73,596.20 L 74.06,596.16 L 72.77,596.14 L 70.55,596.11 L 69.50,596.09 L 67.75,596.05 L 66.94,596.03 L 65.69,595.99 L 65.14,595.97 L 64.43,595.92 L 64.15,595.90 L 64.00,595.86 L 64.00,595.81 L 64.26,595.28 L 64.43,594.95 L 65.00,593.88 L 65.32,593.29 L 66.17,591.75 L 66.62,590.93 L 67.71,588.98 L 68.28,587.96 L 69.58,585.67 L 70.26,584.48 L 71.73,581.89 L 76.64,573.36 L 77.50,571.85 L 79.53,568.34 L 80.58,566.52 L 82.92,562.46 L 84.12,560.38 L 86.68,555.93 L 87.99,553.67 L 90.69,548.96 L 93.42,544.22 L 98.97,534.57 L 100.34,532.19 L 102.99,527.57 L 106.76,521.00 L 107.96,518.90 L 110.28,514.86 L 111.43,512.86 L 113.61,509.09 L 114.67,507.25 L 116.65,503.83 L 117.61,502.18 L 119.33,499.21 L 120.16,497.79 L 121.59,495.35 L 122.26,494.21 L 123.34,492.39 L 123.83,491.56 L 124.50,490.45 L 125.02,489.65 L 125.12,489.54 M 422.70,505.74 L 425.64,506.13 L 427.11,506.37 L 430.00,507.16 L 431.43,507.61 L 434.21,508.80 L 435.58,509.44 L 438.21,511.03 L 439.50,511.87 L 441.94,513.85 L 443.13,514.89 L 445.32,517.27 L 446.39,518.51 L 448.30,521.28 L 450.81,525.88 L 451.27,526.89 L 452.02,529.04 L 452.37,530.13 L 452.88,532.41 L 453.34,534.72 L 453.56,539.54 L 453.56,541.95 L 452.85,546.69 L 452.61,547.85 L 451.97,550.09 L 450.74,553.27 L 449.86,555.18 L 447.42,558.87 L 446.10,560.68 L 442.98,563.95 L 441.37,565.52 L 437.86,568.11 L 436.97,568.70 L 435.17,569.71 L 432.47,570.92 L 430.67,571.60 L 426.65,572.44 L 424.60,572.78 L 420.35,572.94 L 418.22,572.94 L 414.07,572.44 L 412.04,572.10 L 408.36,570.92 L 407.10,570.44 L 404.71,569.22 L 403.54,568.58 L 401.33,567.06 L 400.24,566.27 L 398.22,564.46 L 397.24,563.53 L 395.43,561.47 L 394.56,560.41 L 392.99,558.11 L 392.24,556.93 L 390.92,554.42 L 390.29,553.14 L 389.25,550.44 L 388.01,546.21 L 387.60,544.44 L 387.28,540.80 L 387.21,538.97 L 387.57,535.25 L 387.83,533.39 L 388.84,529.66 L 391.11,524.10 L 391.90,522.52 L 393.73,519.66 L 394.69,518.28 L 396.82,515.83 L 397.92,514.65 L 400.30,512.61 L 401.51,511.65 L 404.10,510.01 L 405.41,509.25 L 408.16,508.02 L 409.55,507.46 L 412.41,506.64 L 413.85,506.28 L 416.78,505.87 L 418.26,505.71 L 421.22,505.70 M 516.50,507.20 L 521.00,507.50 L 521.25,529.50 L 521.27,531.07 L 521.31,533.95 L 521.33,535.34 L 521.39,537.90 L 521.42,539.14 L 521.49,541.40 L 521.53,542.49 L 521.63,544.47 L 521.73,546.39 L 522.04,549.51 L 522.22,550.96 L 522.71,553.30 L 522.98,554.39 L 523.70,556.14 L 524.09,556.96 L 525.09,558.31 L 525.62,558.96 L 526.94,560.12 L 529.34,561.84 L 530.18,562.39 L 531.65,563.19 L 532.37,563.55 L 533.87,564.00 L 534.65,564.20 L 536.52,564.39 L 540.10,564.50 L 541.57,564.50 L 543.78,564.39 L 544.80,564.31 L 546.42,563.97 L 547.20,563.76 L 548.67,563.05 L 551.16,561.45 L 552.35,560.62 L 554.58,558.59 L 555.08,558.09 L 555.90,557.15 L 556.73,555.96 L 556.84,555.74 L 557.03,555.03 L 557.13,554.63 L 557.29,553.53 L 557.37,552.93 L 557.51,551.42 L 557.58,550.60 L 557.68,548.65 L 557.73,547.61 L 557.82,545.19 L 557.85,543.92 L 557.91,541.00 L 557.93,539.47 L 557.96,536.03 L 557.99,530.25 L 558.00,507.00 L 567.00,507.00 L 567.00,572.00 L 561.38,572.00 L 559.91,571.94 L 559.28,571.89 L 558.57,571.56 L 558.29,571.34 L 558.07,570.52 L 558.00,568.50 L 558.00,567.47 L 557.82,566.12 L 557.69,565.57 L 557.19,565.18 L 556.89,565.10 L 555.98,565.64 L 554.05,567.45 L 553.42,568.12 L 551.75,569.29 L 550.86,569.85 L 548.75,570.78 L 547.66,571.22 L 545.25,571.90 L 544.01,572.21 L 541.41,572.62 L 540.09,572.79 L 537.42,572.92 L 536.09,572.94 L 533.47,572.77 L 532.18,572.64 L 529.73,572.15 L 528.55,571.86 L 526.40,571.03 L 525.84,570.78 L 524.52,570.03 L 523.84,569.62 L 522.43,568.64 L 518.64,565.44 L 517.91,564.69 L 516.68,563.22 L 516.10,562.47 L 515.14,560.88 L 514.69,560.05 L 513.97,558.15 L 513.64,557.15 L 513.13,554.77 L 512.90,553.50 L 512.56,550.46 L 512.41,548.84 L 512.22,544.95 L 512.18,543.92 L 512.11,541.66 L 512.08,540.50 L 512.05,537.98 L 512.03,536.68 L 512.01,533.85 L 512.00,529.26 L 512.00,506.89 M 497.56,505.58 L 498.36,505.73 L 499.46,506.03 L 499.93,506.20 L 500.49,506.71 L 500.72,507.01 L 500.92,507.95 L 501.00,510.11 L 501.00,514.00 L 494.28,514.00 L 491.35,514.38 L 489.94,514.63 L 487.45,515.59 L 486.24,516.15 L 483.99,517.77 L 480.69,521.05 L 477.00,525.36 L 477.00,572.00 L 467.00,572.00 L 467.00,507.00 L 477.00,507.00 L 477.00,511.48 L 477.17,512.81 L 477.29,513.37 L 477.69,513.83 L 477.92,513.96 L 478.55,513.57 L 479.75,512.02 L 480.07,511.52 L 481.01,510.54 L 481.52,510.06 L 482.80,509.16 L 484.14,508.28 L 487.47,506.88 L 489.18,506.26 L 492.73,505.57 L 493.60,505.45 L 495.26,505.38 M 378.00,490.09 L 323.50,489.81 L 323.23,505.91 L 322.95,522.00 L 359.00,522.00 L 359.00,531.00 L 323.00,531.00 L 323.00,572.00 L 313.00,572.00 L 313.00,481.00 L 378.00,481.00 M 612.82,505.79 L 614.40,505.86 L 617.52,506.43 L 619.07,506.78 L 622.04,507.90 L 623.50,508.52 L 626.22,510.19 L 629.88,513.30 L 633.25,516.85 L 635.67,513.98 L 636.00,513.58 L 637.04,512.65 L 637.61,512.17 L 638.99,511.16 L 643.57,508.42 L 644.79,507.83 L 646.72,507.01 L 647.65,506.66 L 649.43,506.26 L 650.35,506.11 L 652.53,506.04 L 653.13,506.04 L 654.49,506.08 L 656.87,506.20 L 657.70,506.25 L 659.14,506.35 L 659.83,506.41 L 661.04,506.54 L 662.20,506.68 L 664.01,507.10 L 664.86,507.34 L 666.37,508.05 L 668.74,509.56 L 669.91,510.40 L 671.97,512.26 L 672.95,513.21 L 674.62,515.28 L 675.40,516.34 L 676.65,518.58 L 678.03,522.10 L 678.09,522.33 L 678.22,523.25 L 678.29,523.78 L 678.40,525.25 L 678.46,526.04 L 678.57,527.97 L 678.62,528.99 L 678.71,531.32 L 678.76,532.53 L 678.83,535.18 L 678.87,536.54 L 678.92,539.45 L 679.00,548.74 L 679.00,572.00 L 670.13,572.00 L 669.82,548.75 L 669.80,547.43 L 669.76,545.00 L 669.75,543.83 L 669.71,541.67 L 669.67,539.57 L 669.59,536.11 L 669.54,534.49 L 669.44,531.85 L 669.38,530.62 L 669.23,528.66 L 669.15,527.76 L 668.96,526.32 L 668.85,525.66 L 668.59,524.60 L 667.50,522.10 L 666.82,520.95 L 665.28,519.03 L 664.48,518.14 L 662.68,516.72 L 661.75,516.07 L 659.67,515.15 L 656.23,514.30 L 654.61,514.09 L 651.76,514.07 L 650.38,514.14 L 647.87,514.73 L 646.63,515.11 L 644.25,516.38 L 640.61,519.11 L 636.00,523.17 L 636.00,572.00 L 627.10,572.00 L 626.80,549.25 L 626.77,546.77 L 626.70,542.55 L 626.66,540.55 L 626.58,537.20 L 626.54,535.62 L 626.43,533.01 L 626.37,531.78 L 626.23,529.78 L 626.15,528.85 L 625.96,527.33 L 625.86,526.63 L 625.62,525.47 L 624.63,522.73 L 624.00,521.48 L 622.41,519.36 L 621.56,518.37 L 619.54,516.80 L 618.48,516.09 L 616.06,515.08 L 611.99,514.22 L 610.43,514.08 L 607.59,514.20 L 606.20,514.34 L 603.64,515.06 L 602.38,515.50 L 600.02,516.84 L 596.61,519.59 L 593.00,523.10 L 593.00,572.00 L 584.00,572.00 L 584.00,507.00 L 593.00,507.00 L 593.00,514.37 L 595.75,511.74 L 596.87,510.67 L 599.42,508.96 L 600.74,508.18 L 603.60,507.05 L 605.06,506.56 L 608.13,506.00 L 609.67,505.79 M 418.41,514.27 L 417.23,514.39 L 414.92,514.91 L 413.78,515.22 L 411.57,516.10 L 410.48,516.59 L 408.40,517.84 L 405.50,520.11 L 404.52,521.01 L 402.81,522.95 L 401.99,523.94 L 400.61,526.05 L 399.96,527.13 L 398.91,529.38 L 398.43,530.52 L 397.73,532.90 L 397.42,534.11 L 397.06,536.60 L 396.92,537.85 L 396.91,540.43 L 396.95,541.72 L 397.29,544.37 L 398.22,548.38 L 398.44,549.13 L 399.17,550.70 L 399.58,551.49 L 400.63,553.12 L 401.76,554.74 L 404.67,557.84 L 406.19,559.32 L 409.45,561.71 L 410.26,562.23 L 411.84,563.05 L 414.10,563.85 L 415.52,564.19 L 418.44,564.48 L 419.90,564.57 L 422.79,564.39 L 424.22,564.24 L 426.96,563.59 L 428.30,563.21 L 430.75,562.11 L 431.81,561.57 L 433.74,560.28 L 434.67,559.60 L 436.35,558.08 L 437.16,557.29 L 438.58,555.57 L 439.26,554.68 L 440.43,552.79 L 440.99,551.83 L 441.90,549.80 L 442.33,548.77 L 442.99,546.65 L 443.59,544.50 L 444.00,540.06 L 444.08,537.83 L 443.46,533.43 L 443.24,532.35 L 442.60,530.23 L 442.25,529.18 L 441.35,527.17 L 440.87,526.18 L 439.70,524.30 L 439.08,523.38 L 437.65,521.68 L 436.90,520.85 L 435.20,519.35 L 432.35,517.37 L 431.26,516.73 L 428.99,515.73 L 427.85,515.29 L 425.51,514.68 L 424.33,514.42 L 421.96,514.19 L 420.77,514.13 M 176.07,402.21 L 176.56,402.90 L 176.87,403.35 L 177.80,404.83 L 178.32,405.66 L 179.65,407.85 L 180.36,409.02 L 182.03,411.81 L 182.90,413.27 L 184.86,416.59 L 185.87,418.30 L 188.06,422.05 L 189.18,423.97 L 191.55,428.07 L 195.26,434.50 L 197.65,438.68 L 202.23,446.66 L 204.48,450.58 L 208.77,458.05 L 210.88,461.72 L 214.88,468.68 L 216.84,472.10 L 220.55,478.56 L 222.37,481.73 L 225.79,487.68 L 227.47,490.60 L 230.61,496.06 L 232.14,498.72 L 235.00,503.68 L 236.39,506.10 L 238.96,510.56 L 240.22,512.73 L 242.51,516.70 L 243.62,518.63 L 245.63,522.10 L 246.60,523.78 L 248.33,526.77 L 249.16,528.20 L 250.62,530.71 L 251.31,531.90 L 252.49,533.91 L 253.04,534.86 L 253.94,536.40 L 254.36,537.10 L 254.99,538.15 L 255.62,539.19 L 256.28,540.23 L 257.30,542.15 L 257.52,542.59 L 257.81,543.29 L 258.00,543.98 L 258.00,544.02 L 257.76,544.10 L 257.60,544.14 L 257.04,544.22 L 256.73,544.26 L 255.85,544.33 L 255.37,544.36 L 254.17,544.43 L 253.54,544.46 L 252.02,544.52 L 251.22,544.55 L 249.39,544.60 L 248.43,544.63 L 246.27,544.68 L 245.15,544.70 L 242.67,544.75 L 241.40,544.77 L 238.60,544.81 L 237.16,544.82 L 234.03,544.86 L 232.43,544.87 L 228.99,544.90 L 227.23,544.91 L 223.46,544.94 L 221.54,544.95 L 217.45,544.96 L 215.36,544.97 L 210.95,544.98 L 208.71,544.99 L 203.97,545.00 L 196.50,545.00 L 193.44,545.00 L 187.74,545.00 L 184.95,544.99 L 179.79,544.99 L 177.27,544.98 L 172.63,544.97 L 170.37,544.96 L 166.22,544.94 L 164.21,544.93 L 160.53,544.91 L 158.74,544.90 L 155.51,544.87 L 153.95,544.85 L 151.14,544.81 L 149.79,544.79 L 147.38,544.74 L 146.22,544.72 L 144.19,544.67 L 143.22,544.64 L 141.54,544.58 L 140.74,544.54 L 139.40,544.47 L 138.76,544.44 L 137.72,544.36 L 137.23,544.31 L 136.48,544.22 L 136.13,544.18 L 135.63,544.08 L 135.20,543.97 L 135.00,543.73 L 135.00,543.56 L 135.20,542.95 L 135.33,542.60 L 135.74,541.74 L 137.54,538.73 L 140.07,535.00 L 193.20,535.00 L 197.96,535.00 L 200.28,534.99 L 204.57,534.99 L 206.66,534.98 L 210.51,534.97 L 212.38,534.96 L 215.81,534.95 L 217.47,534.94 L 220.49,534.91 L 221.95,534.90 L 224.60,534.87 L 225.87,534.85 L 228.15,534.81 L 229.25,534.79 L 231.19,534.75 L 232.12,534.72 L 233.75,534.67 L 234.52,534.64 L 235.85,534.58 L 236.48,534.54 L 237.53,534.47 L 238.03,534.43 L 238.82,534.35 L 239.56,534.27 L 240.36,534.06 L 240.72,533.71 L 240.68,533.62 L 240.36,533.00 L 240.16,532.62 L 239.52,531.47 L 239.17,530.84 L 238.27,529.22 L 237.78,528.36 L 236.64,526.34 L 236.04,525.29 L 234.70,522.93 L 234.01,521.72 L 232.50,519.08 L 227.53,510.46 L 226.66,508.95 L 224.60,505.37 L 223.52,503.50 L 221.11,499.31 L 219.86,497.15 L 217.19,492.50 L 215.83,490.14 L 212.98,485.18 L 210.10,480.18 L 204.20,469.89 L 202.74,467.35 L 199.89,462.38 L 195.80,455.25 L 194.49,452.96 L 191.96,448.57 L 190.71,446.41 L 188.34,442.34 L 187.18,440.35 L 185.03,436.69 L 183.99,434.92 L 182.10,431.77 L 181.20,430.26 L 179.65,427.70 L 178.92,426.50 L 177.74,424.62 L 177.21,423.78 L 176.47,422.68 L 175.91,422.00 L 175.86,422.00 L 175.62,422.23 L 175.48,422.38 L 175.10,422.88 L 174.68,423.44 L 173.49,425.27 L 172.85,426.28 L 171.33,428.81 L 168.84,433.12 L 162.61,444.25 L 160.28,441.37 L 159.75,440.71 L 158.89,439.55 L 158.51,438.99 L 157.97,437.93 L 157.74,437.40 L 157.54,436.31 L 157.48,435.75 L 157.65,434.49 L 157.78,433.83 L 158.34,432.27 L 158.67,431.44 L 159.65,429.46 L 160.19,428.40 L 161.61,425.86 L 164.27,421.26 L 165.30,419.51 L 167.31,416.05 L 168.29,414.35 L 170.05,411.28 L 170.88,409.82 L 172.19,407.48 L 172.48,406.96 L 172.95,406.11 L 173.44,405.19 L 173.90,404.27 L 174.89,402.94 L 175.12,402.67 L 175.53,402.33 L 176.01,402.19 Z" fill="rgba(0,0,0,1)"/>
<path d="M 820.06,528.14 L 820.07,534.99 L 820.08,539.14 L 820.08,541.01 L 820.09,544.62 L 820.10,546.24 L 820.12,549.36 L 820.13,550.75 L 820.15,553.41 L 820.17,554.59 L 820.20,556.84 L 820.22,557.82 L 820.26,559.70 L 820.29,560.51 L 820.35,562.05 L 820.39,562.71 L 820.54,565.05 L 820.65,565.87 L 820.88,567.31 L 821.03,567.80 L 821.36,568.64 L 821.57,568.94 L 822.01,569.51 L 822.27,569.79 L 823.71,571.05 L 824.50,571.40 L 825.60,571.74 L 820.09,572.11 L 820.06,530.41 L 820.06,527.54 L 820.06,525.60 M 101.46,428.03 L 101.62,428.46 L 101.56,429.59 L 101.20,430.75 L 100.90,431.48 L 100.19,433.05 L 99.73,433.94 L 98.73,435.78 L 98.15,436.76 L 96.58,439.43 L 95.68,441.04 L 95.33,441.71 L 94.71,442.94 L 94.52,443.36 L 94.26,444.06 L 94.29,444.15 L 93.97,445.15 L 93.35,446.13 L 92.92,446.65 L 92.08,447.80 L 91.38,448.90 L 90.98,449.57 L 89.32,452.49 L 88.56,454.00 L 86.19,458.35 L 85.45,459.56 L 85.15,460.03 L 84.58,460.86 L 84.39,461.08 L 83.40,462.46 L 82.98,463.33 L 82.97,463.58 L 82.73,464.25 L 82.35,464.94 L 82.08,465.38 L 80.79,467.35 L 79.97,468.43 L 77.87,471.55 L 77.39,472.43 L 77.23,472.77 L 77.00,473.38 L 77.00,473.54 L 76.84,474.21 L 76.59,474.80 L 76.41,475.14 L 75.53,476.60 L 74.98,477.30 L 73.91,478.84 L 73.01,480.27 L 72.51,481.12 L 70.39,484.81 L 69.41,486.69 L 67.69,489.98 L 66.63,492.00 L 66.14,492.91 L 65.21,494.67 L 64.79,495.45 L 63.98,496.95 L 63.62,497.60 L 62.94,498.83 L 62.65,499.34 L 62.11,500.29 L 61.89,500.66 L 61.48,501.33 L 61.33,501.55 L 61.07,501.93 L 61.00,502.00 L 60.22,502.95 L 59.53,503.93 L 59.12,504.54 L 57.34,507.26 L 56.44,508.75 L 55.54,510.23 L 55.14,510.92 L 54.36,512.28 L 54.04,512.86 L 53.46,513.94 L 53.28,514.32 L 53.00,514.98 L 53.00,515.10 L 52.73,515.91 L 52.31,516.74 L 52.01,517.26 L 50.55,519.59 L 49.62,520.87 L 48.16,523.04 L 47.11,524.75 L 46.58,525.69 L 44.42,529.62 L 43.44,531.60 L 42.50,533.56 L 42.08,534.48 L 41.30,536.25 L 40.99,537.03 L 40.43,538.50 L 40.26,539.07 L 40.00,540.09 L 40.00,540.39 L 40.58,541.69 L 41.58,542.32 L 42.41,542.53 L 44.29,542.86 L 45.60,542.93 L 46.96,542.98 L 47.74,542.98 L 49.36,542.97 L 50.27,542.93 L 53.14,542.86 L 54.78,542.85 L 55.46,542.86 L 56.72,542.89 L 57.21,542.91 L 58.08,542.98 L 58.36,543.03 L 58.82,543.14 L 58.89,543.20 L 58.92,543.34 L 58.77,543.42 L 58.36,543.59 L 57.98,543.69 L 57.11,543.89 L 56.50,544.00 L 55.84,544.12 L 55.62,544.18 L 55.25,544.28 L 55.17,544.33 L 55.08,544.42 L 55.15,544.45 L 55.36,544.52 L 55.58,544.55 L 56.10,544.61 L 56.47,544.63 L 57.30,544.66 L 57.83,544.68 L 58.98,544.70 L 59.67,544.71 L 61.14,544.72 L 62.00,544.72 L 64.33,544.71 L 65.64,544.69 L 66.17,544.68 L 67.15,544.65 L 67.53,544.63 L 68.20,544.58 L 68.42,544.55 L 68.78,544.49 L 68.85,544.45 L 68.91,544.38 L 68.83,544.33 L 68.60,544.23 L 68.38,544.18 L 67.86,544.06 L 67.50,544.00 L 66.03,543.70 L 65.24,543.51 L 64.97,543.43 L 64.51,543.27 L 64.43,543.21 L 64.36,543.10 L 64.50,543.07 L 65.76,542.81 L 66.88,542.59 L 67.40,542.49 L 68.71,541.99 L 69.52,541.44 L 69.85,541.10 L 70.47,540.37 L 70.66,539.98 L 70.98,539.18 L 70.98,538.79 L 70.34,538.49 L 69.32,538.29 L 68.57,538.20 L 66.94,538.03 L 65.95,537.96 L 63.88,537.83 L 62.75,537.79 L 58.97,537.59 L 57.09,537.40 L 56.45,537.28 L 55.36,537.01 L 55.09,536.84 L 54.70,536.48 L 54.75,536.25 L 54.49,535.37 L 53.92,535.00 L 53.51,535.00 L 52.52,534.34 L 52.51,534.28 L 52.76,534.38 L 53.27,534.52 L 55.06,534.73 L 55.58,534.77 L 56.81,534.85 L 57.46,534.88 L 58.96,534.93 L 59.75,534.96 L 61.52,534.98 L 64.50,535.00 L 66.22,535.00 L 69.35,535.03 L 70.85,535.06 L 73.33,535.13 L 74.46,535.17 L 76.01,535.27 L 76.33,535.30 L 76.74,535.35 L 77.00,535.44 L 77.00,535.56 L 76.81,536.05 L 76.68,536.34 L 76.29,537.10 L 75.86,537.91 L 74.65,539.92 L 74.03,540.91 L 72.82,542.69 L 72.54,543.08 L 72.07,543.69 L 71.54,544.23 L 71.44,544.31 L 70.86,544.44 L 70.52,544.50 L 69.50,544.61 L 68.94,544.66 L 67.56,544.74 L 66.83,544.79 L 65.14,544.85 L 63.39,544.91 L 59.26,544.98 L 57.13,545.00 L 52.65,544.99 L 50.42,544.97 L 46.13,544.89 L 44.05,544.84 L 40.48,544.69 L 39.65,544.65 L 38.23,544.55 L 37.56,544.50 L 36.50,544.39 L 36.02,544.33 L 35.39,544.20 L 35.14,544.13 L 35.00,543.99 L 35.00,543.92 L 35.12,543.59 L 35.19,543.39 L 35.45,542.83 L 35.73,542.22 L 36.66,540.42 L 37.17,539.44 L 38.45,537.10 L 40.64,533.24 L 41.03,532.57 L 42.01,530.88 L 42.53,529.98 L 43.74,527.88 L 44.37,526.79 L 45.76,524.38 L 46.48,523.14 L 48.01,520.49 L 49.56,517.79 L 52.88,512.03 L 57.78,503.50 L 59.35,500.77 L 62.37,495.52 L 63.87,492.92 L 66.77,487.88 L 69.64,482.89 L 75.15,473.33 L 77.88,468.59 L 83.28,459.24 L 91.51,445.00 L 93.10,442.26 L 96.57,436.24 L 98.34,433.16 L 101.46,427.74 M 102.55,444.75 L 102.61,444.75 L 102.42,445.08 L 101.52,446.66 L 99.39,450.38 L 98.27,452.32 L 95.79,456.66 L 94.50,458.89 L 91.74,463.71 L 90.33,466.16 L 87.38,471.30 L 85.89,473.90 L 82.83,479.22 L 73.67,495.14 L 72.18,497.73 L 69.32,502.72 L 67.91,505.18 L 65.26,509.84 L 63.96,512.12 L 61.58,516.34 L 60.42,518.38 L 58.37,522.05 L 57.38,523.80 L 55.71,526.82 L 54.93,528.23 L 53.71,530.49 L 53.16,531.51 L 52.44,532.90 L 52.30,533.19 L 52.21,533.37 L 52.18,533.28 L 52.16,532.50 L 52.24,530.78 L 52.43,529.73 L 52.93,527.50 L 53.34,526.25 L 54.05,524.45 L 54.55,523.61 L 54.84,523.35 L 55.46,522.94 L 55.83,522.86 L 56.64,522.78 L 57.15,522.85 L 57.48,522.40 L 57.50,521.69 L 57.39,521.22 L 57.42,520.23 L 57.63,519.35 L 57.82,518.83 L 58.76,516.60 L 59.44,515.50 L 60.59,513.59 L 61.46,512.11 L 61.90,511.33 L 63.69,508.19 L 64.37,506.94 L 66.58,503.33 L 67.30,502.32 L 67.61,501.93 L 68.21,501.24 L 68.42,501.06 L 69.54,499.84 L 70.00,499.02 L 70.00,498.74 L 70.30,497.70 L 70.78,496.54 L 71.12,495.79 L 71.85,494.20 L 72.28,493.32 L 73.17,491.51 L 73.65,490.59 L 74.60,488.75 L 75.06,487.89 L 75.97,486.22 L 76.38,485.52 L 77.14,484.22 L 77.43,483.78 L 77.95,483.05 L 78.08,482.97 L 78.57,482.40 L 79.01,481.71 L 79.27,481.25 L 80.38,479.14 L 80.93,477.89 L 82.90,473.97 L 83.60,472.74 L 83.93,472.22 L 84.56,471.26 L 84.82,470.92 L 86.06,469.11 L 87.19,467.32 L 87.87,466.22 L 89.27,463.90 L 90.02,462.64 L 91.54,460.05 L 92.29,458.75 L 93.77,456.17 L 94.45,454.96 L 95.74,452.64 L 96.27,451.66 L 97.23,449.85 L 97.53,449.23 L 97.80,448.67 L 97.88,448.47 L 98.00,448.14 L 98.00,448.08 L 98.58,446.85 L 99.43,445.97 L 99.94,445.60 L 100.99,444.91 L 101.46,444.75 L 102.32,444.56 M 117.02,402.57 L 117.27,402.94 L 118.04,404.13 L 118.45,404.79 L 119.45,406.43 L 121.12,409.25 L 121.41,409.75 L 122.34,411.35 L 122.86,412.24 L 124.21,414.55 L 124.93,415.78 L 126.63,418.69 L 127.52,420.22 L 129.52,423.62 L 130.55,425.38 L 132.77,429.18 L 133.91,431.11 L 136.30,435.20 L 143.82,448.00 L 145.83,451.43 L 149.52,457.72 L 151.31,460.77 L 154.58,466.33 L 156.16,469.03 L 159.03,473.92 L 160.41,476.28 L 162.91,480.53 L 164.11,482.58 L 166.26,486.24 L 167.29,488.00 L 169.11,491.12 L 169.98,492.61 L 171.51,495.22 L 172.24,496.47 L 173.49,498.63 L 174.09,499.65 L 175.10,501.39 L 175.57,502.22 L 176.36,503.59 L 176.73,504.23 L 177.33,505.28 L 177.61,505.77 L 178.03,506.53 L 178.42,507.24 L 178.81,507.99 L 179.00,508.49 L 179.00,508.56 L 178.62,508.69 L 178.37,508.75 L 177.58,508.85 L 177.14,508.90 L 176.04,508.96 L 174.15,509.00 L 173.42,509.00 L 172.20,508.98 L 171.63,508.96 L 170.64,508.78 L 170.16,508.66 L 169.26,508.20 L 168.82,507.91 L 167.89,507.01 L 167.42,506.49 L 166.33,505.00 L 165.75,504.18 L 164.37,501.98 L 163.63,500.77 L 161.83,497.71 L 161.35,496.89 L 160.28,495.05 L 158.52,492.00 L 157.98,491.07 L 156.78,489.00 L 156.16,487.94 L 154.83,485.65 L 153.47,483.33 L 150.57,478.35 L 149.11,475.86 L 146.26,471.00 L 145.57,469.82 L 144.26,467.59 L 142.45,464.50 L 141.88,463.54 L 140.62,461.40 L 139.98,460.31 L 138.60,457.96 L 137.19,455.57 L 136.66,454.67 L 136.69,454.65 L 137.42,454.61 L 138.08,454.97 L 138.40,455.30 L 140.15,457.38 L 141.41,459.10 L 141.96,459.93 L 142.99,461.53 L 143.28,462.09 L 143.53,462.60 L 143.57,462.75 L 143.61,463.00 L 143.53,463.00 L 143.44,463.16 L 143.53,463.41 L 143.65,463.59 L 144.27,464.45 L 144.78,465.00 L 145.68,466.11 L 146.37,467.09 L 146.74,467.66 L 148.22,470.08 L 148.82,471.25 L 150.02,473.45 L 151.07,475.29 L 151.68,476.31 L 154.24,480.57 L 155.47,482.50 L 159.41,488.77 L 160.67,490.81 L 161.22,491.70 L 162.24,493.38 L 162.61,494.00 L 165.08,498.12 L 166.47,500.38 L 167.05,501.28 L 168.14,502.94 L 168.59,503.57 L 169.43,504.69 L 169.77,505.06 L 170.41,505.69 L 170.66,505.83 L 171.14,506.01 L 171.34,505.96 L 171.71,505.75 L 171.87,505.52 L 172.18,504.97 L 172.33,504.59 L 172.27,504.10 L 172.09,503.53 L 171.93,503.13 L 171.58,502.27 L 171.34,501.74 L 170.84,500.62 L 170.53,499.97 L 169.19,497.18 L 168.36,495.53 L 166.61,492.10 L 165.63,490.24 L 161.51,482.51 L 159.41,478.78 L 157.34,475.12 L 156.36,473.47 L 154.48,470.30 L 153.66,469.00 L 151.76,465.94 L 151.16,464.97 L 150.91,464.55 L 150.44,463.77 L 150.28,463.50 L 149.90,462.84 L 149.51,462.17 L 149.25,461.74 L 148.71,460.80 L 148.38,460.24 L 147.70,459.07 L 147.31,458.42 L 145.68,455.61 L 144.74,454.01 L 142.82,450.72 L 141.82,449.00 L 139.00,444.09 L 137.37,441.15 L 136.73,439.95 L 136.13,438.80 L 135.88,438.31 L 135.41,437.39 L 135.24,437.03 L 134.94,436.37 L 134.86,436.16 L 134.74,435.80 L 134.76,435.75 L 134.64,435.22 L 134.27,435.00 L 134.00,435.00 L 133.29,434.66 L 133.00,434.16 L 133.00,433.84 L 132.82,433.15 L 132.53,432.50 L 132.31,432.12 L 131.31,430.45 L 130.67,429.59 L 129.52,427.96 L 128.62,426.57 L 128.13,425.79 L 126.14,422.51 L 125.31,421.00 L 122.64,416.19 L 121.16,413.61 L 120.54,412.60 L 119.38,410.78 L 118.89,410.14 L 117.96,409.01 L 117.55,408.68 L 116.76,408.18 L 116.39,408.14 L 115.66,408.20 L 115.28,408.41 L 114.52,408.95 L 114.09,409.38 L 113.21,410.33 L 112.70,410.94 L 110.72,412.82 L 110.16,413.17 L 109.95,413.23 L 109.74,413.26 L 113.75,406.25 L 114.41,405.08 L 115.57,403.25 L 115.82,402.86 L 116.21,402.34 L 116.54,402.00 L 116.59,402.00 M 899.06,500.15 L 899.20,499.62 L 899.59,498.62 M 903.16,491.88 L 902.06,493.60 L 901.55,494.53 L 899.70,498.32 L 900.62,495.94 L 901.11,494.92 L 902.31,493.01 L 902.94,492.08 L 903.63,491.28 M 956.75,486.30 L 957.66,486.77 L 958.12,487.02 L 956.99,486.45 L 956.04,486.01 M 820.53,486.23 L 820.54,486.08 L 820.58,485.46 L 820.63,484.98 M 939.80,480.77 L 942.64,481.22 L 948.34,482.82 L 949.60,483.35 L 949.51,483.32 L 947.39,482.58 L 946.39,482.28 L 944.44,481.73 L 943.57,481.55 L 940.08,480.91 L 938.23,480.69 L 937.44,480.69 L 935.90,480.75 L 935.13,480.89 L 933.56,481.23 L 932.64,481.51 L 930.52,482.07 L 929.40,482.27 L 928.97,482.29 L 928.17,482.26 L 927.87,482.17 L 927.32,481.92 L 927.11,481.71 L 925.54,480.96 L 924.06,480.80 L 923.17,480.87 L 922.66,480.94 L 923.38,480.78 L 925.96,480.34 L 931.39,480.11 L 934.14,480.10 M 118.01,423.06 L 118.49,423.42 L 119.53,424.26 L 120.19,424.86 L 123.11,428.11 L 124.05,429.36 L 124.46,429.97 L 125.22,431.17 L 125.49,431.69 L 127.19,434.60 L 127.72,435.37 L 127.94,435.65 L 128.35,436.13 L 128.49,436.23 L 128.93,436.76 L 128.83,436.98 L 128.58,436.98 L 128.38,437.17 L 128.43,437.45 L 128.53,437.66 L 129.16,438.63 L 129.73,439.25 L 132.37,442.73 L 134.03,445.47 L 134.71,446.84 L 135.95,449.54 L 136.30,450.65 L 136.60,451.71 L 136.66,452.15 L 136.73,452.94 L 136.66,453.20 L 136.47,454.34 L 134.21,450.50 L 132.72,447.96 L 129.82,443.04 L 129.12,441.85 L 127.80,439.60 L 125.98,436.50 L 124.85,434.57 L 122.75,431.03 L 121.75,429.33 L 120.05,426.48 L 119.66,425.83 L 118.99,424.70 L 118.67,424.18 L 118.16,423.34 L 117.98,423.04 M 115.36,423.46 L 115.00,423.93 L 114.11,425.23 L 113.63,425.95 L 112.48,427.80 L 111.86,428.79 L 110.41,431.23 L 109.64,432.52 L 107.85,435.60 L 104.75,441.00 L 104.10,442.13 L 102.69,444.61 L 102.46,444.23 L 102.09,443.75 L 101.43,442.51 L 101.45,442.00 L 101.72,442.00 L 102.74,441.25 L 103.52,440.15 L 103.84,439.44 L 104.91,437.79 L 105.26,437.47 L 105.42,437.40 L 105.72,437.33 L 105.83,437.40 L 106.36,437.11 L 106.52,436.31 L 106.47,435.70 L 106.64,433.75 L 107.05,432.52 L 107.34,432.15 L 108.16,430.80 L 108.55,429.83 L 108.61,429.46 L 108.91,428.70 L 109.29,428.05 L 109.55,427.68 L 110.73,426.10 L 111.39,425.36 L 112.70,423.96 L 113.19,423.57 L 113.64,423.25 L 113.78,423.21 L 114.00,423.22 L 114.00,423.38 L 114.42,423.64 L 115.05,423.38 L 115.44,423.05 L 115.89,422.80 M 109.43,414.89 L 109.18,416.10 L 108.92,416.84 L 108.35,418.38 L 107.97,419.22 L 107.17,420.90 L 106.72,421.73 L 105.80,423.37 L 105.34,424.10 L 104.40,425.49 L 103.97,426.03 L 103.12,426.99 L 102.77,427.24 L 102.12,427.57 L 101.90,427.44 L 101.60,427.49 L 102.09,426.64 L 109.36,413.93 Z" fill="rgba(0,57,188,1)"/>
<path d="M 116.76,408.18 L 117.55,408.68 L 117.96,409.01 L 118.89,410.14 L 119.38,410.78 L 120.54,412.60 L 121.16,413.61 L 122.64,416.19 L 125.31,421.00 L 126.14,422.51 L 128.13,425.79 L 128.62,426.57 L 129.52,427.96 L 130.67,429.59 L 131.31,430.45 L 132.31,432.12 L 132.53,432.50 L 132.82,433.15 L 133.00,433.84 L 133.00,434.16 L 133.29,434.66 L 134.00,435.00 L 134.27,435.00 L 134.64,435.22 L 134.76,435.75 L 134.74,435.80 L 134.86,436.16 L 134.94,436.37 L 135.24,437.03 L 135.41,437.39 L 135.88,438.31 L 136.13,438.80 L 136.73,439.95 L 137.37,441.15 L 139.00,444.09 L 141.82,449.00 L 142.82,450.72 L 144.74,454.01 L 145.68,455.61 L 147.31,458.42 L 147.70,459.07 L 148.38,460.24 L 148.71,460.80 L 149.25,461.74 L 149.51,462.17 L 149.90,462.84 L 150.28,463.50 L 150.44,463.77 L 150.91,464.55 L 151.16,464.97 L 151.76,465.94 L 153.66,469.00 L 154.48,470.30 L 156.36,473.47 L 157.34,475.12 L 159.41,478.78 L 161.51,482.51 L 165.63,490.24 L 166.61,492.10 L 168.36,495.53 L 169.19,497.18 L 170.53,499.97 L 170.84,500.62 L 171.34,501.74 L 171.58,502.27 L 171.93,503.13 L 172.09,503.53 L 172.27,504.10 L 172.33,504.59 L 172.18,504.97 L 171.87,505.52 L 171.71,505.75 L 171.34,505.96 L 171.14,506.01 L 170.66,505.83 L 170.41,505.69 L 169.77,505.06 L 169.43,504.69 L 168.59,503.57 L 168.14,502.94 L 167.05,501.28 L 166.47,500.38 L 165.08,498.12 L 162.61,494.00 L 162.24,493.38 L 161.22,491.70 L 160.67,490.81 L 159.41,488.77 L 155.47,482.50 L 154.24,480.57 L 151.68,476.31 L 151.07,475.29 L 150.02,473.45 L 148.82,471.25 L 148.22,470.08 L 146.74,467.66 L 146.37,467.09 L 145.68,466.11 L 144.78,465.00 L 144.27,464.45 L 143.65,463.59 L 143.53,463.41 L 143.44,463.16 L 143.53,463.00 L 143.61,463.00 L 143.57,462.75 L 143.53,462.60 L 143.28,462.09 L 142.99,461.53 L 141.96,459.93 L 141.41,459.10 L 140.15,457.38 L 138.40,455.30 L 138.08,454.97 L 137.42,454.61 L 136.69,454.65 L 136.54,454.80 L 136.45,454.45 L 136.66,453.20 L 136.73,452.94 L 136.66,452.15 L 136.60,451.71 L 136.30,450.65 L 135.95,449.54 L 134.71,446.84 L 134.03,445.47 L 132.37,442.73 L 129.73,439.25 L 129.16,438.63 L 128.53,437.66 L 128.43,437.45 L 128.38,437.17 L 128.58,436.98 L 128.83,436.98 L 128.93,436.76 L 128.49,436.23 L 128.35,436.13 L 127.94,435.65 L 127.72,435.37 L 127.19,434.60 L 125.49,431.69 L 125.22,431.17 L 124.46,429.97 L 124.05,429.36 L 123.11,428.11 L 120.19,424.86 L 119.53,424.26 L 118.49,423.42 L 118.01,423.06 L 117.25,422.68 L 116.90,422.55 L 116.30,422.58 L 115.44,423.05 L 115.05,423.38 L 114.42,423.64 L 114.00,423.38 L 114.00,423.22 L 113.78,423.21 L 113.64,423.25 L 113.19,423.57 L 112.70,423.96 L 111.39,425.36 L 110.73,426.10 L 109.55,427.68 L 109.29,428.05 L 108.91,428.70 L 108.61,429.46 L 108.55,429.83 L 108.16,430.80 L 107.34,432.15 L 107.05,432.52 L 106.64,433.75 L 106.47,435.70 L 106.52,436.31 L 106.36,437.11 L 105.83,437.40 L 105.72,437.33 L 105.42,437.40 L 105.26,437.47 L 104.91,437.79 L 103.84,439.44 L 103.52,440.15 L 102.74,441.25 L 101.72,442.00 L 101.45,442.00 L 101.43,442.51 L 102.09,443.75 L 102.46,444.23 L 102.78,444.76 L 102.55,444.75 L 102.32,444.56 L 101.46,444.75 L 100.99,444.91 L 99.94,445.60 L 99.43,445.97 L 98.58,446.85 L 98.00,448.08 L 98.00,448.14 L 97.88,448.47 L 97.80,448.67 L 97.53,449.23 L 97.23,449.85 L 96.27,451.66 L 95.74,452.64 L 94.45,454.96 L 93.77,456.17 L 92.29,458.75 L 91.54,460.05 L 90.02,462.64 L 89.27,463.90 L 87.87,466.22 L 87.19,467.32 L 86.06,469.11 L 84.82,470.92 L 84.56,471.26 L 83.93,472.22 L 83.60,472.74 L 82.90,473.97 L 80.93,477.89 L 80.38,479.14 L 79.27,481.25 L 79.01,481.71 L 78.57,482.40 L 78.08,482.97 L 77.95,483.05 L 77.43,483.78 L 77.14,484.22 L 76.38,485.52 L 75.97,486.22 L 75.06,487.89 L 74.60,488.75 L 73.65,490.59 L 73.17,491.51 L 72.28,493.32 L 71.85,494.20 L 71.12,495.79 L 70.78,496.54 L 70.30,497.70 L 70.00,498.74 L 70.00,499.02 L 69.54,499.84 L 68.42,501.06 L 68.21,501.24 L 67.61,501.93 L 67.30,502.32 L 66.58,503.33 L 64.37,506.94 L 63.69,508.19 L 61.90,511.33 L 61.46,512.11 L 60.59,513.59 L 59.44,515.50 L 58.76,516.60 L 57.82,518.83 L 57.63,519.35 L 57.42,520.23 L 57.39,521.22 L 57.50,521.69 L 57.48,522.40 L 57.15,522.85 L 56.64,522.78 L 55.83,522.86 L 55.46,522.94 L 54.84,523.35 L 54.55,523.61 L 54.05,524.45 L 53.34,526.25 L 52.93,527.50 L 52.43,529.73 L 52.24,530.78 L 52.16,532.50 L 52.18,533.28 L 52.52,534.34 L 53.51,535.00 L 53.92,535.00 L 54.49,535.37 L 54.75,536.25 L 54.70,536.48 L 55.09,536.84 L 55.36,537.01 L 56.45,537.28 L 57.09,537.40 L 58.97,537.59 L 62.75,537.79 L 63.88,537.83 L 65.95,537.96 L 66.94,538.03 L 68.57,538.20 L 69.32,538.29 L 70.34,538.49 L 70.98,538.79 L 70.98,539.18 L 70.66,539.98 L 70.47,540.37 L 69.85,541.10 L 69.52,541.44 L 68.71,541.99 L 67.40,542.49 L 66.88,542.59 L 65.76,542.81 L 64.50,543.07 L 64.36,543.10 L 64.43,543.21 L 64.51,543.27 L 64.97,543.43 L 65.24,543.51 L 66.03,543.70 L 67.50,544.00 L 67.86,544.06 L 68.38,544.18 L 68.60,544.23 L 68.83,544.33 L 68.91,544.38 L 68.85,544.45 L 68.78,544.49 L 68.42,544.55 L 68.20,544.58 L 67.53,544.63 L 67.15,544.65 L 66.17,544.68 L 65.64,544.69 L 64.33,544.71 L 62.00,544.72 L 61.14,544.72 L 59.67,544.71 L 58.98,544.70 L 57.83,544.68 L 57.30,544.66 L 56.47,544.63 L 56.10,544.61 L 55.58,544.55 L 55.36,544.52 L 55.15,544.45 L 55.08,544.42 L 55.17,544.33 L 55.25,544.28 L 55.62,544.18 L 55.84,544.12 L 56.50,544.00 L 57.11,543.89 L 57.98,543.69 L 58.36,543.59 L 58.77,543.42 L 58.92,543.34 L 58.89,543.20 L 58.82,543.14 L 58.36,543.03 L 58.08,542.98 L 57.21,542.91 L 56.72,542.89 L 55.46,542.86 L 54.78,542.85 L 53.14,542.86 L 50.27,542.93 L 49.36,542.97 L 47.74,542.98 L 46.96,542.98 L 45.60,542.93 L 44.29,542.86 L 42.41,542.53 L 41.58,542.32 L 40.58,541.69 L 40.00,540.39 L 40.00,540.09 L 40.26,539.07 L 40.43,538.50 L 40.99,537.03 L 41.30,536.25 L 42.08,534.48 L 42.50,533.56 L 43.44,531.60 L 44.42,529.62 L 46.58,525.69 L 47.11,524.75 L 48.16,523.04 L 49.62,520.87 L 50.55,519.59 L 52.01,517.26 L 52.31,516.74 L 52.73,515.91 L 53.00,515.10 L 53.00,514.98 L 53.28,514.32 L 53.46,513.94 L 54.04,512.86 L 54.36,512.28 L 55.14,510.92 L 55.54,510.23 L 56.44,508.75 L 57.34,507.26 L 59.12,504.54 L 59.53,503.93 L 60.22,502.95 L 61.00,502.00 L 61.07,501.93 L 61.33,501.55 L 61.48,501.33 L 61.89,500.66 L 62.11,500.29 L 62.65,499.34 L 62.94,498.83 L 63.62,497.60 L 63.98,496.95 L 64.79,495.45 L 65.21,494.67 L 66.14,492.91 L 66.63,492.00 L 67.69,489.98 L 69.41,486.69 L 70.39,484.81 L 72.51,481.12 L 73.01,480.27 L 73.91,478.84 L 74.98,477.30 L 75.53,476.60 L 76.41,475.14 L 76.59,474.80 L 76.84,474.21 L 77.00,473.54 L 77.00,473.38 L 77.23,472.77 L 77.39,472.43 L 77.87,471.55 L 79.97,468.43 L 80.79,467.35 L 82.08,465.38 L 82.35,464.94 L 82.73,464.25 L 82.97,463.58 L 82.98,463.33 L 83.40,462.46 L 84.39,461.08 L 84.58,460.86 L 85.15,460.03 L 85.45,459.56 L 86.19,458.35 L 88.56,454.00 L 89.32,452.49 L 90.98,449.57 L 91.38,448.90 L 92.08,447.80 L 92.92,446.65 L 93.35,446.13 L 93.97,445.15 L 94.29,444.15 L 94.26,444.06 L 94.52,443.36 L 94.71,442.94 L 95.33,441.71 L 95.68,441.04 L 96.58,439.43 L 98.15,436.76 L 98.73,435.78 L 99.73,433.94 L 100.19,433.05 L 100.90,431.48 L 101.20,430.75 L 101.56,429.59 L 101.62,428.46 L 101.46,428.03 L 101.46,427.51 L 101.90,427.44 L 102.12,427.57 L 102.77,427.24 L 103.12,426.99 L 103.97,426.03 L 104.40,425.49 L 105.34,424.10 L 105.80,423.37 L 106.72,421.73 L 107.17,420.90 L 107.97,419.22 L 108.35,418.38 L 108.92,416.84 L 109.18,416.10 L 109.43,414.89 L 109.34,413.65 L 109.16,413.33 L 109.10,413.04 L 109.45,413.19 L 109.56,413.29 L 109.95,413.23 L 110.16,413.17 L 110.72,412.82 L 112.70,410.94 L 113.21,410.33 L 114.09,409.38 L 114.52,408.95 L 115.28,408.41 L 115.66,408.20 L 116.39,408.14 Z" fill="rgba(0,66,212,1)"/>
<path d="M 801.19,555.67 L 804.16,558.50 L 800.63,561.57 L 799.10,562.89 L 795.73,565.22 L 794.00,566.33 L 790.31,568.20 L 788.43,569.08 L 784.49,570.48 L 782.50,571.12 L 778.40,572.04 L 776.34,572.44 L 772.18,572.85 L 770.09,573.00 L 765.93,572.89 L 763.87,572.77 L 763.79,572.76 L 764.76,572.64 L 765.53,572.52 L 768.85,571.92 L 770.50,571.52 L 775.51,570.49 L 777.02,570.24 L 777.64,570.16 L 778.77,570.04 L 779.13,570.04 L 780.98,569.69 L 782.63,569.15 L 783.60,568.77 L 785.62,567.94 L 786.70,567.44 L 788.89,566.41 L 789.98,565.85 L 792.14,564.72 L 793.15,564.15 L 795.10,563.01 L 795.92,562.47 L 797.45,561.43 L 798.00,560.99 L 798.92,560.14 L 799.09,559.83 L 799.70,557.86 L 799.50,556.96 L 799.14,556.73 L 798.24,556.44 L 797.57,556.55 L 796.10,556.93 L 795.18,557.41 L 792.85,558.81 L 792.23,559.26 L 792.00,559.46 L 791.61,559.83 L 791.52,559.96 L 790.42,560.83 L 789.13,561.47 L 788.26,561.80 L 786.40,562.47 L 785.32,562.81 L 783.07,563.47 L 781.85,563.78 L 776.81,564.96 L 774.37,565.36 L 771.97,565.72 L 770.88,565.83 L 768.79,566.00 L 767.92,566.00 L 762.40,565.63 L 759.16,565.06 L 757.91,564.66 L 756.72,564.25 L 756.24,564.02 L 755.37,563.56 L 755.08,563.31 L 754.58,562.81 L 754.49,562.55 L 754.43,562.03 L 754.57,561.77 L 754.72,561.48 L 755.61,561.85 L 756.75,562.29 L 758.97,562.88 L 760.11,563.14 L 762.73,563.48 L 763.43,563.55 L 765.01,563.66 L 767.68,563.81 L 769.05,563.87 L 771.51,563.91 L 772.71,563.91 L 774.88,563.80 L 777.00,563.65 L 780.72,562.84 L 782.55,562.32 L 786.16,560.64 L 787.09,560.16 L 789.04,559.00 L 792.19,556.95 L 798.22,552.84 M 910.88,566.39 L 910.66,566.74 L 910.70,567.39 L 911.38,567.45 L 912.03,567.28 L 913.15,567.20 L 914.14,567.27 L 914.70,567.36 L 917.12,567.86 L 918.28,568.28 L 922.14,569.57 L 923.43,569.96 L 924.00,570.12 L 925.09,570.42 L 925.50,570.52 L 927.05,570.92 L 927.61,571.14 L 927.68,571.25 L 927.68,571.46 L 927.48,571.59 L 926.95,571.86 L 926.50,572.04 L 926.11,572.28 L 926.24,572.38 L 926.73,572.56 L 927.29,572.63 L 928.61,572.74 L 929.28,572.77 L 928.24,572.75 L 925.75,572.50 L 924.53,572.32 L 922.02,571.69 L 921.36,571.51 L 919.92,571.05 L 919.17,570.81 L 917.48,570.22 L 915.42,569.50 L 911.58,567.84 L 909.71,566.98 L 908.88,566.51 L 909.14,566.50 L 909.61,566.32 L 910.71,566.11 M 955.96,485.97 L 956.99,486.45 L 958.90,487.42 L 959.82,487.90 L 961.41,488.83 L 962.15,489.28 L 963.28,490.11 L 964.34,491.18 L 964.47,491.39 L 964.57,491.96 L 964.59,492.27 L 964.48,492.97 L 964.34,493.69 L 963.60,495.23 L 963.18,495.98 L 962.12,497.18 L 961.85,497.43 L 961.30,497.78 L 960.51,498.00 L 960.33,498.00 L 959.58,497.74 L 959.14,497.56 L 957.98,497.01 L 957.36,496.71 L 955.93,495.95 L 953.67,494.64 L 952.13,493.72 L 948.32,491.92 L 947.38,491.51 L 945.60,490.82 L 943.30,490.09 L 941.98,489.77 L 939.01,488.97 L 938.29,488.78 L 937.00,488.42 L 935.43,487.95 L 934.14,487.55 L 931.52,487.15 L 930.21,487.02 L 927.56,487.15 L 926.24,487.28 L 923.55,487.95 L 919.49,489.55 L 918.54,490.01 L 916.84,490.94 L 916.03,491.41 L 914.60,492.36 L 913.24,493.31 L 911.23,495.35 L 910.33,496.40 L 909.17,498.75 L 908.25,502.79 L 908.12,504.08 L 908.17,506.35 L 908.25,507.44 L 908.76,509.37 L 909.07,510.29 L 910.10,511.90 L 910.69,512.68 L 912.31,514.04 L 913.21,514.69 L 915.50,515.85 L 916.73,516.40 L 919.75,517.40 L 921.35,517.89 L 925.17,518.78 L 931.87,520.06 L 933.56,520.35 L 937.00,520.97 L 938.69,521.29 L 941.86,521.92 L 943.37,522.23 L 945.90,522.79 L 946.47,522.93 L 947.44,523.16 L 948.58,523.47 L 950.04,523.91 L 952.70,524.95 L 954.00,525.50 L 956.33,526.76 L 957.46,527.42 L 959.47,528.89 L 960.43,529.66 L 962.11,531.35 L 962.91,532.23 L 964.25,534.14 L 964.89,535.12 L 965.90,537.25 L 966.37,538.34 L 967.05,540.69 L 967.71,544.45 L 967.83,545.66 L 967.90,547.57 L 967.90,548.48 L 967.64,550.13 L 967.46,550.97 L 966.77,552.83 L 965.15,556.36 L 964.50,557.67 L 962.99,560.06 L 962.20,561.21 L 960.40,563.27 L 959.47,564.26 L 957.37,566.00 L 956.28,566.83 L 953.87,568.25 L 952.63,568.92 L 949.90,570.04 L 948.50,570.56 L 945.44,571.37 L 943.87,571.73 L 940.48,572.24 L 939.17,572.35 L 938.98,572.19 L 938.50,572.08 L 935.50,571.40 L 939.00,570.70 L 942.06,570.08 L 943.03,569.88 L 943.45,569.79 L 944.22,569.63 L 944.50,569.58 L 947.11,568.82 L 949.00,568.09 L 949.97,567.64 L 953.90,565.64 L 955.68,564.49 L 957.41,563.32 L 958.17,562.74 L 959.61,561.59 L 960.18,561.05 L 961.20,559.99 L 961.51,559.52 L 962.00,558.63 L 962.00,558.27 L 962.33,557.48 L 962.82,557.39 L 963.15,557.60 L 963.80,557.81 L 963.85,557.57 L 963.66,557.26 L 963.53,556.63 L 963.56,556.03 L 963.64,555.68 L 964.09,554.14 L 964.50,553.35 L 965.64,550.14 L 965.98,547.83 L 965.95,546.62 L 965.77,544.19 L 965.49,542.96 L 964.82,540.49 L 964.32,539.28 L 963.21,536.89 L 962.50,535.75 L 960.99,533.51 L 960.09,532.49 L 958.21,530.52 L 957.15,529.66 L 954.95,528.04 L 953.74,527.40 L 951.34,526.35 L 950.35,526.02 L 949.75,525.84 L 948.47,525.49 L 947.68,525.30 L 946.02,524.91 L 945.00,524.69 L 942.85,524.23 L 941.55,523.96 L 938.81,523.41 L 937.18,523.09 L 933.74,522.42 L 931.73,522.03 L 925.47,520.70 L 921.84,519.79 L 920.28,519.30 L 917.32,518.31 L 916.06,517.78 L 913.71,516.68 L 912.73,516.07 L 910.92,514.82 L 910.19,514.12 L 908.86,512.68 L 908.35,511.87 L 907.44,510.20 L 907.12,509.27 L 906.57,507.33 L 906.41,506.25 L 906.40,502.45 L 906.84,499.82 L 907.20,498.68 L 907.58,497.59 L 907.80,497.14 L 908.24,496.29 L 908.47,495.99 L 908.94,495.48 L 909.18,495.38 L 909.65,495.28 L 909.88,495.42 L 910.36,495.46 L 910.79,495.31 L 911.03,495.17 L 912.10,494.40 L 912.62,493.80 L 913.32,492.95 L 913.58,492.55 L 913.62,492.44 L 913.61,492.28 L 913.51,492.30 L 913.24,492.38 L 913.00,492.52 L 912.28,492.90 L 912.02,492.99 L 912.01,492.93 L 912.06,492.76 L 912.19,492.56 L 912.54,492.10 L 912.82,491.76 L 914.26,490.65 L 915.40,490.23 L 915.89,490.27 L 916.84,490.19 L 917.67,490.02 L 918.14,489.88 L 920.14,489.21 L 921.09,488.76 L 924.28,487.66 L 926.71,487.18 L 928.05,487.06 L 930.79,486.90 L 932.25,486.94 L 935.20,487.08 L 936.72,487.27 L 939.78,487.72 L 941.32,488.05 L 944.39,488.77 L 945.89,489.24 L 948.87,490.24 L 950.28,490.84 L 953.06,492.10 L 954.35,492.83 L 956.49,493.94 L 957.81,494.54 L 958.38,494.75 L 959.44,495.11 L 959.83,495.18 L 960.48,495.25 L 960.61,495.16 L 961.49,493.98 L 961.52,493.04 L 961.27,492.51 L 960.60,491.42 L 960.00,490.85 L 958.65,489.67 L 957.73,489.08 L 956.05,487.90 L 955.30,487.26 L 955.10,486.99 L 954.82,486.50 L 954.84,486.30 L 955.00,485.92 L 955.23,485.75 L 955.31,485.69 M 731.52,555.37 L 733.07,556.73 L 734.17,557.56 L 735.32,558.40 L 736.00,558.87 L 737.40,559.85 L 738.21,560.39 L 743.71,563.78 L 747.37,565.70 L 749.26,566.53 L 753.08,568.08 L 755.10,568.75 L 759.25,570.01 L 761.50,570.56 L 764.50,571.29 L 761.06,572.33 L 759.81,572.13 L 757.80,571.74 L 753.93,570.55 L 751.47,569.69 L 746.97,567.65 L 744.79,566.57 L 740.85,564.10 L 738.96,562.82 L 735.59,559.93 L 733.98,558.43 L 731.18,555.13 L 730.94,554.82 M 847.46,481.01 L 848.88,481.02 L 851.50,481.05 L 852.77,481.06 L 855.11,481.11 L 856.25,481.14 L 858.33,481.22 L 860.35,481.31 L 863.73,481.58 L 865.32,481.74 L 867.99,482.19 L 869.25,482.44 L 871.40,483.09 L 872.43,483.45 L 874.26,484.36 L 875.16,484.85 L 876.87,486.05 L 879.50,488.21 L 881.06,489.58 L 883.46,492.30 L 884.54,493.67 L 886.07,496.57 L 886.74,498.07 L 887.52,501.43 L 887.98,507.26 L 887.98,508.71 L 887.78,511.39 L 887.63,512.69 L 887.12,515.10 L 886.82,516.27 L 885.98,518.42 L 885.51,519.47 L 884.33,521.41 L 883.69,522.36 L 882.13,524.11 L 881.31,524.97 L 879.36,526.56 L 878.34,527.34 L 876.00,528.80 L 872.00,530.88 L 870.70,531.49 L 868.52,532.31 L 867.95,532.49 L 866.73,532.77 L 866.10,532.90 L 864.61,533.11 L 863.82,533.20 L 861.91,533.34 L 860.89,533.40 L 858.83,533.47 L 859.09,533.41 L 859.16,533.34 L 859.22,533.21 L 859.10,533.14 L 858.78,532.64 L 859.01,532.31 L 859.35,532.14 L 860.21,531.80 L 860.89,531.61 L 862.42,531.22 L 863.45,531.01 L 869.06,529.54 L 872.39,528.33 L 873.85,527.62 L 876.64,526.11 L 877.84,525.24 L 880.09,523.42 L 881.02,522.40 L 882.74,520.27 L 883.40,519.08 L 884.59,516.64 L 884.99,515.30 L 885.66,512.53 L 885.80,511.03 L 885.95,507.94 L 885.83,506.27 L 885.23,501.97 L 884.55,499.31 L 884.08,498.08 L 883.04,495.69 L 882.39,494.61 L 881.01,492.51 L 880.18,491.56 L 878.44,489.75 L 877.44,488.95 L 875.36,487.44 L 874.18,486.79 L 871.76,485.57 L 870.42,485.08 L 867.66,484.16 L 866.15,483.82 L 864.42,483.42 L 863.49,483.20 L 863.14,483.11 L 862.50,482.93 L 862.28,482.85 L 861.91,482.70 L 861.82,482.64 L 861.71,482.40 L 862.00,482.28 L 862.80,482.04 L 863.50,481.89 L 863.70,481.76 L 863.43,481.67 L 863.11,481.63 L 862.34,481.54 L 861.79,481.51 L 860.58,481.43 L 859.82,481.39 L 858.20,481.33 L 857.26,481.30 L 855.29,481.24 L 854.18,481.22 L 851.90,481.17 L 850.66,481.16 L 848.11,481.13 L 846.75,481.12 L 839.08,481.13 L 836.78,481.16 L 835.73,481.18 L 833.70,481.23 L 832.80,481.26 L 831.10,481.32 L 830.38,481.36 L 829.06,481.43 L 828.56,481.48 L 827.67,481.56 L 827.40,481.61 L 827.00,481.71 L 827.00,481.76 L 826.34,482.59 L 825.37,483.24 L 824.75,483.51 L 822.50,484.50 L 822.24,526.00 L 822.20,534.36 L 822.18,539.70 L 822.18,542.21 L 822.17,547.12 L 822.18,549.37 L 822.19,553.74 L 822.20,555.68 L 822.22,559.38 L 822.23,560.94 L 822.27,563.86 L 822.29,564.99 L 822.34,567.01 L 822.37,567.65 L 822.39,568.22 L 822.41,568.41 L 822.44,568.71 L 822.46,568.75 L 822.89,569.46 L 823.23,569.66 L 823.99,569.96 L 824.41,569.96 L 825.27,569.86 L 825.67,569.66 L 826.41,569.15 L 826.66,568.75 L 826.81,568.24 L 826.90,567.67 L 826.94,567.28 L 827.09,565.44 L 827.14,564.20 L 827.22,561.51 L 827.23,559.95 L 827.23,556.72 L 827.20,555.00 L 827.18,549.25 L 827.27,545.92 L 827.36,544.51 L 827.58,541.86 L 827.74,540.78 L 828.10,538.80 L 828.32,538.06 L 829.50,534.23 L 829.36,552.71 L 829.22,571.50 L 826.83,571.80 L 826.08,571.89 L 824.50,571.40 L 823.71,571.05 L 822.27,569.79 L 822.01,569.51 L 821.57,568.94 L 821.36,568.64 L 821.03,567.80 L 820.88,567.31 L 820.65,565.87 L 820.54,565.05 L 820.39,562.71 L 820.35,562.05 L 820.29,560.51 L 820.26,559.70 L 820.22,557.82 L 820.20,556.84 L 820.17,554.59 L 820.15,553.41 L 820.13,550.75 L 820.12,549.36 L 820.10,546.24 L 820.09,544.62 L 820.08,541.01 L 820.08,539.14 L 820.07,534.99 L 820.06,528.14 L 820.06,525.43 L 820.06,520.15 L 820.07,517.55 L 820.09,512.55 L 820.10,510.10 L 820.14,505.51 L 820.16,503.27 L 820.21,499.20 L 820.23,497.24 L 820.29,493.81 L 820.33,492.19 L 820.40,489.51 L 820.43,488.28 L 820.51,486.48 L 820.63,484.89 L 821.26,481.00 L 844.53,481.00 M 902.11,551.25 L 902.79,551.50 L 903.15,551.66 L 903.96,552.16 L 904.11,552.26 L 904.23,552.42 L 904.65,552.99 L 905.00,553.44 L 905.76,554.46 L 906.00,554.87 L 905.98,554.96 L 905.86,555.06 L 905.65,555.02 L 905.15,554.87 L 904.75,554.72 L 903.07,554.42 L 901.91,554.48 L 901.50,554.64 L 900.65,555.12 L 900.27,555.52 L 900.17,555.76 L 900.00,556.80 L 900.26,557.44 L 901.02,558.78 L 901.73,559.54 L 903.38,561.08 L 904.51,561.90 L 906.22,563.23 L 907.18,564.08 L 907.54,564.46 L 908.16,565.18 L 908.33,565.45 L 908.54,565.93 L 908.46,566.06 L 908.52,566.31 L 906.30,565.06 L 904.66,564.08 L 901.76,561.96 L 898.08,558.61 L 895.65,556.00 L 898.00,553.50 L 898.77,552.68 L 900.01,551.69 L 900.61,551.30 L 901.80,551.22 M 907.09,554.58 L 908.44,555.71 L 911.34,557.72 L 912.82,558.69 L 915.91,560.36 L 917.47,561.15 L 920.67,562.43 L 925.50,563.86 L 926.18,564.01 L 927.78,564.26 L 928.61,564.37 L 930.39,564.54 L 932.19,564.68 L 935.80,564.72 L 936.03,564.72 L 936.00,564.77 L 936.00,564.98 L 935.40,565.68 L 934.44,565.97 L 933.75,566.04 L 932.23,566.12 L 931.31,566.09 L 929.38,565.98 L 928.32,565.86 L 923.89,565.21 L 921.71,564.67 L 919.56,564.10 L 918.58,563.77 L 916.69,563.08 L 915.90,562.70 L 911.57,560.39 L 909.25,558.93 L 908.41,558.27 L 906.97,557.00 L 906.62,556.47 L 906.34,555.97 L 906.30,555.75 L 906.29,555.33 L 906.40,555.17 L 906.30,554.10 L 906.04,553.73 M 942.51,563.23 L 942.00,563.63 L 942.00,563.91 L 941.78,564.29 L 941.43,564.46 L 941.17,564.50 L 939.90,564.53 L 939.72,564.49 L 940.19,564.44 L 940.75,564.35 L 941.51,564.12 L 942.00,563.69 L 942.00,563.46 L 942.51,563.17 L 943.75,563.05 M 746.63,494.34 L 746.60,494.84 L 746.40,495.15 L 746.19,495.81 L 746.40,495.81 L 744.70,497.15 L 743.57,498.09 L 741.45,500.22 L 738.53,503.76 L 737.26,505.49 L 735.30,508.91 L 734.41,510.63 L 733.17,514.24 L 732.63,516.10 L 732.01,520.19 L 731.69,527.20 L 731.70,528.14 L 731.74,529.77 L 731.76,530.56 L 731.84,531.94 L 731.92,533.28 L 732.28,535.50 L 732.50,536.57 L 733.21,538.68 L 734.77,542.32 L 735.80,544.51 L 738.06,548.28 L 739.23,550.07 L 741.89,553.12 L 743.27,554.57 L 746.43,557.03 L 751.87,560.20 L 753.27,560.88 L 754.39,561.34 L 754.27,561.45 L 754.02,561.67 L 753.09,562.11 L 752.30,562.19 L 751.85,562.14 L 749.97,561.70 L 749.08,561.25 L 747.40,560.21 L 746.91,559.62 L 746.50,559.02 L 746.44,558.72 L 746.41,558.14 L 746.58,557.88 L 746.51,557.44 L 746.03,557.44 L 745.62,557.59 L 744.43,557.49 L 743.42,557.01 L 742.84,556.59 L 741.63,555.64 L 740.98,555.03 L 739.65,553.73 L 738.98,552.98 L 736.31,549.76 L 735.18,548.02 L 734.09,546.28 L 733.64,545.43 L 732.82,543.75 L 732.54,542.97 L 731.68,540.56 L 731.22,539.22 L 731.04,538.64 L 730.43,536.48 L 730.27,535.40 L 730.12,534.29 L 730.07,533.67 L 729.99,532.36 L 729.96,531.58 L 729.92,529.93 L 729.91,528.93 L 729.89,526.79 L 729.87,525.50 L 729.94,520.99 L 730.10,518.45 L 730.25,517.33 L 730.60,515.19 L 730.86,514.20 L 731.42,512.25 L 731.79,511.28 L 733.89,506.90 L 735.68,503.91 L 736.61,502.59 L 737.54,501.32 L 737.99,500.76 L 738.87,499.72 L 739.28,499.31 L 740.05,498.57 L 740.37,498.35 L 740.98,498.00 L 741.21,498.00 L 741.56,498.50 L 741.28,499.25 L 740.89,499.75 L 740.31,500.54 L 740.17,500.79 L 740.24,500.78 L 740.46,500.66 L 740.72,500.47 L 741.32,499.98 L 741.77,499.59 L 743.21,498.09 L 743.48,497.68 L 743.53,497.53 L 743.58,497.25 L 743.51,497.18 L 743.49,496.41 L 743.85,495.70 L 744.15,495.35 L 744.81,494.65 L 745.17,494.41 L 745.88,494.00 L 746.18,494.00 M 728.48,549.85 L 728.63,550.05 L 729.17,551.11 L 729.33,551.92 L 730.00,553.58 L 730.42,554.15 L 729.86,553.43 L 727.64,549.72 L 727.72,549.67 L 728.18,549.64 M 739.41,489.86 L 739.39,490.65 L 739.05,491.42 L 738.73,491.91 L 738.00,492.94 L 737.51,493.52 L 736.45,494.72 L 735.82,495.36 L 732.13,499.65 L 729.97,502.77 L 729.06,504.43 L 727.36,507.80 L 726.70,509.54 L 725.51,513.04 L 725.13,514.80 L 724.19,521.59 L 723.96,526.43 L 724.04,528.85 L 724.33,533.64 L 724.66,535.85 L 725.03,538.02 L 725.26,539.03 L 725.75,540.99 L 726.04,541.87 L 726.77,544.37 L 727.15,545.92 L 727.27,546.58 L 727.47,547.82 L 727.49,548.27 L 727.48,549.04 L 727.38,549.19 L 727.37,549.22 L 726.61,547.81 L 724.97,543.70 L 724.23,541.59 L 723.18,537.08 L 722.27,529.88 L 722.09,526.95 L 722.40,521.33 L 722.66,518.56 L 723.82,513.32 L 724.51,510.75 L 726.48,505.93 L 727.56,503.58 L 730.30,499.27 L 731.77,497.18 L 735.23,493.42 L 737.05,491.61 L 739.40,489.84 M 906.72,520.14 L 907.22,520.30 L 907.59,520.44 L 912.74,522.40 L 916.23,523.56 L 918.09,524.09 L 921.89,525.13 L 924.00,525.63 L 928.38,526.61 L 930.87,527.11 L 933.57,527.67 L 935.14,528.01 L 935.82,528.17 L 937.10,528.48 L 937.64,528.62 L 938.63,528.90 L 939.02,529.02 L 939.73,529.26 L 939.98,529.37 L 940.41,529.58 L 940.52,529.68 L 940.67,529.86 L 940.65,529.94 L 940.53,530.09 L 940.37,530.15 L 939.97,530.40 L 940.06,530.50 L 940.26,530.52 L 940.78,530.53 L 941.18,530.51 L 942.07,530.42 L 942.64,530.35 L 944.79,530.15 L 945.92,530.19 L 946.38,530.30 L 947.26,530.60 L 947.66,530.86 L 948.46,531.46 L 948.89,531.89 L 950.54,533.38 L 951.00,533.73 L 951.17,533.83 L 951.47,534.00 L 951.55,534.00 L 952.06,534.24 L 952.53,534.61 L 952.81,534.88 L 954.00,536.13 L 954.24,536.43 L 953.79,536.07 L 953.13,535.57 L 951.51,534.62 L 950.65,534.16 L 948.69,533.28 L 947.66,532.85 L 945.38,532.06 L 944.20,531.68 L 941.64,531.00 L 937.50,530.13 L 935.40,529.75 L 931.74,529.07 L 929.99,528.74 L 926.96,528.15 L 925.51,527.86 L 923.00,527.33 L 921.81,527.07 L 919.74,526.58 L 918.75,526.34 L 917.02,525.87 L 916.19,525.63 L 914.71,525.15 L 910.75,523.57 L 909.28,522.90 L 906.64,521.23 L 906.49,520.98 L 906.20,520.39 L 906.18,520.16 L 906.26,520.12 L 906.50,520.08 M 840.46,533.78 L 829.59,533.91 L 829.69,533.62 M 829.79,524.45 L 830.32,524.57 L 830.65,524.63 L 831.64,524.73 L 832.19,524.77 L 833.58,524.84 L 834.31,524.88 L 836.02,524.92 L 837.79,524.97 L 842.01,524.99 L 842.63,524.99 L 830.10,525.10 L 829.75,524.42 M 866.67,523.99 L 866.14,524.13 L 865.72,524.20 L 864.77,524.32 L 864.16,524.38 L 862.84,524.49 L 862.04,524.54 L 860.35,524.64 L 859.38,524.68 L 857.36,524.76 L 856.23,524.79 L 853.89,524.85 L 852.61,524.88 L 849.97,524.92 L 848.69,524.93 L 848.78,524.93 L 851.08,524.89 L 855.50,524.77 L 857.64,524.70 L 861.33,524.51 L 862.18,524.46 L 863.66,524.35 L 864.35,524.30 L 865.44,524.17 L 865.94,524.11 L 866.59,523.98 L 866.86,523.91 L 867.00,523.77 L 866.89,523.92 M 829.00,509.06 L 829.06,513.36 L 829.09,515.42 L 829.21,518.90 L 829.24,519.70 L 829.32,521.08 L 829.35,521.73 L 829.44,522.77 L 829.48,523.24 L 829.57,523.89 L 829.70,524.31 L 828.55,522.10 L 827.92,520.14 L 827.58,518.31 L 827.45,517.19 L 827.21,514.84 L 827.14,513.53 L 827.01,510.84 L 826.99,509.43 L 827.02,503.71 L 827.21,501.07 L 827.43,498.50 L 827.59,497.36 L 827.93,495.20 L 828.14,494.34 L 829.00,490.94 M 900.42,513.34 L 900.39,514.04 L 900.54,514.65 L 900.69,514.99 L 901.45,516.42 L 902.03,517.09 L 902.79,517.90 L 903.18,518.27 L 903.30,518.35 L 903.50,518.45 L 903.52,518.39 L 903.49,518.21 L 903.38,518.00 L 903.05,517.27 L 902.99,517.02 L 903.05,517.01 L 903.25,517.07 L 903.45,517.21 L 903.94,517.57 L 904.30,517.86 L 905.34,519.07 L 905.61,519.82 L 905.47,520.04 L 905.47,520.42 L 905.22,520.25 L 903.05,518.31 L 902.56,517.82 L 901.75,516.88 L 901.38,516.41 L 900.84,515.53 L 900.60,515.11 L 900.37,514.34 L 900.42,513.36 L 900.54,513.04 M 900.47,512.39 L 900.57,512.97 L 900.56,512.99 L 900.47,512.40 L 899.86,512.00 M 899.02,507.00 L 899.41,507.50 L 898.89,507.00 M 898.30,506.19 L 898.50,506.64 L 898.62,506.78 L 898.88,507.00 L 898.52,507.00 L 898.11,506.47 L 897.96,506.12 L 897.93,505.01 L 897.95,504.40 L 898.02,504.08 L 898.02,504.25 M 938.23,480.69 L 940.08,480.91 L 943.57,481.55 L 944.44,481.73 L 946.39,482.28 L 947.39,482.58 L 949.51,483.32 L 951.66,484.09 L 954.63,485.39 L 954.32,485.48 L 953.20,485.60 L 952.26,485.55 L 951.74,485.47 L 949.55,485.00 L 948.57,484.59 L 943.96,483.22 L 940.34,482.61 L 938.31,482.47 L 934.09,482.29 L 931.80,482.36 L 927.12,482.61 L 924.64,482.90 L 919.87,483.66 L 916.96,484.34 L 915.65,484.77 L 913.10,485.69 L 911.96,486.25 L 909.77,487.42 L 908.80,488.10 L 906.94,489.52 L 906.14,490.33 L 904.61,492.01 L 903.97,492.96 L 902.75,494.91 L 902.26,495.99 L 901.36,498.23 L 901.01,499.45 L 900.38,501.45 L 900.00,502.39 L 899.82,502.67 L 899.47,503.10 L 899.32,503.12 L 899.01,503.04 L 898.87,502.82 L 898.50,502.40 L 898.37,502.39 L 898.44,502.06 L 899.02,500.26 L 899.66,498.41 L 901.55,494.53 L 902.06,493.60 L 903.16,491.88 L 904.89,489.66 L 905.57,488.91 L 907.29,487.48 L 908.20,486.79 L 910.25,485.49 L 911.31,484.86 L 913.54,483.75 L 914.67,483.22 L 916.94,482.35 L 918.07,481.94 L 920.23,481.36 L 921.28,481.11 L 923.17,480.87 L 924.06,480.80 L 925.54,480.96 L 927.11,481.71 L 927.32,481.92 L 927.87,482.17 L 928.17,482.26 L 928.97,482.29 L 929.40,482.27 L 930.52,482.07 L 932.64,481.51 L 933.56,481.23 L 935.13,480.89 L 935.90,480.75 L 937.44,480.69 M 772.02,480.35 L 774.93,480.48 L 780.38,481.22 L 781.67,481.45 L 784.00,482.01 L 787.00,483.02 L 788.52,483.67 L 791.57,485.21 L 793.07,486.00 L 795.89,487.72 L 797.25,488.58 L 799.58,490.29 L 802.22,492.68 L 802.63,493.13 L 803.12,493.80 L 803.31,494.12 L 803.33,494.70 L 803.28,495.00 L 802.79,495.74 L 801.43,497.29 L 800.74,498.04 L 799.50,499.21 L 799.23,499.45 L 798.80,499.79 L 798.40,500.00 L 798.33,500.00 L 797.73,499.68 L 797.37,499.47 L 796.29,498.81 L 795.70,498.44 L 794.28,497.52 L 791.92,495.95 L 790.92,495.27 L 789.04,494.08 L 788.12,493.51 L 786.36,492.53 L 784.62,491.61 L 781.29,490.33 L 779.61,489.78 L 776.05,489.13 L 770.00,488.70 L 768.35,488.68 L 765.17,488.88 L 763.59,489.02 L 760.56,489.56 L 759.06,489.87 L 756.19,490.73 L 754.78,491.20 L 753.73,491.67 L 753.73,491.63 L 753.68,491.41 L 753.52,490.89 L 753.37,490.50 L 753.02,489.45 L 752.96,489.08 L 753.03,489.04 L 753.26,489.07 L 753.50,489.24 L 754.07,489.65 L 754.50,490.00 L 755.64,490.74 L 755.82,490.77 L 755.84,490.72 L 755.83,490.57 L 755.74,490.42 L 755.84,489.85 L 756.30,489.42 L 756.71,489.18 L 757.63,488.69 L 758.25,488.43 L 759.58,487.92 L 760.39,487.67 L 764.71,486.70 L 767.68,486.45 L 769.30,486.54 L 772.66,486.84 L 774.59,487.21 L 776.56,487.61 L 777.62,487.86 L 779.81,488.40 L 781.00,488.73 L 784.80,489.91 L 786.66,490.66 L 787.27,491.02 L 788.28,491.73 L 788.47,492.07 L 788.65,492.76 L 788.44,493.10 L 788.45,493.57 L 788.88,493.60 L 789.26,493.46 L 789.97,493.41 L 790.57,493.55 L 790.91,493.68 L 792.32,494.41 L 792.96,494.97 L 794.86,496.37 L 795.95,496.87 L 796.42,496.90 L 797.35,496.82 L 797.79,496.57 L 798.65,495.92 L 799.10,495.38 L 799.69,494.45 L 799.80,493.91 L 799.68,493.62 L 799.34,493.03 L 798.97,492.66 L 798.11,491.87 L 797.47,491.35 L 792.25,487.80 L 788.43,485.84 L 786.38,485.08 L 782.19,483.69 L 779.98,483.23 L 775.51,482.45 L 773.20,482.30 L 766.04,482.17 L 761.73,482.48 L 759.70,482.86 L 755.68,483.76 L 753.65,484.46 L 749.54,486.03 L 747.34,487.08 L 744.78,488.20 L 743.19,488.80 L 742.51,489.01 L 741.24,489.37 L 740.79,489.44 L 740.00,489.50 L 739.91,489.45 L 741.20,488.47 L 743.36,486.98 L 748.15,484.52 L 756.00,481.66 L 757.05,481.37 L 759.46,480.93 L 760.70,480.74 L 763.40,480.48 L 766.16,480.26 M 752.46,490.86 L 752.92,491.32 L 753.46,491.79 L 752.08,492.39 L 750.76,493.03 L 748.25,494.53 L 747.21,495.20 L 747.54,494.83 L 747.66,494.27 L 747.52,494.04 L 747.51,493.60 L 747.69,493.22 L 747.86,493.01 L 748.73,492.10 L 749.37,491.67 L 750.57,490.99 L 751.21,490.73 L 751.49,490.71 M 911.63,493.29 L 911.67,493.72 L 911.50,494.00 L 911.13,494.52 L 910.93,494.71 L 910.56,495.00 L 910.44,495.00 L 910.13,494.71 L 910.00,494.27 L 910.00,494.00 L 910.31,493.29 L 910.77,493.00 L 911.06,493.00 M 956.96,540.59 L 956.97,540.75 L 956.96,540.59 M 899.59,508.78 L 899.41,509.50 L 899.59,508.78 M 829.29,489.80 L 829.29,489.80 L 849.39,490.17 L 869.50,490.54 L 849.25,490.17 Z" fill="rgba(0,83,188,1)"/>
<path d="M 762.00,572.04 L 764.50,571.29 L 761.50,570.56 L 759.25,570.01 L 755.10,568.75 L 753.08,568.08 L 749.26,566.53 L 747.37,565.70 L 743.71,563.78 L 738.21,560.39 L 737.40,559.85 L 736.00,558.87 L 735.32,558.40 L 734.17,557.56 L 733.07,556.73 L 731.52,555.37 L 730.85,554.73 L 730.00,553.58 L 729.33,551.92 L 729.17,551.11 L 728.63,550.05 L 728.48,549.85 L 728.18,549.64 L 727.72,549.67 L 727.43,549.85 L 727.19,549.80 L 727.38,549.19 L 727.48,549.04 L 727.49,548.27 L 727.47,547.82 L 727.27,546.58 L 727.15,545.92 L 726.77,544.37 L 726.04,541.87 L 725.75,540.99 L 725.26,539.03 L 725.03,538.02 L 724.66,535.85 L 724.33,533.64 L 724.04,528.85 L 723.96,526.43 L 724.19,521.59 L 725.13,514.80 L 725.51,513.04 L 726.70,509.54 L 727.36,507.80 L 729.06,504.43 L 729.97,502.77 L 732.13,499.65 L 735.82,495.36 L 736.45,494.72 L 737.51,493.52 L 738.00,492.94 L 738.73,491.91 L 739.05,491.42 L 739.39,490.65 L 739.41,489.86 L 739.19,489.50 L 739.19,489.19 L 739.84,489.40 L 740.00,489.50 L 740.79,489.44 L 741.24,489.37 L 742.51,489.01 L 743.19,488.80 L 744.78,488.20 L 747.34,487.08 L 749.54,486.03 L 753.65,484.46 L 755.68,483.76 L 759.70,482.86 L 761.73,482.48 L 766.04,482.17 L 773.20,482.30 L 775.51,482.45 L 779.98,483.23 L 782.19,483.69 L 786.38,485.08 L 788.43,485.84 L 792.25,487.80 L 797.47,491.35 L 798.11,491.87 L 798.97,492.66 L 799.34,493.03 L 799.68,493.62 L 799.80,493.91 L 799.69,494.45 L 799.10,495.38 L 798.65,495.92 L 797.79,496.57 L 797.35,496.82 L 796.42,496.90 L 795.95,496.87 L 794.86,496.37 L 792.96,494.97 L 792.32,494.41 L 790.91,493.68 L 790.57,493.55 L 789.97,493.41 L 789.26,493.46 L 788.88,493.60 L 788.45,493.57 L 788.44,493.10 L 788.65,492.76 L 788.47,492.07 L 788.28,491.73 L 787.27,491.02 L 786.66,490.66 L 784.80,489.91 L 781.00,488.73 L 779.81,488.40 L 777.62,487.86 L 776.56,487.61 L 774.59,487.21 L 772.66,486.84 L 769.30,486.54 L 767.68,486.45 L 764.71,486.70 L 760.39,487.67 L 759.58,487.92 L 758.25,488.43 L 757.63,488.69 L 756.71,489.18 L 756.30,489.42 L 755.84,489.85 L 755.74,490.42 L 755.83,490.57 L 755.84,490.72 L 755.82,490.77 L 755.64,490.74 L 754.50,490.00 L 754.07,489.65 L 753.50,489.24 L 753.26,489.07 L 753.03,489.04 L 752.96,489.08 L 753.02,489.45 L 753.37,490.50 L 753.52,490.89 L 753.68,491.41 L 753.73,491.63 L 753.71,491.83 L 753.68,491.89 L 753.47,491.79 L 752.92,491.32 L 752.46,490.86 L 751.49,490.71 L 751.21,490.73 L 750.57,490.99 L 749.37,491.67 L 748.73,492.10 L 747.86,493.01 L 747.69,493.22 L 747.51,493.60 L 747.52,494.04 L 747.66,494.27 L 747.54,494.83 L 746.86,495.59 L 746.50,495.81 L 746.19,495.81 L 746.40,495.15 L 746.60,494.84 L 746.63,494.34 L 746.18,494.00 L 745.88,494.00 L 745.17,494.41 L 744.81,494.65 L 744.15,495.35 L 743.85,495.70 L 743.49,496.41 L 743.51,497.18 L 743.58,497.25 L 743.53,497.53 L 743.48,497.68 L 743.21,498.09 L 741.77,499.59 L 741.32,499.98 L 740.72,500.47 L 740.46,500.66 L 740.24,500.78 L 740.17,500.79 L 740.31,500.54 L 740.89,499.75 L 741.28,499.25 L 741.56,498.50 L 741.21,498.00 L 740.98,498.00 L 740.37,498.35 L 740.05,498.57 L 739.28,499.31 L 738.87,499.72 L 737.99,500.76 L 737.54,501.32 L 736.61,502.59 L 735.68,503.91 L 733.89,506.90 L 731.79,511.28 L 731.42,512.25 L 730.86,514.20 L 730.60,515.19 L 730.25,517.33 L 730.10,518.45 L 729.94,520.99 L 729.87,525.50 L 729.89,526.79 L 729.91,528.93 L 729.92,529.93 L 729.96,531.58 L 729.99,532.36 L 730.07,533.67 L 730.12,534.29 L 730.27,535.40 L 730.43,536.48 L 731.04,538.64 L 731.22,539.22 L 731.68,540.56 L 732.54,542.97 L 732.82,543.75 L 733.64,545.43 L 734.09,546.28 L 735.18,548.02 L 736.31,549.76 L 738.98,552.98 L 739.65,553.73 L 740.98,555.03 L 741.63,555.64 L 742.84,556.59 L 743.42,557.01 L 744.43,557.49 L 745.62,557.59 L 746.03,557.44 L 746.51,557.44 L 746.58,557.88 L 746.41,558.14 L 746.44,558.72 L 746.50,559.02 L 746.91,559.62 L 747.40,560.21 L 749.08,561.25 L 749.97,561.70 L 751.85,562.14 L 752.30,562.19 L 753.09,562.11 L 754.02,561.67 L 754.27,561.45 L 754.60,561.17 L 754.74,561.06 L 754.87,561.01 L 754.92,561.02 L 754.86,561.21 L 754.57,561.77 L 754.43,562.03 L 754.49,562.55 L 754.58,562.81 L 755.08,563.31 L 755.37,563.56 L 756.24,564.02 L 756.72,564.25 L 757.91,564.66 L 759.16,565.06 L 762.40,565.63 L 767.92,566.00 L 768.79,566.00 L 770.88,565.83 L 771.97,565.72 L 774.37,565.36 L 776.81,564.96 L 781.85,563.78 L 783.07,563.47 L 785.32,562.81 L 786.40,562.47 L 788.26,561.80 L 789.13,561.47 L 790.42,560.83 L 791.52,559.96 L 791.61,559.83 L 792.00,559.46 L 792.23,559.26 L 792.85,558.81 L 795.18,557.41 L 796.10,556.93 L 797.57,556.55 L 798.24,556.44 L 799.14,556.73 L 799.50,556.96 L 799.70,557.86 L 799.09,559.83 L 798.92,560.14 L 798.00,560.99 L 797.45,561.43 L 795.92,562.47 L 795.10,563.01 L 793.15,564.15 L 792.14,564.72 L 789.98,565.85 L 788.89,566.41 L 786.70,567.44 L 785.62,567.94 L 783.60,568.77 L 782.63,569.15 L 780.98,569.69 L 779.13,570.04 L 778.77,570.04 L 777.64,570.16 L 777.02,570.24 L 775.51,570.49 L 770.50,571.52 L 768.85,571.92 L 765.53,572.52 L 764.76,572.64 L 763.44,572.80 L 762.00,572.88 L 759.50,572.80 L 762.00,572.04 M 926.50,572.04 L 926.95,571.86 L 927.48,571.59 L 927.68,571.46 L 927.68,571.25 L 927.61,571.14 L 927.05,570.92 L 925.50,570.52 L 925.09,570.42 L 924.00,570.12 L 923.43,569.96 L 922.14,569.57 L 918.28,568.28 L 917.12,567.86 L 914.70,567.36 L 914.14,567.27 L 913.15,567.20 L 912.03,567.28 L 911.38,567.45 L 910.70,567.39 L 910.66,566.74 L 910.88,566.39 L 910.71,566.11 L 909.61,566.32 L 909.14,566.50 L 908.57,566.52 L 908.46,566.06 L 908.54,565.93 L 908.33,565.45 L 908.16,565.18 L 907.54,564.46 L 907.18,564.08 L 906.22,563.23 L 904.51,561.90 L 903.38,561.08 L 901.73,559.54 L 901.02,558.78 L 900.26,557.44 L 900.00,556.80 L 900.17,555.76 L 900.27,555.52 L 900.65,555.12 L 901.50,554.64 L 901.91,554.48 L 903.07,554.42 L 904.75,554.72 L 905.15,554.87 L 905.65,555.02 L 905.86,555.06 L 905.98,554.96 L 906.00,554.87 L 905.76,554.46 L 905.00,553.44 L 904.65,552.99 L 904.23,552.42 L 904.06,552.18 L 904.00,552.01 L 904.01,551.97 L 904.33,552.17 L 905.24,552.86 L 905.72,553.24 L 906.30,554.10 L 906.40,555.17 L 906.29,555.33 L 906.30,555.75 L 906.34,555.97 L 906.62,556.47 L 906.97,557.00 L 908.41,558.27 L 909.25,558.93 L 911.57,560.39 L 915.90,562.70 L 916.69,563.08 L 918.58,563.77 L 919.56,564.10 L 921.71,564.67 L 923.89,565.21 L 928.32,565.86 L 929.38,565.98 L 931.31,566.09 L 932.23,566.12 L 933.75,566.04 L 934.44,565.97 L 935.40,565.68 L 936.00,564.98 L 936.00,564.77 L 936.18,564.47 L 936.30,564.34 L 936.74,564.20 L 936.98,564.15 L 937.67,564.16 L 939.00,564.35 L 939.90,564.53 L 941.17,564.50 L 941.43,564.46 L 941.78,564.29 L 942.00,563.91 L 942.00,563.63 L 942.51,563.23 L 943.75,563.05 L 944.23,563.10 L 945.34,563.14 L 946.70,563.12 L 946.93,563.09 L 947.69,562.66 L 948.11,562.38 L 949.15,561.54 L 950.24,560.63 L 952.72,558.15 L 953.33,557.52 L 954.46,556.27 L 955.00,555.65 L 955.91,554.53 L 956.32,553.99 L 956.87,553.12 L 957.16,552.25 L 957.09,551.91 L 957.29,551.37 L 957.96,551.00 L 958.10,551.00 L 958.36,550.64 L 958.49,550.42 L 958.69,549.68 L 959.00,546.50 L 959.00,545.26 L 958.71,543.32 L 958.62,542.91 L 958.39,542.36 L 958.00,542.00 L 957.72,542.00 L 957.28,541.63 L 956.97,540.75 L 956.96,540.59 L 956.77,540.09 L 956.64,539.82 L 956.25,539.16 L 955.82,538.46 L 954.62,536.90 L 954.00,536.13 L 952.81,534.88 L 952.53,534.61 L 952.06,534.24 L 951.55,534.00 L 951.47,534.00 L 951.17,533.83 L 951.00,533.73 L 950.54,533.38 L 948.89,531.89 L 948.46,531.46 L 947.66,530.86 L 947.26,530.60 L 946.38,530.30 L 945.92,530.19 L 944.79,530.15 L 942.64,530.35 L 942.07,530.42 L 941.18,530.51 L 940.78,530.53 L 940.26,530.52 L 940.06,530.50 L 939.97,530.40 L 940.37,530.15 L 940.53,530.09 L 940.65,529.94 L 940.67,529.86 L 940.52,529.68 L 940.41,529.58 L 939.98,529.37 L 939.73,529.26 L 939.02,529.02 L 938.63,528.90 L 937.64,528.62 L 937.10,528.48 L 935.82,528.17 L 935.14,528.01 L 933.57,527.67 L 930.87,527.11 L 928.38,526.61 L 924.00,525.63 L 921.89,525.13 L 918.09,524.09 L 916.23,523.56 L 912.74,522.40 L 907.59,520.44 L 907.22,520.30 L 906.72,520.14 L 906.50,520.08 L 906.26,520.12 L 906.18,520.16 L 906.20,520.39 L 906.49,520.98 L 906.76,521.43 L 906.81,521.80 L 906.14,521.59 L 905.82,521.39 L 905.46,520.83 L 905.47,520.04 L 905.61,519.82 L 905.34,519.07 L 904.30,517.86 L 903.94,517.57 L 903.45,517.21 L 903.25,517.07 L 903.05,517.01 L 902.99,517.02 L 903.05,517.27 L 903.38,518.00 L 903.49,518.21 L 903.52,518.39 L 903.50,518.45 L 903.30,518.35 L 903.18,518.27 L 902.79,517.90 L 902.03,517.09 L 901.45,516.42 L 900.69,514.99 L 900.54,514.65 L 900.39,514.04 L 900.42,513.34 L 900.57,512.97 L 900.47,512.39 L 899.86,512.00 L 899.54,512.00 L 899.25,511.32 L 899.41,509.50 L 899.59,508.78 L 899.57,507.71 L 899.02,507.00 L 898.88,507.00 L 898.62,506.78 L 898.50,506.64 L 898.30,506.19 L 898.02,504.25 L 898.02,503.78 L 898.07,503.12 L 898.11,502.82 L 898.23,502.50 L 898.30,502.38 L 898.50,502.40 L 898.87,502.82 L 899.01,503.04 L 899.32,503.12 L 899.47,503.10 L 899.82,502.67 L 900.00,502.39 L 900.38,501.45 L 901.01,499.45 L 901.36,498.23 L 902.26,495.99 L 902.75,494.91 L 903.97,492.96 L 904.61,492.01 L 906.14,490.33 L 906.94,489.52 L 908.80,488.10 L 909.77,487.42 L 911.96,486.25 L 913.10,485.69 L 915.65,484.77 L 916.96,484.34 L 919.87,483.66 L 924.64,482.90 L 927.12,482.61 L 931.80,482.36 L 934.09,482.29 L 938.31,482.47 L 940.34,482.61 L 943.96,483.22 L 948.57,484.59 L 949.55,485.00 L 951.74,485.47 L 952.26,485.55 L 953.20,485.60 L 954.32,485.48 L 954.68,485.38 L 955.18,485.27 L 955.39,485.24 L 955.62,485.25 L 955.69,485.28 L 955.64,485.41 L 955.23,485.75 L 955.00,485.92 L 954.84,486.30 L 954.82,486.50 L 955.10,486.99 L 955.30,487.26 L 956.05,487.90 L 957.73,489.08 L 958.65,489.67 L 960.00,490.85 L 960.60,491.42 L 961.27,492.51 L 961.52,493.04 L 961.49,493.98 L 960.61,495.16 L 960.48,495.25 L 959.83,495.18 L 959.44,495.11 L 958.38,494.75 L 957.81,494.54 L 956.49,493.94 L 954.35,492.83 L 953.06,492.10 L 950.28,490.84 L 948.87,490.24 L 945.89,489.24 L 944.39,488.77 L 941.32,488.05 L 939.78,487.72 L 936.72,487.27 L 935.20,487.08 L 932.25,486.94 L 930.79,486.90 L 928.05,487.06 L 926.71,487.18 L 924.28,487.66 L 921.09,488.76 L 920.14,489.21 L 918.14,489.88 L 917.67,490.02 L 916.84,490.19 L 915.89,490.27 L 915.40,490.23 L 914.26,490.65 L 912.82,491.76 L 912.54,492.10 L 912.19,492.56 L 912.06,492.76 L 912.01,492.93 L 912.02,492.99 L 912.28,492.90 L 913.00,492.52 L 913.24,492.38 L 913.51,492.30 L 913.61,492.28 L 913.62,492.44 L 913.58,492.55 L 913.32,492.95 L 912.62,493.80 L 912.10,494.40 L 911.03,495.17 L 910.79,495.31 L 910.36,495.46 L 909.88,495.42 L 909.65,495.28 L 909.18,495.38 L 908.94,495.48 L 908.47,495.99 L 908.24,496.29 L 907.80,497.14 L 907.58,497.59 L 907.20,498.68 L 906.84,499.82 L 906.40,502.45 L 906.41,506.25 L 906.57,507.33 L 907.12,509.27 L 907.44,510.20 L 908.35,511.87 L 908.86,512.68 L 910.19,514.12 L 910.92,514.82 L 912.73,516.07 L 913.71,516.68 L 916.06,517.78 L 917.32,518.31 L 920.28,519.30 L 921.84,519.79 L 925.47,520.70 L 931.73,522.03 L 933.74,522.42 L 937.18,523.09 L 938.81,523.41 L 941.55,523.96 L 942.85,524.23 L 945.00,524.69 L 946.02,524.91 L 947.68,525.30 L 948.47,525.49 L 949.75,525.84 L 950.35,526.02 L 951.34,526.35 L 953.74,527.40 L 954.95,528.04 L 957.15,529.66 L 958.21,530.52 L 960.09,532.49 L 960.99,533.51 L 962.50,535.75 L 963.21,536.89 L 964.32,539.28 L 964.82,540.49 L 965.49,542.96 L 965.77,544.19 L 965.95,546.62 L 965.98,547.83 L 965.64,550.14 L 964.50,553.35 L 964.09,554.14 L 963.64,555.68 L 963.56,556.03 L 963.53,556.63 L 963.66,557.26 L 963.85,557.57 L 963.80,557.81 L 963.15,557.60 L 962.82,557.39 L 962.33,557.48 L 962.00,558.27 L 962.00,558.63 L 961.51,559.52 L 961.20,559.99 L 960.18,561.05 L 959.61,561.59 L 958.17,562.74 L 957.41,563.32 L 955.68,564.49 L 953.90,565.64 L 949.97,567.64 L 949.00,568.09 L 947.11,568.82 L 944.50,569.58 L 944.22,569.63 L 943.45,569.79 L 943.03,569.88 L 942.06,570.08 L 939.00,570.70 L 935.50,571.40 L 938.50,572.08 L 938.98,572.19 L 939.20,572.37 L 939.20,572.46 L 938.49,572.60 L 938.02,572.66 L 936.40,572.75 L 933.00,572.81 L 931.67,572.82 L 929.57,572.78 L 928.61,572.74 L 927.29,572.63 L 926.73,572.56 L 926.24,572.38 L 926.11,572.28 M 911.50,494.00 L 911.67,493.72 L 911.63,493.29 L 911.06,493.00 L 910.77,493.00 L 910.31,493.29 L 910.00,494.00 L 910.00,494.27 L 910.13,494.71 L 910.44,495.00 L 910.56,495.00 L 910.93,494.71 L 911.13,494.52 M 822.46,568.75 L 822.44,568.71 L 822.41,568.41 L 822.39,568.22 L 822.37,567.65 L 822.34,567.01 L 822.29,564.99 L 822.27,563.86 L 822.23,560.94 L 822.22,559.38 L 822.20,555.68 L 822.19,553.74 L 822.18,549.37 L 822.17,547.12 L 822.18,542.21 L 822.18,539.70 L 822.20,534.36 L 822.24,526.00 L 822.50,484.50 L 824.75,483.51 L 825.37,483.24 L 826.34,482.59 L 827.00,481.76 L 827.00,481.71 L 827.40,481.61 L 827.67,481.56 L 828.56,481.48 L 829.06,481.43 L 830.38,481.36 L 831.10,481.32 L 832.80,481.26 L 833.70,481.23 L 835.73,481.18 L 836.78,481.16 L 839.08,481.13 L 846.75,481.12 L 848.11,481.13 L 850.66,481.16 L 851.90,481.17 L 854.18,481.22 L 855.29,481.24 L 857.26,481.30 L 858.20,481.33 L 859.82,481.39 L 860.58,481.43 L 861.79,481.51 L 862.34,481.54 L 863.11,481.63 L 863.43,481.67 L 863.70,481.76 L 863.50,481.89 L 862.80,482.04 L 862.00,482.28 L 861.71,482.40 L 861.82,482.64 L 861.91,482.70 L 862.28,482.85 L 862.50,482.93 L 863.14,483.11 L 863.49,483.20 L 864.42,483.42 L 866.15,483.82 L 867.66,484.16 L 870.42,485.08 L 871.76,485.57 L 874.18,486.79 L 875.36,487.44 L 877.44,488.95 L 878.44,489.75 L 880.18,491.56 L 881.01,492.51 L 882.39,494.61 L 883.04,495.69 L 884.08,498.08 L 884.55,499.31 L 885.23,501.97 L 885.83,506.27 L 885.95,507.94 L 885.80,511.03 L 885.66,512.53 L 884.99,515.30 L 884.59,516.64 L 883.40,519.08 L 882.74,520.27 L 881.02,522.40 L 880.09,523.42 L 877.84,525.24 L 876.64,526.11 L 873.85,527.62 L 872.39,528.33 L 869.06,529.54 L 863.45,531.01 L 862.42,531.22 L 860.89,531.61 L 860.21,531.80 L 859.35,532.14 L 859.01,532.31 L 858.78,532.64 L 859.10,533.14 L 859.22,533.21 L 859.16,533.34 L 859.09,533.41 L 858.67,533.52 L 858.41,533.57 L 857.64,533.66 L 857.22,533.70 L 856.10,533.77 L 855.51,533.80 L 854.06,533.84 L 853.30,533.86 L 851.54,533.88 L 850.62,533.88 L 848.54,533.88 L 845.09,533.84 L 829.69,533.62 L 828.32,538.06 L 828.10,538.80 L 827.74,540.78 L 827.58,541.86 L 827.36,544.51 L 827.27,545.92 L 827.18,549.25 L 827.20,555.00 L 827.23,556.72 L 827.23,559.95 L 827.22,561.51 L 827.14,564.20 L 827.09,565.44 L 826.94,567.28 L 826.90,567.67 L 826.81,568.24 L 826.66,568.75 L 826.41,569.15 L 825.67,569.66 L 825.27,569.86 L 824.41,569.96 L 823.99,569.96 L 823.23,569.66 L 822.89,569.46 M 867.00,523.77 L 867.00,523.50 L 867.42,523.24 L 868.42,523.33 L 868.81,523.48 L 869.58,523.29 L 870.39,522.44 L 870.54,522.04 L 871.20,521.42 L 872.40,521.00 L 872.62,521.00 L 873.15,520.79 L 873.43,520.65 L 874.04,520.22 L 874.65,519.74 L 875.86,518.40 L 876.43,517.72 L 877.21,516.36 L 877.36,516.04 L 877.50,515.50 L 877.43,514.88 L 877.28,514.64 L 877.31,514.26 L 877.80,514.00 L 878.06,514.00 L 878.32,513.30 L 878.27,511.62 L 878.14,510.96 L 878.23,509.76 L 878.79,508.63 L 878.95,508.53 L 879.12,508.12 L 879.18,507.88 L 879.16,507.19 L 879.13,506.82 L 878.93,505.89 L 878.43,504.26 L 878.06,503.23 L 877.47,501.27 L 877.34,500.82 L 877.17,500.09 L 877.04,499.35 L 877.04,499.19 L 876.73,498.60 L 876.54,498.27 L 875.91,497.41 L 873.25,494.37 L 869.50,490.54 L 849.39,490.17 L 829.29,489.80 L 828.14,494.34 L 827.93,495.20 L 827.59,497.36 L 827.43,498.50 L 827.21,501.07 L 827.02,503.71 L 826.99,509.43 L 827.01,510.84 L 827.14,513.53 L 827.21,514.84 L 827.45,517.19 L 827.58,518.31 L 827.92,520.14 L 828.55,522.10 L 830.10,525.10 L 848.55,524.93 L 849.97,524.92 L 852.61,524.88 L 853.89,524.85 L 856.23,524.79 L 857.36,524.76 L 859.38,524.68 L 860.35,524.64 L 862.04,524.54 L 862.84,524.49 L 864.16,524.38 L 864.77,524.32 L 865.72,524.20 L 866.14,524.13 L 866.67,523.99 L 866.89,523.92 Z" fill="rgba(1,99,218,1)"/>
</g>
</svg>