<?xml version="1.0" encoding="utf-8"?>
<svg viewBox="0 0 1000 1000" xmlns="http://www.w3.org/2000/svg">
  <g>
    <path d="M 820.00,539.62 L 820.01,541.45 L 820.01,545.00 L 820.02,546.58 L 820.03,549.64 L 820.04,551.00 L 820.06,553.61 L 820.07,554.77 L 820.10,556.97 L 820.12,557.94 L 820.16,559.77 L 820.19,560.57 L 820.24,562.08 L 820.28,562.72 L 820.43,565.02 L 820.54,565.82 L 820.77,567.23 L 820.93,567.71 L 821.26,568.53 L 821.46,568.84 L 821.90,569.40 L 822.17,569.69 L 823.58,570.90 L 824.39,571.32 L 826.03,572.00 L 820.00,572.00 L 820.00,528.83 L 820.00,535.55 M 53.86,534.59 L 54.54,534.67 L 56.61,534.80 L 57.75,534.86 L 60.52,534.95 L 65.17,535.00 L 66.79,535.00 L 69.76,535.07 L 71.18,535.11 L 73.52,535.25 L 74.60,535.33 L 76.07,535.52 L 76.37,535.57 L 76.76,535.68 L 77.00,535.85 L 77.00,535.97 L 76.76,536.51 L 76.61,536.82 L 76.12,537.67 L 73.99,540.85 L 70.99,545.00 L 61.64,544.96 L 64.59,544.69 L 66.37,544.18 L 67.02,543.76 L 68.14,542.81 L 68.46,542.17 L 68.95,540.76 L 68.97,539.89 L 68.69,539.08 L 68.17,538.66 L 67.69,538.50 L 66.57,538.21 L 65.75,538.09 L 63.90,537.86 L 62.66,537.76 L 59.76,537.45 L 58.11,537.18 L 57.43,537.00 L 56.14,536.62 L 55.62,536.38 L 54.66,535.87 L 54.30,535.55 L 53.64,534.88 L 53.45,534.54 M 103.85,425.01 L 103.51,425.41 L 101.74,427.87 L 101.33,428.62 L 101.20,428.93 L 101.00,429.51 L 101.00,429.70 L 100.87,430.29 L 100.67,430.88 L 100.51,431.26 L 99.74,433.04 L 99.16,434.23 L 97.90,436.80 L 97.12,438.30 L 95.46,441.45 L 94.53,443.17 L 90.56,450.38 L 88.43,454.07 L 86.29,457.74 L 85.24,459.50 L 83.15,462.94 L 82.17,464.50 L 79.59,468.77 L 78.82,470.08 L 78.52,470.63 L 77.96,471.66 L 77.79,472.00 L 77.06,473.37 L 76.38,474.55 L 75.99,475.23 L 74.27,478.12 L 73.41,479.50 L 71.90,482.02 L 70.73,484.06 L 70.11,485.17 L 67.61,489.78 L 66.61,491.78 L 64.85,495.11 L 63.49,497.56 L 62.78,498.80 L 61.34,501.26 L 60.65,502.40 L 59.30,504.57 L 58.72,505.45 L 51.73,516.54 L 49.65,520.05 L 48.71,521.72 L 46.90,524.97 L 46.10,526.48 L 44.59,529.40 L 43.97,530.71 L 42.80,533.21 L 42.36,534.28 L 41.58,536.30 L 41.35,537.09 L 41.00,538.54 L 41.00,539.01 L 41.34,541.06 L 42.00,541.99 L 42.65,542.27 L 43.37,542.54 L 43.82,542.63 L 44.81,542.80 L 45.41,542.85 L 46.70,542.94 L 47.48,542.97 L 49.12,543.00 L 50.08,543.00 L 52.39,543.08 L 53.74,543.20 L 54.27,543.29 L 55.24,543.49 L 55.54,543.61 L 56.00,543.86 L 56.00,544.00 L 56.14,544.27 L 56.41,544.39 L 57.04,544.62 L 57.51,544.71 L 58.53,544.87 L 59.14,544.92 L 59.55,544.95 L 54.24,544.92 L 51.94,544.91 L 47.65,544.85 L 45.58,544.82 L 42.06,544.72 L 41.24,544.69 L 39.83,544.64 L 39.16,544.61 L 38.07,544.54 L 37.57,544.51 L 36.86,544.45 L 36.55,544.41 L 36.27,544.34 L 36.06,544.26 L 35.79,544.01 L 35.69,543.84 L 35.79,543.12 L 35.85,542.89 L 36.08,542.28 L 36.21,541.94 L 36.60,541.08 L 36.82,540.61 L 37.41,539.45 L 37.73,538.82 L 38.53,537.31 L 38.96,536.50 L 40.01,534.59 L 40.57,533.58 L 41.89,531.22 L 42.59,529.97 L 44.21,527.12 L 45.06,525.62 L 47.00,522.21 L 48.02,520.44 L 50.31,516.44 L 51.50,514.36 L 54.17,509.71 L 55.56,507.31 L 58.63,501.97 L 63.72,493.13 L 65.96,489.24 L 70.06,482.13 L 72.05,478.69 L 75.66,472.42 L 77.40,469.39 L 80.56,463.92 L 82.09,461.27 L 84.83,456.53 L 86.15,454.25 L 88.50,450.18 L 89.63,448.23 L 91.64,444.78 L 92.59,443.13 L 94.27,440.25 L 95.08,438.88 L 96.47,436.51 L 97.13,435.38 L 98.27,433.47 L 98.81,432.56 L 99.73,431.04 L 100.16,430.33 L 100.89,429.15 L 101.23,428.60 L 101.80,427.72 L 102.34,426.89 L 103.08,425.86 L 103.97,424.80 L 104.07,424.70 M 115.81,423.47 L 115.66,423.60 L 114.79,424.70 L 114.55,425.04 L 113.95,425.91 L 113.63,426.38 L 112.87,427.55 L 112.47,428.18 L 111.54,429.69 L 111.05,430.49 L 109.91,432.37 L 109.31,433.37 L 107.94,435.68 L 107.22,436.89 L 105.60,439.65 L 104.76,441.09 L 102.86,444.36 L 101.87,446.06 L 99.67,449.86 L 98.53,451.83 L 96.01,456.21 L 94.70,458.48 L 91.83,463.48 L 90.35,466.06 L 87.10,471.72 L 81.78,481.00 L 80.10,483.94 L 77.00,489.35 L 75.50,491.97 L 72.76,496.77 L 71.43,499.10 L 69.01,503.33 L 67.85,505.37 L 65.74,509.07 L 64.73,510.86 L 62.92,514.06 L 62.05,515.60 L 60.50,518.34 L 59.77,519.65 L 58.48,521.97 L 57.86,523.08 L 56.81,525.01 L 56.30,525.92 L 55.46,527.50 L 55.06,528.25 L 54.41,529.51 L 54.10,530.10 L 53.62,531.08 L 53.40,531.54 L 53.08,532.27 L 52.89,532.71 L 52.81,532.06 L 52.82,531.44 L 52.90,530.15 L 53.01,529.40 L 54.12,525.59 L 54.66,524.41 L 54.95,523.91 L 55.55,522.98 L 55.84,522.67 L 57.37,520.68 L 57.72,520.05 L 57.83,519.78 L 58.00,519.29 L 58.00,519.11 L 58.18,518.32 L 58.47,517.56 L 58.68,517.08 L 59.17,516.05 L 59.48,515.45 L 60.14,514.19 L 60.53,513.50 L 62.21,510.57 L 63.21,508.95 L 65.30,505.66 L 66.42,504.00 L 67.93,501.62 L 69.13,499.60 L 69.77,498.47 L 72.42,493.70 L 73.54,491.50 L 77.02,484.85 L 79.53,480.26 L 80.88,477.88 L 83.64,473.07 L 85.11,470.59 L 88.11,465.58 L 89.70,463.00 L 93.32,456.94 L 94.50,454.88 L 95.03,453.95 L 96.01,452.19 L 96.37,451.50 L 97.68,449.20 L 98.71,447.51 L 99.26,446.65 L 100.38,444.93 L 100.92,444.14 L 101.99,442.62 L 102.46,442.00 L 105.19,437.79 L 105.96,436.36 L 106.26,435.71 L 106.79,434.48 L 106.94,434.00 L 108.07,430.80 L 108.93,428.94 L 109.40,428.15 L 110.38,426.67 L 110.90,426.07 L 111.96,424.98 L 112.52,424.59 L 113.66,423.90 L 114.25,423.72 L 115.44,423.45 M 116.82,402.38 L 117.01,402.66 L 117.73,403.82 L 117.94,404.17 L 118.49,405.06 L 118.78,405.54 L 119.49,406.72 L 119.87,407.35 L 120.76,408.86 L 121.24,409.65 L 122.34,411.52 L 122.93,412.50 L 124.26,414.75 L 124.96,415.93 L 126.55,418.62 L 127.37,420.02 L 129.23,423.17 L 130.20,424.81 L 132.35,428.46 L 133.46,430.35 L 135.92,434.53 L 137.19,436.69 L 139.99,441.44 L 141.43,443.89 L 144.58,449.25 L 149.73,458.00 L 151.01,460.19 L 153.45,464.34 L 154.65,466.38 L 156.90,470.22 L 158.01,472.10 L 160.08,475.64 L 161.10,477.37 L 163.00,480.61 L 163.92,482.20 L 165.65,485.15 L 166.49,486.59 L 168.05,489.26 L 168.80,490.56 L 170.19,492.95 L 170.87,494.11 L 172.09,496.22 L 172.69,497.25 L 173.75,499.09 L 174.26,499.98 L 175.17,501.56 L 175.61,502.32 L 176.36,503.65 L 176.72,504.28 L 177.32,505.36 L 177.61,505.86 L 178.06,506.69 L 178.28,507.07 L 178.59,507.66 L 178.73,507.93 L 178.90,508.28 L 179.00,508.55 L 179.00,508.61 L 178.64,508.72 L 178.41,508.78 L 177.66,508.87 L 174.45,509.00 L 173.57,509.00 L 172.15,508.89 L 171.48,508.81 L 170.39,508.50 L 169.88,508.31 L 168.98,507.75 L 167.70,506.58 L 167.55,506.42 L 167.00,505.64 L 166.68,505.19 L 165.83,503.88 L 165.36,503.17 L 164.25,501.41 L 163.67,500.47 L 162.34,498.32 L 161.66,497.20 L 160.15,494.71 L 159.38,493.44 L 157.75,490.70 L 152.55,481.83 L 151.00,479.17 L 148.08,474.15 L 146.65,471.68 L 143.96,467.06 L 142.64,464.80 L 140.16,460.57 L 138.95,458.50 L 136.68,454.65 L 135.58,452.77 L 133.52,449.29 L 132.52,447.60 L 130.66,444.48 L 129.75,442.96 L 128.09,440.20 L 127.28,438.85 L 125.80,436.43 L 125.09,435.25 L 123.79,433.16 L 123.17,432.15 L 122.05,430.37 L 121.51,429.52 L 120.56,428.06 L 120.11,427.36 L 119.32,426.20 L 118.95,425.65 L 118.32,424.78 L 118.02,424.37 L 117.54,423.78 L 117.52,423.76 L 117.89,423.91 L 119.12,424.53 L 119.74,425.01 L 120.79,426.00 L 121.66,426.95 L 122.15,427.52 L 124.21,430.04 L 125.22,431.39 L 127.18,434.08 L 127.87,435.16 L 128.50,436.17 L 128.70,436.54 L 129.00,437.20 L 129.00,437.36 L 129.28,437.94 L 129.71,438.69 L 130.03,439.20 L 130.72,440.30 L 131.14,440.95 L 132.02,442.28 L 132.50,443.00 L 134.97,447.48 L 135.55,448.88 L 135.72,449.47 L 136.00,450.57 L 136.00,450.95 L 136.22,452.34 L 136.59,453.36 L 136.87,453.90 L 138.24,456.11 L 139.25,457.20 L 140.82,459.07 L 142.03,460.66 L 142.68,461.56 L 145.29,465.35 L 146.35,467.11 L 151.06,474.91 L 153.94,479.66 L 155.25,481.81 L 157.77,485.94 L 158.89,487.78 L 161.04,491.28 L 161.98,492.79 L 163.76,495.65 L 164.50,496.83 L 165.89,499.03 L 166.44,499.87 L 167.44,501.39 L 167.78,501.89 L 168.38,502.72 L 168.52,502.87 L 169.76,503.63 L 170.63,503.73 L 170.95,503.53 L 171.09,503.18 L 171.06,502.76 L 170.99,502.46 L 170.82,501.80 L 170.67,501.38 L 170.35,500.49 L 170.14,499.97 L 169.14,497.65 L 168.45,496.20 L 166.93,493.10 L 165.99,491.29 L 164.01,487.50 L 162.85,485.38 L 160.44,480.99 L 159.09,478.60 L 156.30,473.70 L 154.78,471.10 L 151.65,465.78 L 149.99,463.00 L 146.11,456.47 L 143.57,452.14 L 142.42,450.14 L 141.30,448.19 L 140.78,447.28 L 139.79,445.53 L 139.35,444.75 L 138.51,443.25 L 138.17,442.62 L 137.53,441.45 L 137.30,441.00 L 135.57,437.83 L 134.15,435.33 L 133.37,433.99 L 131.78,431.30 L 130.99,429.98 L 129.42,427.41 L 128.70,426.28 L 124.23,419.14 L 122.84,416.90 L 122.25,415.94 L 121.16,414.15 L 120.79,413.53 L 119.56,411.69 L 118.73,410.66 L 118.33,410.26 L 117.56,409.55 L 117.21,409.33 L 116.55,409.00 L 116.29,409.00 L 113.96,409.73 L 112.33,410.87 L 111.54,411.69 L 110.00,413.49 L 109.33,414.55 L 108.88,415.37 L 109.62,413.85 L 110.47,412.15 L 112.42,408.51 L 112.90,407.64 L 113.82,406.02 L 114.26,405.24 L 115.05,403.94 L 115.42,403.35 L 115.99,402.52 L 116.50,402.00 L 116.53,402.00 M 960.87,488.57 L 961.51,488.94 L 962.55,489.62 L 963.03,489.95 L 963.72,490.52 L 964.27,491.22 L 963.76,490.57 L 963.11,490.03 L 962.66,489.72 L 961.68,489.06 L 961.09,488.71 L 959.95,488.05 M 906.70,488.21 L 905.47,489.29 L 904.94,489.81 L 903.98,490.83 L 904.63,489.96 L 907.11,487.72 L 908.43,486.65 L 910.61,485.39 M 959.54,487.82 L 959.76,487.94 L 959.22,487.65 M 958.78,487.42 L 958.82,487.45 L 958.77,487.42 M 820.54,486.91 L 820.58,486.24 L 820.65,485.55 L 820.53,487.19 M 912.49,484.35 L 913.18,483.99 L 914.30,483.57 M 948.30,482.93 L 948.43,482.98 L 948.13,482.89 M 935.43,480.40 L 937.61,480.54 L 940.56,481.01 L 939.61,480.90 L 936.61,480.66 L 935.28,480.71 L 932.75,480.94 L 931.72,481.24 L 929.95,481.68 L 928.97,481.82 L 928.58,481.83 L 927.86,481.79 L 927.57,481.69 L 927.06,481.46 L 926.88,481.28 L 925.98,480.88 L 925.07,480.79 L 924.50,480.81 L 924.26,480.83 L 924.69,480.75 L 928.94,480.37 L 931.07,480.25 M 941.95,481.24 L 942.20,481.30 L 941.68,481.19 M 898.25,505.40 L 898.24,504.93 L 898.37,503.78 L 898.55,502.57 L 899.17,500.51 L 898.55,502.58 L 898.37,503.78 L 898.24,504.93 L 898.25,505.41 L 898.32,506.27 L 898.45,506.58 L 898.32,506.27 Z" fill="rgba(0,59,194,1)"/>
    <path d="M 117.21,409.33 L 117.56,409.55 L 118.33,410.26 L 118.73,410.66 L 119.56,411.69 L 120.79,413.53 L 121.16,414.15 L 122.25,415.94 L 122.84,416.90 L 124.23,419.14 L 128.70,426.28 L 129.42,427.41 L 130.99,429.98 L 131.78,431.30 L 133.37,433.99 L 134.15,435.33 L 135.57,437.83 L 137.30,441.00 L 137.53,441.45 L 138.17,442.62 L 138.51,443.25 L 139.35,444.75 L 139.79,445.53 L 140.78,447.28 L 141.30,448.19 L 142.42,450.14 L 143.57,452.14 L 146.11,456.47 L 149.99,463.00 L 151.65,465.78 L 154.78,471.10 L 156.30,473.70 L 159.09,478.60 L 160.44,480.99 L 162.85,485.38 L 164.01,487.50 L 165.99,491.29 L 166.93,493.10 L 168.45,496.20 L 169.14,497.65 L 170.14,499.97 L 170.35,500.49 L 170.67,501.38 L 170.82,501.80 L 170.99,502.46 L 171.06,502.76 L 171.09,503.18 L 170.95,503.53 L 170.63,503.73 L 169.76,503.63 L 168.52,502.87 L 168.38,502.72 L 167.78,501.89 L 167.44,501.39 L 166.44,499.87 L 165.89,499.03 L 164.50,496.83 L 163.76,495.65 L 161.98,492.79 L 161.04,491.28 L 158.89,487.78 L 157.77,485.94 L 155.25,481.81 L 153.94,479.66 L 151.06,474.91 L 146.35,467.11 L 145.29,465.35 L 142.68,461.56 L 142.03,460.66 L 140.82,459.07 L 139.25,457.20 L 138.24,456.11 L 136.87,453.90 L 136.59,453.36 L 136.22,452.34 L 136.00,450.95 L 136.00,450.57 L 135.72,449.47 L 135.55,448.88 L 134.97,447.48 L 132.50,443.00 L 132.02,442.28 L 131.14,440.95 L 130.72,440.30 L 130.03,439.20 L 129.71,438.69 L 129.28,437.94 L 129.00,437.36 L 129.00,437.20 L 128.70,436.54 L 128.50,436.17 L 127.87,435.16 L 127.18,434.08 L 125.22,431.39 L 124.21,430.04 L 122.15,427.52 L 121.66,426.95 L 120.79,426.00 L 119.74,425.01 L 119.12,424.53 L 117.89,423.91 L 117.27,423.65 L 116.05,423.48 L 115.44,423.45 L 114.25,423.72 L 113.66,423.90 L 112.52,424.59 L 111.96,424.98 L 110.90,426.07 L 110.38,426.67 L 109.40,428.15 L 108.93,428.94 L 108.07,430.80 L 106.94,434.00 L 106.79,434.48 L 106.26,435.71 L 105.96,436.36 L 105.19,437.79 L 102.46,442.00 L 101.99,442.62 L 100.92,444.14 L 100.38,444.93 L 99.26,446.65 L 98.71,447.51 L 97.68,449.20 L 96.37,451.50 L 96.01,452.19 L 95.03,453.95 L 94.50,454.88 L 93.32,456.94 L 89.70,463.00 L 88.11,465.58 L 85.11,470.59 L 83.64,473.07 L 80.88,477.88 L 79.53,480.26 L 77.02,484.85 L 73.54,491.50 L 72.42,493.70 L 69.77,498.47 L 69.13,499.60 L 67.93,501.62 L 66.42,504.00 L 65.30,505.66 L 63.21,508.95 L 62.21,510.57 L 60.53,513.50 L 60.14,514.19 L 59.48,515.45 L 59.17,516.05 L 58.68,517.08 L 58.47,517.56 L 58.18,518.32 L 58.00,519.11 L 58.00,519.29 L 57.83,519.78 L 57.72,520.05 L 57.37,520.68 L 55.84,522.67 L 55.55,522.98 L 54.95,523.91 L 54.66,524.41 L 54.12,525.59 L 53.01,529.40 L 52.90,530.15 L 52.82,531.44 L 52.81,532.06 L 52.94,533.12 L 53.04,533.62 L 53.42,534.48 L 53.64,534.88 L 54.30,535.55 L 54.66,535.87 L 55.62,536.38 L 56.14,536.62 L 57.43,537.00 L 58.11,537.18 L 59.76,537.45 L 62.66,537.76 L 63.90,537.86 L 65.75,538.09 L 66.57,538.21 L 67.69,538.50 L 68.17,538.66 L 68.69,539.08 L 68.97,539.89 L 68.95,540.76 L 68.46,542.17 L 68.14,542.81 L 67.02,543.76 L 66.37,544.18 L 64.59,544.69 L 61.14,545.00 L 60.43,545.00 L 59.14,544.92 L 58.53,544.87 L 57.51,544.71 L 57.04,544.62 L 56.41,544.39 L 56.14,544.27 L 56.00,544.00 L 56.00,543.86 L 55.54,543.61 L 55.24,543.49 L 54.27,543.29 L 53.74,543.20 L 52.39,543.08 L 50.08,543.00 L 49.12,543.00 L 47.48,542.97 L 46.70,542.94 L 45.41,542.85 L 44.81,542.80 L 43.82,542.63 L 43.37,542.54 L 42.65,542.27 L 42.00,541.99 L 41.34,541.06 L 41.00,539.01 L 41.00,538.54 L 41.35,537.09 L 41.58,536.30 L 42.36,534.28 L 42.80,533.21 L 43.97,530.71 L 44.59,529.40 L 46.10,526.48 L 46.90,524.97 L 48.71,521.72 L 49.65,520.05 L 51.73,516.54 L 58.72,505.45 L 59.30,504.57 L 60.65,502.40 L 61.34,501.26 L 62.78,498.80 L 63.49,497.56 L 64.85,495.11 L 66.61,491.78 L 67.61,489.78 L 70.11,485.17 L 70.73,484.06 L 71.90,482.02 L 73.41,479.50 L 74.27,478.12 L 75.99,475.23 L 76.38,474.55 L 77.06,473.37 L 77.79,472.00 L 77.96,471.66 L 78.52,470.63 L 78.82,470.08 L 79.59,468.77 L 82.17,464.50 L 83.15,462.94 L 85.24,459.50 L 86.29,457.74 L 88.43,454.07 L 90.56,450.38 L 94.53,443.17 L 95.46,441.45 L 97.12,438.30 L 97.90,436.80 L 99.16,434.23 L 99.74,433.04 L 100.51,431.26 L 100.67,430.88 L 100.87,430.29 L 101.00,429.70 L 101.00,429.51 L 101.20,428.93 L 101.33,428.62 L 101.74,427.87 L 103.51,425.41 L 103.85,425.01 L 104.61,423.92 L 104.99,423.35 L 105.76,422.03 L 107.65,418.00 L 108.09,416.79 L 109.33,414.55 L 110.00,413.49 L 111.54,411.69 L 112.33,410.87 L 113.96,409.73 L 116.29,409.00 L 116.55,409.00 Z" style="fill: rgb(12, 87, 255);"/>
    <path d="M 771.04,480.68 L 773.82,480.76 L 775.17,480.82 L 777.63,481.03 L 778.83,481.15 L 781.05,481.50 L 782.14,481.70 L 784.20,482.23 L 786.24,482.80 L 790.15,484.54 L 791.15,485.03 L 793.19,486.20 L 796.42,488.23 L 797.29,488.81 L 798.74,489.83 L 799.41,490.32 L 800.50,491.19 L 801.00,491.61 L 801.73,492.37 L 802.06,492.74 L 802.46,493.43 L 802.62,493.77 L 802.71,494.42 L 802.72,494.75 L 802.52,495.41 L 802.38,495.74 L 801.90,496.43 L 800.89,497.57 L 798.30,500.15 L 791.40,495.69 L 789.50,494.46 L 785.35,492.21 L 784.36,491.71 L 782.60,490.90 L 780.50,490.12 L 779.76,489.92 L 778.08,489.60 L 777.20,489.45 L 775.28,489.25 L 773.32,489.08 L 768.99,489.07 L 766.80,489.13 L 762.42,489.57 L 756.37,490.72 L 755.03,491.08 L 752.86,491.81 L 751.84,492.20 L 750.02,493.17 L 749.12,493.70 L 747.28,495.12 L 744.08,498.00 L 743.28,498.77 L 741.59,500.59 L 740.75,501.53 L 739.12,503.53 L 738.33,504.53 L 736.96,506.47 L 735.38,509.03 L 734.71,510.31 L 733.80,512.33 L 733.40,513.32 L 732.93,515.40 L 732.84,515.97 L 732.70,517.26 L 732.64,517.94 L 732.57,519.54 L 732.54,520.39 L 732.51,522.40 L 732.50,526.00 L 732.50,527.32 L 732.51,529.56 L 732.53,530.63 L 732.58,532.42 L 732.61,533.27 L 732.71,534.71 L 732.77,535.40 L 732.94,536.61 L 733.13,537.77 L 733.78,539.81 L 735.32,543.24 L 736.09,544.81 L 737.84,547.68 L 738.76,549.07 L 740.80,551.59 L 741.85,552.81 L 744.17,554.97 L 745.36,556.01 L 747.95,557.82 L 749.27,558.68 L 752.13,560.12 L 753.59,560.80 L 756.70,561.87 L 758.29,562.37 L 761.66,563.07 L 767.00,563.71 L 768.33,563.80 L 770.78,563.86 L 771.97,563.87 L 774.19,563.77 L 776.37,563.63 L 780.30,562.78 L 782.24,562.25 L 786.08,560.53 L 787.05,560.04 L 789.07,558.88 L 792.26,556.83 L 798.18,552.80 L 801.07,555.57 L 801.51,555.99 L 802.19,556.71 L 802.49,557.06 L 802.89,557.70 L 803.05,558.01 L 803.13,558.61 L 803.13,558.91 L 802.87,559.53 L 802.69,559.85 L 802.05,560.55 L 801.67,560.92 L 800.62,561.75 L 800.04,562.20 L 798.55,563.23 L 795.77,565.06 L 794.30,566.01 L 791.10,567.67 L 789.47,568.45 L 786.01,569.77 L 784.26,570.38 L 780.64,571.33 L 778.81,571.77 L 775.11,572.35 L 773.26,572.60 L 769.58,572.81 L 767.75,572.86 L 766.15,572.78 L 766.64,572.73 L 768.17,572.47 L 769.76,572.19 L 770.65,572.00 L 772.49,571.60 L 773.50,571.37 L 783.22,568.52 L 786.18,567.42 L 787.54,566.85 L 790.18,565.69 L 791.34,565.10 L 793.58,563.92 L 794.51,563.33 L 796.26,562.16 L 796.93,561.60 L 798.11,560.49 L 798.46,559.96 L 799.00,558.95 L 799.00,558.49 L 798.44,557.31 L 797.57,557.01 L 796.94,557.09 L 795.57,557.42 L 794.75,557.80 L 793.04,558.73 L 792.12,559.41 L 788.75,561.29 L 785.94,562.40 L 784.34,562.88 L 781.01,563.78 L 779.25,564.13 L 775.67,564.78 L 773.86,565.00 L 770.26,565.37 L 768.55,565.45 L 765.18,565.51 L 763.67,565.41 L 760.79,565.14 L 759.61,564.86 L 757.46,564.22 L 756.74,563.75 L 754.24,562.51 L 752.56,562.00 L 751.99,562.00 L 751.00,561.80 L 750.23,561.49 L 749.84,561.27 L 748.22,560.19 L 747.59,559.50 L 745.64,557.73 L 745.06,557.32 L 744.82,557.20 L 744.37,557.00 L 744.23,557.00 L 743.17,556.55 L 742.24,555.83 L 741.70,555.31 L 740.56,554.16 L 739.95,553.46 L 738.71,552.00 L 738.08,551.19 L 735.55,547.79 L 734.49,546.08 L 733.47,544.39 L 733.06,543.60 L 732.30,542.07 L 732.05,541.41 L 731.28,538.76 L 730.85,536.65 L 730.68,535.47 L 730.10,530.48 L 730.00,527.83 L 729.92,522.53 L 730.08,520.13 L 730.28,517.80 L 730.43,516.76 L 730.76,514.79 L 730.99,513.99 L 731.73,511.82 L 732.40,510.26 L 732.79,509.45 L 734.50,506.20 L 735.44,504.72 L 736.39,503.29 L 736.85,502.66 L 737.76,501.47 L 738.18,501.00 L 738.99,500.16 L 739.34,499.89 L 739.99,499.49 L 740.23,499.49 L 741.25,499.19 L 742.19,498.72 L 742.75,498.38 L 745.18,496.77 L 746.41,495.74 L 749.86,493.10 L 750.80,492.48 L 751.14,492.29 L 751.75,492.00 L 751.89,492.00 L 752.65,491.80 L 753.46,491.49 L 753.98,491.27 L 756.30,490.19 L 757.60,489.50 L 760.11,488.32 L 761.74,487.75 L 762.57,487.55 L 764.27,487.22 L 765.21,487.13 L 767.14,487.00 L 768.25,487.00 L 773.68,487.42 L 777.48,488.06 L 779.28,488.52 L 782.76,489.50 L 784.18,490.08 L 785.53,490.66 L 786.09,490.96 L 787.13,491.57 L 787.50,491.88 L 790.37,493.94 L 792.32,495.09 L 793.23,495.50 L 794.98,496.22 L 795.70,496.38 L 797.01,496.55 L 797.41,496.40 L 798.82,495.32 L 799.06,494.37 L 798.87,493.82 L 798.28,492.66 L 797.72,492.04 L 796.42,490.75 L 795.55,490.10 L 793.67,488.77 L 792.54,488.13 L 790.18,486.86 L 788.86,486.27 L 786.14,485.14 L 784.68,484.65 L 781.72,483.74 L 780.18,483.40 L 772.32,482.23 L 767.18,482.07 L 764.61,482.30 L 759.44,482.99 L 756.78,483.65 L 751.41,485.20 L 748.58,486.30 L 745.69,487.44 L 744.09,488.11 L 743.42,488.42 L 741.04,489.62 L 740.10,490.33 L 738.31,491.87 L 737.35,492.99 L 736.37,494.18 L 735.81,494.90 L 734.63,496.43 L 733.93,497.35 L 731.35,500.90 L 729.89,503.11 L 729.27,504.17 L 728.12,506.26 L 727.64,507.30 L 726.76,509.37 L 726.41,510.43 L 725.78,512.58 L 725.54,513.72 L 725.11,516.05 L 724.97,517.31 L 724.72,519.92 L 724.65,521.36 L 724.55,524.34 L 724.54,526.00 L 724.86,534.61 L 725.43,539.84 L 725.87,542.15 L 726.88,546.56 L 727.53,548.42 L 728.22,550.21 L 728.60,551.00 L 729.02,551.84 L 728.96,551.74 L 727.21,548.43 L 726.38,546.73 L 725.03,543.04 L 723.43,537.07 L 722.98,534.97 L 722.43,531.21 L 722.21,529.37 L 722.11,525.92 L 722.11,524.21 L 722.47,520.75 L 723.51,515.22 L 723.98,513.25 L 725.19,509.53 L 725.84,507.71 L 727.43,504.30 L 728.27,502.64 L 730.24,499.54 L 731.26,498.03 L 733.59,495.25 L 734.81,493.89 L 737.50,491.43 L 738.90,490.23 L 741.96,488.09 L 743.54,487.06 L 746.96,485.23 L 752.50,482.87 L 753.70,482.43 L 755.95,481.78 L 757.08,481.50 L 759.49,481.11 L 760.77,480.95 L 763.79,480.77 L 764.61,480.74 L 766.43,480.70 L 769.50,480.68 M 902.39,551.30 L 902.78,551.50 L 903.82,552.13 L 907.62,554.86 L 909.25,556.15 L 912.05,558.13 L 913.42,559.05 L 916.06,560.45 L 917.41,561.10 L 920.34,562.15 L 925.59,563.56 L 926.98,563.88 L 929.28,564.30 L 930.38,564.47 L 932.44,564.60 L 933.48,564.62 L 935.74,564.46 L 939.70,563.95 L 937.75,564.31 L 936.60,564.63 L 936.17,564.78 L 935.43,565.09 L 935.26,565.23 L 934.29,565.59 L 933.27,565.74 L 932.60,565.77 L 931.17,565.80 L 930.34,565.76 L 928.58,565.65 L 927.62,565.55 L 921.30,564.27 L 917.11,562.87 L 915.22,562.00 L 913.38,561.10 L 912.55,560.63 L 910.94,559.66 L 910.25,559.16 L 908.96,558.15 L 908.46,557.65 L 907.55,556.64 L 907.27,556.14 L 906.31,554.65 L 905.77,554.04 L 905.49,553.91 L 904.91,553.76 L 904.56,553.82 L 903.80,554.05 L 903.30,554.27 L 901.50,555.60 L 901.22,556.12 L 901.18,556.41 L 901.15,557.02 L 901.24,557.36 L 901.48,558.07 L 901.69,558.47 L 902.20,559.30 L 902.55,559.76 L 903.32,560.72 L 903.81,561.26 L 904.86,562.37 L 905.48,562.98 L 907.69,564.98 L 909.03,566.02 L 909.65,566.39 L 910.86,567.05 L 911.44,567.25 L 912.57,567.56 L 913.13,567.60 L 917.15,568.18 L 919.88,568.82 L 921.10,569.21 L 923.40,570.03 L 924.21,570.45 L 924.95,570.87 L 925.20,571.08 L 925.63,571.47 L 925.70,571.66 L 926.04,572.03 L 926.44,572.19 L 927.39,572.49 L 928.03,572.60 L 929.44,572.78 L 929.25,572.78 L 925.88,572.45 L 924.22,572.23 L 921.12,571.49 L 919.26,570.96 L 915.07,569.30 L 912.96,568.40 L 908.74,566.23 L 906.69,565.12 L 903.06,562.79 L 902.22,562.21 L 900.76,561.08 L 898.97,559.47 L 895.63,556.02 L 897.99,553.51 L 898.64,552.82 L 900.01,551.74 L 900.33,551.51 L 900.89,551.20 L 901.54,551.00 L 901.71,551.00 M 912.50,494.14 L 911.55,495.03 L 910.22,496.98 L 909.64,497.99 L 908.96,500.34 L 908.55,504.52 L 908.54,505.68 L 908.75,507.69 L 908.89,508.65 L 909.50,510.33 L 909.86,511.13 L 910.97,512.54 L 911.59,513.22 L 913.31,514.42 L 914.25,515.00 L 916.67,516.05 L 917.98,516.57 L 921.21,517.55 L 922.94,518.03 L 927.09,518.99 L 934.46,520.49 L 936.46,520.87 L 940.07,521.63 L 941.80,522.01 L 944.91,522.80 L 946.40,523.19 L 949.07,524.02 L 950.35,524.43 L 952.62,525.32 L 953.71,525.78 L 955.64,526.76 L 956.57,527.26 L 958.22,528.34 L 962.37,532.12 L 963.20,533.09 L 964.65,535.42 L 965.34,536.64 L 966.43,539.29 L 966.93,540.64 L 967.59,543.40 L 968.00,547.42 L 968.00,547.92 L 967.78,549.15 L 967.64,549.79 L 967.17,551.24 L 966.65,552.73 L 965.05,556.01 L 964.18,557.65 L 962.15,560.72 L 961.64,561.44 L 960.58,562.74 L 959.02,564.36 L 958.04,565.25 L 955.62,566.85 L 954.35,567.62 L 951.46,568.95 L 949.97,569.59 L 946.73,570.64 L 945.08,571.12 L 941.62,571.86 L 939.87,572.19 L 938.87,572.31 L 939.00,572.23 L 939.00,572.04 L 939.33,571.58 L 939.86,571.22 L 940.24,571.02 L 942.07,570.25 L 943.23,569.94 L 949.54,567.76 L 953.28,565.96 L 954.90,564.91 L 957.99,562.72 L 959.27,561.49 L 961.65,558.96 L 962.57,557.59 L 964.21,554.78 L 964.74,553.30 L 965.61,550.28 L 965.74,548.71 L 965.78,545.54 L 965.48,543.91 L 964.66,540.65 L 963.92,539.00 L 961.92,535.32 L 960.35,533.06 L 959.48,532.06 L 957.68,530.16 L 956.73,529.38 L 954.80,527.93 L 953.81,527.42 L 952.99,527.07 L 952.19,526.80 L 951.67,526.64 L 949.35,525.96 L 947.85,525.57 L 944.67,524.76 L 942.88,524.35 L 939.21,523.51 L 937.31,523.11 L 932.83,522.14 L 930.06,521.52 L 928.79,521.21 L 926.32,520.60 L 925.18,520.30 L 922.98,519.69 L 921.97,519.39 L 918.20,518.18 L 916.67,517.55 L 913.84,516.26 L 912.73,515.57 L 910.71,514.14 L 909.96,513.35 L 908.64,511.71 L 908.20,510.78 L 907.47,508.86 L 907.28,507.76 L 907.01,505.48 L 907.02,504.17 L 907.04,502.18 L 907.09,501.04 L 907.13,500.57 L 907.34,498.86 L 907.56,498.25 L 908.08,497.16 L 908.49,496.73 L 909.43,495.92 L 910.10,495.50 L 911.05,494.89 L 911.93,494.32 L 912.45,493.98 L 913.55,493.26 M 732.41,556.13 L 733.16,556.77 L 734.75,558.05 L 735.67,558.71 L 737.56,560.03 L 738.61,560.70 L 743.03,563.34 L 745.49,564.58 L 750.55,566.98 L 753.18,568.00 L 756.03,569.19 L 757.72,569.96 L 758.42,570.32 L 759.68,571.00 L 760.09,571.27 L 760.76,571.77 L 760.80,571.91 L 761.08,572.30 L 759.02,571.94 L 757.36,571.59 L 754.27,570.58 L 752.01,569.74 L 747.91,567.90 L 745.92,566.95 L 742.34,564.87 L 740.61,563.80 L 737.52,561.45 L 736.04,560.24 L 733.42,557.59 L 732.16,556.23 L 731.22,554.95 M 834.39,481.06 L 832.64,481.09 L 831.72,481.14 L 830.04,481.24 L 829.40,481.32 L 828.22,481.50 L 827.77,481.63 L 826.95,481.90 L 826.61,482.08 L 825.42,482.91 L 824.74,483.54 L 822.00,486.08 L 822.00,526.84 L 822.00,532.23 L 822.01,535.61 L 822.02,537.19 L 822.03,540.29 L 822.03,541.74 L 822.05,544.57 L 822.06,545.89 L 822.11,550.90 L 822.14,553.03 L 822.22,557.04 L 822.26,558.70 L 822.36,561.79 L 822.42,563.01 L 822.55,565.25 L 822.63,566.07 L 822.79,567.51 L 822.88,567.95 L 823.07,568.67 L 823.18,568.78 L 823.99,569.43 L 824.39,569.44 L 825.19,569.25 L 825.68,568.85 L 826.28,567.76 L 826.59,566.50 L 826.69,565.56 L 826.88,563.48 L 826.93,562.10 L 827.00,559.09 L 827.00,557.21 L 827.32,547.90 L 827.54,544.91 L 827.67,543.62 L 827.95,541.20 L 828.10,540.33 L 829.00,535.18 L 829.00,572.00 L 826.03,572.00 L 824.39,571.32 L 823.58,570.90 L 822.17,569.69 L 821.90,569.40 L 821.46,568.84 L 821.26,568.53 L 820.93,567.71 L 820.77,567.23 L 820.54,565.82 L 820.43,565.02 L 820.28,562.72 L 820.24,562.08 L 820.19,560.57 L 820.16,559.77 L 820.12,557.94 L 820.10,556.97 L 820.07,554.77 L 820.06,553.61 L 820.04,551.00 L 820.03,549.64 L 820.02,546.58 L 820.01,545.00 L 820.01,541.45 L 820.00,539.62 L 820.00,535.55 L 820.00,528.83 L 820.00,523.53 L 820.05,513.49 L 820.07,511.06 L 820.11,506.50 L 820.13,504.28 L 820.19,500.21 L 820.22,498.25 L 820.29,494.79 L 820.32,493.15 L 820.40,490.43 L 820.44,489.17 L 820.52,487.29 L 820.65,485.55 L 821.30,480.82 M 952.99,557.50 L 951.80,558.65 L 949.39,560.80 L 947.99,561.82 L 947.28,562.17 L 945.82,562.78 L 944.97,562.99 L 943.15,563.37 L 943.12,563.37 L 944.08,563.17 L 945.22,562.91 L 946.96,562.26 L 947.78,561.90 L 949.27,560.86 L 951.80,558.62 L 952.75,557.71 L 953.68,556.72 M 958.55,549.11 L 958.54,549.12 L 958.55,549.10 M 956.83,540.55 L 957.35,541.41 L 958.28,543.12 L 958.56,543.95 L 959.00,545.58 L 959.00,546.33 L 958.81,547.48 L 958.86,546.87 L 958.86,546.15 L 958.61,544.69 L 958.44,543.96 L 957.84,542.45 L 956.75,540.44 M 905.05,520.08 L 906.47,520.65 L 907.93,521.15 L 908.88,521.45 L 910.89,522.07 L 912.05,522.41 L 914.46,523.12 L 915.76,523.48 L 921.15,524.97 L 923.83,525.66 L 926.49,526.33 L 927.74,526.63 L 930.17,527.21 L 931.24,527.45 L 934.29,528.19 L 936.12,528.69 L 936.88,528.93 L 938.26,529.40 L 938.72,529.59 L 939.47,529.96 L 939.55,530.08 L 940.72,530.73 L 942.01,531.00 L 942.72,531.00 L 945.24,531.41 L 947.03,532.07 L 947.94,532.55 L 949.77,533.62 L 950.66,534.27 L 950.67,534.28 L 949.62,533.66 L 948.85,533.26 L 947.12,532.56 L 946.22,532.22 L 944.18,531.60 L 943.11,531.30 L 940.72,530.75 L 936.68,529.96 L 933.40,529.38 L 927.57,528.19 L 924.78,527.59 L 919.91,526.35 L 917.58,525.72 L 913.60,524.39 L 911.71,523.71 L 908.56,522.27 L 907.09,521.53 L 904.72,519.95 L 904.58,519.84 M 863.83,481.95 L 865.71,482.11 L 866.59,482.19 L 868.06,482.37 L 868.74,482.46 L 869.82,482.66 L 871.00,482.99 L 872.24,483.46 L 874.82,484.89 L 876.10,485.67 L 878.61,487.60 L 879.83,488.61 L 882.06,490.86 L 884.83,494.40 L 885.42,495.31 L 886.24,496.84 L 886.60,497.60 L 887.05,499.24 L 887.24,500.12 L 887.41,502.37 L 887.45,502.99 L 887.48,504.45 L 887.50,507.00 L 887.50,507.93 L 887.48,509.54 L 887.47,510.31 L 887.41,511.63 L 887.34,512.90 L 887.03,514.85 L 886.84,515.77 L 886.20,517.43 L 884.75,520.17 L 883.83,521.74 L 881.27,524.57 L 880.57,525.25 L 878.98,526.55 L 876.30,528.41 L 875.34,529.01 L 873.58,530.02 L 872.71,530.49 L 870.99,531.28 L 870.11,531.64 L 868.26,532.23 L 867.31,532.50 L 865.16,532.92 L 864.03,533.11 L 861.41,533.39 L 860.03,533.51 L 856.76,533.68 L 855.65,533.73 L 855.89,533.71 L 857.03,533.59 L 857.49,533.52 L 858.33,533.37 L 858.65,533.28 L 859.69,532.87 L 859.91,532.60 L 860.66,532.01 L 861.38,531.61 L 861.82,531.42 L 863.76,530.71 L 864.79,530.52 L 869.97,529.19 L 873.08,528.01 L 874.46,527.27 L 877.10,525.71 L 878.24,524.80 L 880.40,522.88 L 881.29,521.80 L 882.94,519.55 L 883.57,518.31 L 884.70,515.75 L 885.06,514.35 L 885.66,511.50 L 885.75,509.97 L 885.78,506.84 L 885.59,505.18 L 884.90,501.41 L 884.21,499.04 L 883.76,497.94 L 882.77,495.78 L 882.17,494.78 L 880.91,492.84 L 880.17,491.96 L 878.63,490.25 L 877.76,489.49 L 875.96,488.03 L 874.96,487.40 L 872.91,486.19 L 871.79,485.69 L 869.49,484.76 L 868.25,484.39 L 866.21,483.72 L 865.02,483.26 L 864.54,483.04 L 863.68,482.60 L 863.41,482.41 L 863.00,482.06 L 863.00,481.93 L 862.93,481.89 M 829.00,509.15 L 829.06,513.43 L 829.10,515.48 L 829.22,518.94 L 829.25,519.74 L 829.33,521.12 L 829.37,521.76 L 829.46,522.80 L 829.50,523.27 L 829.60,523.93 L 829.75,524.42 L 829.80,524.47 L 830.26,524.57 L 830.54,524.61 L 831.42,524.69 L 831.91,524.72 L 833.17,524.78 L 833.84,524.81 L 835.42,524.85 L 837.07,524.88 L 841.15,524.89 L 848.00,524.81 L 849.93,524.77 L 853.21,524.68 L 854.70,524.64 L 854.62,524.64 L 853.05,524.69 L 849.72,524.77 L 847.76,524.81 L 830.02,525.19 L 828.89,522.35 L 828.26,520.27 L 827.92,518.59 L 827.78,517.63 L 827.32,513.51 L 827.25,511.20 L 827.20,506.47 L 827.33,504.12 L 827.71,499.51 L 828.07,497.49 L 829.00,492.24 M 867.61,523.28 L 868.15,523.12 L 870.09,522.27 L 868.15,523.12 M 898.92,507.81 L 899.09,508.35 L 899.17,508.69 L 899.47,510.23 L 899.54,511.10 L 900.15,513.69 L 900.93,515.49 L 901.44,516.33 L 902.54,517.94 L 903.16,518.59 L 904.22,519.58 L 903.63,519.14 L 901.98,517.39 L 901.25,516.49 L 900.28,514.54 L 899.51,511.37 L 899.44,510.58 L 899.09,508.78 L 898.68,507.37 M 939.61,480.90 L 941.16,481.08 L 944.46,481.78 L 949.57,483.32 L 951.17,483.90 L 954.50,485.33 L 956.14,486.07 L 959.13,487.61 L 959.84,487.98 L 961.09,488.71 L 961.68,489.06 L 962.66,489.72 L 963.11,490.03 L 963.76,490.57 L 964.27,491.22 L 964.41,491.61 L 964.18,492.95 L 964.00,493.66 L 963.33,495.20 L 962.97,495.95 L 962.13,497.16 L 961.92,497.42 L 961.52,497.77 L 960.98,498.00 L 960.84,498.00 L 960.04,497.71 L 959.56,497.53 L 958.20,496.94 L 957.47,496.61 L 955.74,495.79 L 952.91,494.39 L 950.86,493.34 L 947.03,491.61 L 945.15,490.80 L 941.63,489.53 L 939.90,488.95 L 936.65,488.15 L 935.06,487.80 L 932.04,487.46 L 930.55,487.35 L 927.72,487.46 L 926.90,487.53 L 927.43,487.44 L 929.37,487.30 L 930.43,487.30 L 934.83,487.46 L 937.18,487.79 L 941.96,488.59 L 944.31,489.20 L 948.95,490.58 L 951.05,491.45 L 953.67,492.51 L 955.30,493.15 L 956.01,493.41 L 957.35,493.89 L 957.84,494.04 L 958.70,494.30 L 958.89,494.32 L 960.29,494.10 L 960.65,493.51 L 960.54,493.03 L 960.14,491.95 L 959.67,491.26 L 958.55,489.78 L 957.72,488.92 L 955.84,487.24 L 954.53,486.33 L 953.81,485.95 L 952.29,485.25 L 951.41,484.96 L 949.55,484.40 L 948.44,484.15 L 939.93,482.73 L 934.43,482.29 L 931.80,482.32 L 926.63,482.53 L 924.22,482.87 L 919.53,483.69 L 917.40,484.32 L 913.30,485.71 L 911.52,486.61 L 908.15,488.54 L 906.79,489.69 L 905.48,490.88 L 904.91,491.51 L 903.83,492.81 L 903.38,493.51 L 902.55,494.92 L 902.24,495.67 L 901.68,497.19 L 901.50,497.99 L 900.60,500.37 L 900.21,500.99 L 900.01,501.22 L 899.60,501.60 L 899.41,501.67 L 898.55,502.58 L 898.55,502.58 L 899.43,499.67 L 899.93,498.18 L 901.29,495.18 L 903.64,491.27 L 903.97,490.83 L 904.94,489.81 L 905.47,489.29 L 906.70,488.21 L 910.64,485.37 L 912.05,484.54 L 915.35,483.11 L 917.02,482.46 L 920.31,481.51 L 921.11,481.31 L 922.57,481.03 L 923.27,480.91 L 924.50,480.81 L 925.07,480.79 L 925.98,480.88 L 926.88,481.28 L 927.06,481.46 L 927.57,481.69 L 927.86,481.79 L 928.58,481.83 L 928.97,481.82 L 929.95,481.68 L 931.72,481.24 L 932.75,480.94 L 935.28,480.71 L 936.61,480.66 M 923.93,488.08 L 924.15,488.01 L 924.80,487.86 L 925.51,487.75 Z" fill="rgba(0,86,194,1)"/>
    <path d="M 939.93,482.73 L 948.44,484.15 L 949.55,484.40 L 951.41,484.96 L 952.29,485.25 L 953.81,485.95 L 954.53,486.33 L 955.84,487.24 L 957.72,488.92 L 958.55,489.78 L 959.67,491.26 L 960.14,491.95 L 960.54,493.03 L 960.65,493.51 L 960.29,494.10 L 958.89,494.32 L 958.70,494.30 L 957.84,494.04 L 957.35,493.89 L 956.01,493.41 L 955.30,493.15 L 953.67,492.51 L 951.05,491.45 L 948.95,490.58 L 944.31,489.20 L 941.96,488.59 L 937.18,487.79 L 934.83,487.46 L 930.43,487.30 L 929.37,487.30 L 927.43,487.44 L 924.80,487.86 L 924.15,488.01 L 922.62,488.50 L 921.84,488.78 L 920.21,489.45 L 919.40,489.80 L 917.86,490.57 L 915.86,491.73 L 914.72,492.49 L 912.45,493.98 L 911.93,494.32 L 911.05,494.89 L 910.10,495.50 L 909.43,495.92 L 908.49,496.73 L 908.08,497.16 L 907.56,498.25 L 907.34,498.86 L 907.13,500.57 L 907.09,501.04 L 907.04,502.18 L 907.02,504.17 L 907.01,505.48 L 907.28,507.76 L 907.47,508.86 L 908.20,510.78 L 908.64,511.71 L 909.96,513.35 L 910.71,514.14 L 912.73,515.57 L 913.84,516.26 L 916.67,517.55 L 918.20,518.18 L 921.97,519.39 L 922.98,519.69 L 925.18,520.30 L 926.32,520.60 L 928.79,521.21 L 930.06,521.52 L 932.83,522.14 L 937.31,523.11 L 939.21,523.51 L 942.88,524.35 L 944.67,524.76 L 947.85,525.57 L 949.35,525.96 L 951.67,526.64 L 952.19,526.80 L 952.99,527.07 L 953.81,527.42 L 954.80,527.93 L 956.73,529.38 L 957.68,530.16 L 959.48,532.06 L 960.35,533.06 L 961.92,535.32 L 963.92,539.00 L 964.66,540.65 L 965.48,543.91 L 965.78,545.54 L 965.74,548.71 L 965.61,550.28 L 964.74,553.30 L 964.21,554.78 L 962.57,557.59 L 961.65,558.96 L 959.27,561.49 L 957.99,562.72 L 954.90,564.91 L 953.28,565.96 L 949.54,567.76 L 943.23,569.94 L 942.07,570.25 L 940.24,571.02 L 939.86,571.22 L 939.33,571.58 L 939.00,572.04 L 939.00,572.23 L 938.45,572.54 L 938.10,572.67 L 937.01,572.86 L 936.41,572.94 L 934.95,573.02 L 934.20,573.05 L 932.58,573.03 L 930.95,572.98 L 928.03,572.60 L 927.39,572.49 L 926.44,572.19 L 926.04,572.03 L 925.70,571.66 L 925.63,571.47 L 925.20,571.08 L 924.95,570.87 L 924.21,570.45 L 923.40,570.03 L 921.10,569.21 L 919.88,568.82 L 917.15,568.18 L 913.13,567.60 L 912.57,567.56 L 911.44,567.25 L 910.86,567.05 L 909.65,566.39 L 909.03,566.02 L 907.69,564.98 L 905.48,562.98 L 904.86,562.37 L 903.81,561.26 L 903.32,560.72 L 902.55,559.76 L 902.20,559.30 L 901.69,558.47 L 901.48,558.07 L 901.24,557.36 L 901.15,557.02 L 901.18,556.41 L 901.22,556.12 L 901.50,555.60 L 903.30,554.27 L 903.80,554.05 L 904.56,553.82 L 904.91,553.76 L 905.49,553.91 L 905.77,554.04 L 906.31,554.65 L 907.27,556.14 L 907.55,556.64 L 908.46,557.65 L 908.96,558.15 L 910.25,559.16 L 910.94,559.66 L 912.55,560.63 L 913.38,561.10 L 915.22,562.00 L 917.11,562.87 L 921.30,564.27 L 927.62,565.55 L 928.58,565.65 L 930.34,565.76 L 931.17,565.80 L 932.60,565.77 L 933.27,565.74 L 934.29,565.59 L 935.26,565.23 L 935.43,565.09 L 936.17,564.78 L 936.60,564.63 L 937.75,564.31 L 942.00,563.51 L 943.15,563.37 L 944.97,562.99 L 945.82,562.78 L 947.28,562.17 L 947.99,561.82 L 949.39,560.80 L 951.80,558.65 L 952.99,557.50 L 954.94,555.28 L 955.84,554.19 L 957.19,552.09 L 957.79,551.06 L 958.55,549.11 L 959.00,546.33 L 959.00,545.58 L 958.56,543.95 L 958.28,543.12 L 957.35,541.41 L 956.83,540.55 L 955.52,538.85 L 954.83,538.01 L 953.24,536.42 L 952.42,535.65 L 950.66,534.27 L 949.77,533.62 L 947.94,532.55 L 947.03,532.07 L 945.24,531.41 L 942.72,531.00 L 942.01,531.00 L 940.72,530.73 L 939.55,530.08 L 939.47,529.96 L 938.72,529.59 L 938.26,529.40 L 936.88,528.93 L 936.12,528.69 L 934.29,528.19 L 931.24,527.45 L 930.17,527.21 L 927.74,526.63 L 926.49,526.33 L 923.83,525.66 L 921.15,524.97 L 915.76,523.48 L 914.46,523.12 L 912.05,522.41 L 910.89,522.07 L 908.88,521.45 L 907.93,521.15 L 906.47,520.65 L 905.05,520.08 L 904.42,519.76 L 903.16,518.59 L 902.54,517.94 L 901.44,516.33 L 900.93,515.49 L 900.15,513.69 L 899.54,511.10 L 899.47,510.23 L 899.17,508.69 L 899.09,508.35 L 898.92,507.81 L 898.65,507.31 L 898.35,507.02 L 898.06,506.01 L 897.97,505.47 L 898.05,504.25 L 898.13,503.66 L 898.52,502.62 L 899.41,501.67 L 899.60,501.60 L 900.01,501.22 L 900.21,500.99 L 900.60,500.37 L 901.50,497.99 L 901.68,497.19 L 902.24,495.67 L 902.55,494.92 L 903.38,493.51 L 903.83,492.81 L 904.91,491.51 L 905.48,490.88 L 906.79,489.69 L 908.15,488.54 L 911.52,486.61 L 913.30,485.71 L 917.40,484.32 L 919.53,483.69 L 924.22,482.87 L 926.63,482.53 L 931.80,482.32 L 934.43,482.29 M 772.32,482.23 L 780.18,483.40 L 781.72,483.74 L 784.68,484.65 L 786.14,485.14 L 788.86,486.27 L 790.18,486.86 L 792.54,488.13 L 793.67,488.77 L 795.55,490.10 L 796.42,490.75 L 797.72,492.04 L 798.28,492.66 L 798.87,493.82 L 799.06,494.37 L 798.82,495.32 L 797.41,496.40 L 797.01,496.55 L 795.70,496.38 L 794.98,496.22 L 793.23,495.50 L 792.32,495.09 L 790.37,493.94 L 787.50,491.88 L 787.13,491.57 L 786.09,490.96 L 785.53,490.66 L 784.18,490.08 L 782.76,489.50 L 779.28,488.52 L 777.48,488.06 L 773.68,487.42 L 768.25,487.00 L 767.14,487.00 L 765.21,487.13 L 764.27,487.22 L 762.57,487.55 L 761.74,487.75 L 760.11,488.32 L 757.60,489.50 L 756.30,490.19 L 753.98,491.27 L 753.46,491.49 L 752.65,491.80 L 751.89,492.00 L 751.75,492.00 L 751.14,492.29 L 750.80,492.48 L 749.86,493.10 L 746.41,495.74 L 745.18,496.77 L 742.75,498.38 L 742.19,498.72 L 741.25,499.19 L 740.23,499.49 L 739.99,499.49 L 739.34,499.89 L 738.99,500.16 L 738.18,501.00 L 737.76,501.47 L 736.85,502.66 L 736.39,503.29 L 735.44,504.72 L 734.50,506.20 L 732.79,509.45 L 732.40,510.26 L 731.73,511.82 L 730.99,513.99 L 730.76,514.79 L 730.43,516.76 L 730.28,517.80 L 730.08,520.13 L 729.92,522.53 L 730.00,527.83 L 730.10,530.48 L 730.68,535.47 L 730.85,536.65 L 731.28,538.76 L 732.05,541.41 L 732.30,542.07 L 733.06,543.60 L 733.47,544.39 L 734.49,546.08 L 735.55,547.79 L 738.08,551.19 L 738.71,552.00 L 739.95,553.46 L 740.56,554.16 L 741.70,555.31 L 742.24,555.83 L 743.17,556.55 L 744.23,557.00 L 744.37,557.00 L 744.82,557.20 L 745.06,557.32 L 745.64,557.73 L 747.59,559.50 L 748.22,560.19 L 749.84,561.27 L 750.23,561.49 L 751.00,561.80 L 751.99,562.00 L 752.56,562.00 L 754.24,562.51 L 756.74,563.75 L 757.46,564.22 L 759.61,564.86 L 760.79,565.14 L 763.67,565.41 L 765.18,565.51 L 768.55,565.45 L 770.26,565.37 L 773.86,565.00 L 775.67,564.78 L 779.25,564.13 L 781.01,563.78 L 784.34,562.88 L 785.94,562.40 L 788.75,561.29 L 792.12,559.41 L 793.04,558.73 L 794.75,557.80 L 795.57,557.42 L 796.94,557.09 L 797.57,557.01 L 798.44,557.31 L 799.00,558.49 L 799.00,558.95 L 798.46,559.96 L 798.11,560.49 L 796.93,561.60 L 796.26,562.16 L 794.51,563.33 L 793.58,563.92 L 791.34,565.10 L 790.18,565.69 L 787.54,566.85 L 786.18,567.42 L 783.22,568.52 L 773.50,571.37 L 772.49,571.60 L 770.65,572.00 L 769.76,572.19 L 768.17,572.47 L 766.64,572.73 L 764.31,572.93 L 763.26,572.98 L 761.87,572.75 L 761.28,572.58 L 760.80,571.91 L 760.76,571.77 L 760.09,571.27 L 759.68,571.00 L 758.42,570.32 L 757.72,569.96 L 756.03,569.19 L 753.18,568.00 L 750.55,566.98 L 745.49,564.58 L 743.03,563.34 L 738.61,560.70 L 737.56,560.03 L 735.67,558.71 L 734.75,558.05 L 733.16,556.77 L 732.41,556.13 L 731.18,554.91 L 729.80,553.19 L 729.38,552.53 L 728.60,551.00 L 728.22,550.21 L 727.53,548.42 L 726.88,546.56 L 725.87,542.15 L 725.43,539.84 L 724.86,534.61 L 724.54,526.00 L 724.55,524.34 L 724.65,521.36 L 724.72,519.92 L 724.97,517.31 L 725.11,516.05 L 725.54,513.72 L 725.78,512.58 L 726.41,510.43 L 726.76,509.37 L 727.64,507.30 L 728.12,506.26 L 729.27,504.17 L 729.89,503.11 L 731.35,500.90 L 733.93,497.35 L 734.63,496.43 L 735.81,494.90 L 736.37,494.18 L 737.35,492.99 L 738.31,491.87 L 740.10,490.33 L 741.04,489.62 L 743.42,488.42 L 744.09,488.11 L 745.69,487.44 L 748.58,486.30 L 751.41,485.20 L 756.78,483.65 L 759.44,482.99 L 764.61,482.30 L 767.18,482.07 M 852.35,481.07 L 853.42,481.09 L 855.37,481.15 L 856.31,481.18 L 857.97,481.26 L 858.76,481.30 L 860.09,481.40 L 860.71,481.45 L 861.67,481.56 L 862.10,481.61 L 862.66,481.73 L 863.00,481.93 L 863.00,482.06 L 863.41,482.41 L 863.68,482.60 L 864.54,483.04 L 865.02,483.26 L 866.21,483.72 L 868.25,484.39 L 869.49,484.76 L 871.79,485.69 L 872.91,486.19 L 874.96,487.40 L 875.96,488.03 L 877.76,489.49 L 878.63,490.25 L 880.17,491.96 L 880.91,492.84 L 882.17,494.78 L 882.77,495.78 L 883.76,497.94 L 884.21,499.04 L 884.90,501.41 L 885.59,505.18 L 885.78,506.84 L 885.75,509.97 L 885.66,511.50 L 885.06,514.35 L 884.70,515.75 L 883.57,518.31 L 882.94,519.55 L 881.29,521.80 L 880.40,522.88 L 878.24,524.80 L 877.10,525.71 L 874.46,527.27 L 873.08,528.01 L 869.97,529.19 L 864.79,530.52 L 863.76,530.71 L 861.82,531.42 L 861.38,531.61 L 860.66,532.01 L 859.91,532.60 L 859.69,532.87 L 858.65,533.28 L 858.33,533.37 L 857.49,533.52 L 857.03,533.59 L 855.89,533.71 L 855.28,533.76 L 853.80,533.84 L 853.02,533.88 L 851.16,533.93 L 850.18,533.96 L 847.91,533.98 L 843.98,534.00 L 829.21,534.00 L 828.10,540.33 L 827.95,541.20 L 827.67,543.62 L 827.54,544.91 L 827.32,547.90 L 827.00,557.21 L 827.00,559.09 L 826.93,562.10 L 826.88,563.48 L 826.69,565.56 L 826.59,566.50 L 826.28,567.76 L 825.68,568.85 L 825.19,569.25 L 824.39,569.44 L 823.99,569.43 L 823.18,568.78 L 823.07,568.67 L 822.88,567.95 L 822.79,567.51 L 822.63,566.07 L 822.55,565.25 L 822.42,563.01 L 822.36,561.79 L 822.26,558.70 L 822.22,557.04 L 822.14,553.03 L 822.11,550.90 L 822.06,545.89 L 822.05,544.57 L 822.03,541.74 L 822.03,540.29 L 822.02,537.19 L 822.01,535.61 L 822.00,532.23 L 822.00,526.84 L 822.00,486.08 L 824.74,483.54 L 825.42,482.91 L 826.61,482.08 L 826.95,481.90 L 827.77,481.63 L 828.22,481.50 L 829.40,481.32 L 830.04,481.24 L 831.72,481.14 L 832.64,481.09 L 834.98,481.04 L 836.25,481.02 L 839.41,481.01 L 845.24,481.00 L 847.81,481.00 M 829.40,490.00 L 828.07,497.49 L 827.71,499.51 L 827.33,504.12 L 827.20,506.47 L 827.25,511.20 L 827.32,513.51 L 827.78,517.63 L 827.92,518.59 L 828.26,520.27 L 828.89,522.35 L 830.02,525.19 L 847.76,524.81 L 849.72,524.77 L 853.05,524.69 L 854.62,524.64 L 857.28,524.54 L 858.53,524.49 L 860.63,524.37 L 861.62,524.30 L 863.27,524.13 L 864.05,524.04 L 865.37,523.82 L 866.00,523.71 L 867.09,523.42 L 868.15,523.12 L 870.09,522.27 L 870.81,521.93 L 872.03,521.32 L 872.60,521.02 L 873.55,520.45 L 874.45,519.89 L 875.64,518.64 L 876.17,517.95 L 876.91,516.11 L 877.08,515.59 L 877.40,514.35 L 877.89,512.15 L 878.28,510.30 L 878.48,507.00 L 878.48,505.40 L 877.86,502.46 L 877.44,501.03 L 875.96,498.29 L 872.71,494.25 L 868.58,490.00 Z" style="fill: rgb(21, 126, 255);"/>
    <path d="M 81.78,596.04 L 64.07,595.50 L 70.87,583.50 L 73.52,578.83 L 79.21,568.85 L 82.10,563.80 L 88.03,553.47 L 90.99,548.31 L 96.84,538.16 L 98.29,535.66 L 101.10,530.79 L 102.50,528.38 L 105.19,523.74 L 106.52,521.45 L 109.04,517.11 L 110.28,514.98 L 112.60,511.01 L 113.73,509.07 L 115.81,505.53 L 116.81,503.82 L 118.60,500.78 L 119.46,499.33 L 120.93,496.86 L 121.62,495.70 L 122.73,493.87 L 123.24,493.04 L 123.94,491.91 L 124.51,491.08 L 124.81,490.78 L 125.31,490.43 L 125.55,490.30 L 126.02,490.34 L 126.26,490.41 L 126.83,490.88 L 127.93,492.08 L 128.41,492.66 L 129.17,493.67 L 129.52,494.16 L 129.99,495.12 L 130.18,495.60 L 130.31,496.63 L 130.33,497.18 L 130.10,498.44 L 129.93,499.11 L 129.29,500.75 L 128.91,501.62 L 127.83,503.77 L 127.23,504.92 L 125.68,507.73 L 122.76,512.84 L 122.18,513.85 L 120.74,516.36 L 119.98,517.69 L 118.22,520.75 L 117.30,522.34 L 115.29,525.84 L 114.26,527.63 L 112.06,531.45 L 109.83,535.33 L 105.11,543.54 L 98.17,555.61 L 97.06,557.54 L 94.92,561.28 L 93.87,563.12 L 91.89,566.62 L 90.92,568.33 L 89.14,571.50 L 88.28,573.04 L 86.75,575.81 L 86.02,577.14 L 84.77,579.43 L 84.19,580.50 L 83.28,582.23 L 82.87,583.01 L 82.33,584.09 L 82.00,584.90 L 82.00,585.01 L 82.76,585.21 L 83.02,585.25 L 83.75,585.34 L 84.15,585.38 L 85.18,585.45 L 85.73,585.49 L 87.07,585.55 L 87.79,585.58 L 89.46,585.64 L 90.35,585.66 L 92.38,585.71 L 93.44,585.73 L 95.84,585.77 L 97.08,585.78 L 99.87,585.81 L 101.31,585.82 L 104.50,585.84 L 106.15,585.85 L 109.77,585.86 L 111.63,585.87 L 115.68,585.87 L 117.77,585.87 L 122.28,585.87 L 124.59,585.87 L 129.58,585.85 L 132.14,585.85 L 137.62,585.83 L 146.42,585.79 L 150.85,585.77 L 159.37,585.72 L 163.56,585.69 L 171.48,585.63 L 175.35,585.59 L 182.48,585.52 L 185.93,585.48 L 192.10,585.40 L 193.57,585.38 L 196.31,585.33 L 197.64,585.31 L 200.08,585.27 L 201.26,585.24 L 203.37,585.20 L 204.38,585.18 L 206.14,585.13 L 206.98,585.11 L 208.38,585.06 L 209.03,585.04 L 210.03,584.99 L 210.48,584.97 L 211.08,584.92 L 211.48,584.86 L 211.52,584.81 L 211.49,584.55 L 211.46,584.38 L 211.29,583.90 L 211.08,583.37 L 210.30,581.78 L 209.85,580.91 L 208.67,578.79 L 206.56,575.27 L 205.68,573.85 L 204.24,571.47 L 203.57,570.35 L 202.57,568.51 L 202.11,567.65 L 201.53,566.30 L 201.29,565.68 L 201.12,564.75 L 201.09,564.33 L 201.34,563.76 L 201.52,563.52 L 202.17,563.25 L 202.55,563.15 L 203.62,563.11 L 205.67,563.27 L 206.36,563.34 L 207.51,563.50 L 208.06,563.59 L 209.02,563.89 L 209.49,564.06 L 210.39,564.65 L 210.84,564.99 L 211.81,566.01 L 212.32,566.59 L 213.49,568.20 L 214.12,569.10 L 215.62,571.45 L 216.03,572.09 L 216.92,573.54 L 217.38,574.29 L 218.40,575.97 L 218.93,576.84 L 220.10,578.78 L 222.03,582.00 L 230.13,595.50 L 205.32,596.11 L 203.48,596.16 L 199.36,596.24 L 197.23,596.28 L 192.60,596.35 L 190.22,596.38 L 185.15,596.44 L 182.57,596.46 L 177.14,596.51 L 171.64,596.55 L 159.92,596.60 L 153.99,596.62 L 141.92,596.63 L 135.90,596.62 L 124.13,596.58 L 121.23,596.57 L 115.61,596.53 L 112.84,596.51 L 107.52,596.47 L 104.90,596.44 L 99.96,596.38 L 97.55,596.35 L 93.08,596.29 L 90.90,596.25 L 86.97,596.17 L 85.09,596.13 M 410.40,571.58 L 409.10,571.18 L 406.62,570.09 L 405.39,569.50 L 403.05,568.07 L 401.91,567.31 L 399.74,565.56 L 398.69,564.65 L 396.73,562.61 L 395.78,561.55 L 394.04,559.25 L 393.21,558.07 L 391.73,555.54 L 391.03,554.25 L 389.83,551.52 L 388.38,547.22 L 387.86,545.32 L 387.41,541.46 L 387.28,539.51 L 387.63,535.56 L 387.90,533.57 L 389.05,529.50 L 391.69,523.21 L 392.37,521.86 L 393.97,519.40 L 394.81,518.20 L 396.69,516.05 L 397.66,515.02 L 399.78,513.18 L 400.87,512.30 L 403.19,510.79 L 404.37,510.07 L 406.85,508.87 L 408.11,508.32 L 410.71,507.44 L 412.02,507.05 L 414.71,506.50 L 416.06,506.26 L 418.80,506.04 L 420.17,505.97 L 422.91,506.08 L 424.27,506.17 L 426.98,506.61 L 428.32,506.87 L 430.96,507.64 L 432.26,508.06 L 434.79,509.17 L 436.03,509.76 L 438.41,511.20 L 439.57,511.96 L 441.76,513.74 L 442.83,514.67 L 444.79,516.79 L 447.43,520.35 L 448.50,522.04 L 450.15,525.12 L 450.89,526.64 L 451.95,529.59 L 452.41,531.08 L 452.96,534.20 L 453.33,539.37 L 453.35,540.60 L 453.25,542.90 L 453.17,544.02 L 452.88,546.14 L 452.53,548.23 L 451.16,552.03 L 450.75,552.97 L 449.75,554.80 L 449.22,555.72 L 447.95,557.54 L 447.28,558.45 L 445.72,560.30 L 443.04,563.15 L 441.72,564.48 L 439.54,566.50 L 438.50,567.42 L 436.66,568.79 L 435.75,569.41 L 433.97,570.32 L 431.02,571.40 L 429.43,571.87 L 425.91,572.48 L 424.13,572.72 L 420.46,572.87 L 418.64,572.89 L 415.13,572.57 L 413.43,572.36 M 426.91,563.43 L 428.30,563.02 L 430.83,561.88 L 432.05,561.26 L 434.23,559.74 L 435.27,558.94 L 437.11,557.10 L 437.99,556.15 L 439.48,554.05 L 440.18,552.97 L 441.33,550.66 L 441.86,549.49 L 442.66,547.03 L 443.02,545.79 L 443.48,543.23 L 443.66,541.95 L 443.77,539.36 L 443.78,538.06 L 443.54,535.48 L 443.38,534.20 L 442.80,531.69 L 442.46,530.45 L 441.53,528.07 L 441.02,526.90 L 439.74,524.70 L 439.05,523.63 L 437.42,521.66 L 436.56,520.72 L 434.59,519.05 L 433.55,518.26 L 431.22,516.94 L 427.33,515.41 L 426.12,515.06 L 423.72,514.62 L 422.53,514.45 L 420.20,514.37 L 419.04,514.38 L 416.79,514.66 L 415.68,514.84 L 413.52,515.47 L 412.46,515.83 L 410.42,516.80 L 409.41,517.33 L 407.50,518.63 L 406.56,519.33 L 404.79,520.97 L 402.32,523.80 L 401.27,525.18 L 399.66,528.00 L 398.94,529.43 L 397.98,532.42 L 397.58,533.96 L 397.23,537.28 L 397.35,542.77 L 397.49,544.26 L 398.14,547.09 L 398.52,548.48 L 399.63,551.07 L 400.24,552.33 L 401.78,554.65 L 402.60,555.77 L 404.53,557.79 L 405.55,558.75 L 407.84,560.43 L 409.03,561.22 L 411.65,562.52 L 413.00,563.13 L 415.91,564.03 L 420.57,564.89 L 420.72,564.90 L 421.40,564.81 L 421.80,564.74 L 422.87,564.51 L 424.02,564.24 M 528.22,571.81 L 527.65,571.62 L 526.39,570.99 L 525.75,570.65 L 524.38,569.77 L 523.00,568.83 L 520.20,566.46 L 518.85,565.22 L 516.52,562.63 L 515.99,561.99 L 515.12,560.76 L 514.16,559.04 L 514.01,558.69 L 513.74,557.83 L 513.61,557.37 L 513.38,556.21 L 513.27,555.59 L 513.08,554.07 L 512.99,553.25 L 512.84,551.27 L 512.76,550.22 L 512.63,547.72 L 512.57,546.39 L 512.47,543.27 L 512.41,541.63 L 512.32,537.82 L 512.20,531.25 L 511.79,507.00 L 516.26,507.00 L 520.72,507.00 L 521.29,528.75 L 521.36,531.74 L 521.59,537.49 L 521.72,540.27 L 522.01,545.19 L 522.08,546.35 L 522.24,548.40 L 522.32,549.38 L 522.48,551.04 L 522.56,551.81 L 522.72,553.00 L 522.95,554.18 L 523.32,555.41 L 524.83,557.71 L 528.23,560.93 L 529.17,561.63 L 530.68,562.58 L 531.42,563.00 L 532.91,563.51 L 533.71,563.72 L 535.69,563.91 L 536.24,563.95 L 537.53,563.98 L 539.78,564.00 L 540.62,564.00 L 542.05,563.98 L 542.73,563.97 L 543.89,563.91 L 545.00,563.84 L 546.70,563.49 L 547.50,563.28 L 549.00,562.54 L 551.59,560.83 L 552.35,560.28 L 553.62,559.20 L 554.22,558.66 L 555.18,557.56 L 555.62,557.01 L 556.29,555.87 L 556.99,554.08 L 557.06,553.83 L 557.19,552.92 L 557.26,552.39 L 557.38,550.97 L 557.44,550.21 L 557.55,548.35 L 557.60,547.38 L 557.70,545.16 L 557.74,544.01 L 557.82,541.50 L 557.86,540.22 L 557.91,537.48 L 557.99,528.75 L 558.00,507.00 L 562.50,507.00 L 567.00,507.00 L 567.00,539.56 L 567.00,572.11 L 562.76,571.81 L 561.92,571.75 L 560.67,571.57 L 560.11,571.46 L 559.32,571.15 L 558.98,570.98 L 558.55,570.49 L 558.20,569.50 L 558.02,568.35 L 557.68,566.83 L 557.50,566.19 L 557.07,565.60 L 556.82,565.40 L 556.15,565.62 L 554.72,566.73 L 554.11,567.29 L 552.21,568.65 L 549.28,570.39 L 548.77,570.65 L 547.39,571.10 L 546.65,571.32 L 544.89,571.69 L 543.07,572.03 L 538.86,572.42 L 536.76,572.57 L 532.78,572.50 L 531.84,572.45 L 530.21,572.26 L 529.43,572.14 M 313.00,526.50 L 313.00,481.00 L 345.50,481.00 L 378.00,481.00 L 378.00,485.50 L 378.00,490.00 L 350.50,490.00 L 323.00,490.00 L 323.00,506.00 L 323.00,522.00 L 341.00,522.00 L 359.00,522.00 L 359.00,526.50 L 359.00,531.00 L 341.00,531.00 L 323.00,531.00 L 323.00,551.50 L 323.00,572.00 L 318.00,572.00 L 313.00,572.00 L 313.00,526.50 M 467.00,539.50 L 467.00,507.00 L 472.00,507.00 L 472.61,507.00 L 473.62,507.01 L 474.09,507.02 L 474.84,507.06 L 475.54,507.11 L 476.33,507.40 L 476.65,507.59 L 476.91,508.29 L 477.00,510.00 L 477.00,510.91 L 477.12,512.06 L 477.22,512.53 L 477.67,512.81 L 477.95,512.85 L 478.93,512.28 L 479.21,512.09 L 479.91,511.55 L 481.17,510.51 L 481.67,510.09 L 482.88,509.29 L 483.52,508.90 L 484.95,508.18 L 486.41,507.49 L 489.62,506.43 L 491.22,505.97 L 494.23,505.52 L 494.93,505.46 L 496.19,505.48 L 497.77,505.75 L 498.32,505.93 L 499.15,506.36 L 499.51,506.59 L 500.03,507.20 L 500.25,507.54 L 500.54,508.46 L 500.81,510.33 L 501.12,514.00 L 496.31,514.02 L 494.74,514.03 L 491.69,514.55 L 490.19,514.88 L 487.36,516.03 L 485.98,516.67 L 483.48,518.40 L 480.18,521.60 L 477.00,525.46 L 477.00,548.73 L 477.00,572.00 L 472.00,572.00 L 467.00,572.00 L 467.00,539.50 M 584.00,539.50 L 584.00,507.00 L 588.50,507.00 L 589.62,507.00 L 591.10,507.06 L 591.73,507.11 L 592.44,507.45 L 592.72,507.67 L 592.93,508.51 L 593.00,510.59 L 593.00,514.18 L 596.25,511.44 L 597.43,510.45 L 599.73,508.91 L 600.89,508.22 L 603.29,507.23 L 604.52,506.80 L 607.20,506.30 L 611.72,506.02 L 613.41,506.03 L 616.72,506.51 L 618.36,506.83 L 621.49,507.92 L 623.02,508.53 L 625.87,510.18 L 629.74,513.24 L 632.98,516.37 L 635.24,514.31 L 636.57,513.09 L 639.32,511.07 L 640.71,510.12 L 643.56,508.64 L 644.99,507.97 L 647.93,507.04 L 652.44,506.26 L 654.45,506.10 L 658.07,506.22 L 659.82,506.36 L 662.98,507.11 L 664.51,507.56 L 667.31,508.95 L 671.21,511.80 L 672.07,512.58 L 673.50,513.97 L 674.16,514.65 L 675.24,516.04 L 675.74,516.76 L 676.53,518.40 L 676.89,519.27 L 677.43,521.41 L 677.68,522.56 L 678.03,525.43 L 678.11,526.20 L 678.25,527.93 L 678.31,528.83 L 678.41,530.83 L 678.46,531.86 L 678.54,534.16 L 678.58,535.35 L 678.64,537.98 L 678.67,539.34 L 678.73,542.33 L 678.81,547.25 L 679.18,572.00 L 674.72,572.00 L 670.27,572.00 L 669.80,548.64 L 669.78,547.25 L 669.72,544.71 L 669.70,543.47 L 669.65,541.23 L 669.62,540.14 L 669.57,538.17 L 669.55,537.22 L 669.49,535.51 L 669.44,533.86 L 669.31,531.22 L 669.24,529.99 L 669.08,528.07 L 668.98,527.19 L 668.76,525.81 L 668.63,525.17 L 668.32,524.14 L 667.02,521.53 L 666.37,520.47 L 664.49,518.58 L 663.49,517.69 L 661.09,516.21 L 659.85,515.54 L 657.20,514.62 L 653.22,514.02 L 652.12,514.01 L 649.88,514.39 L 648.76,514.64 L 646.48,515.52 L 645.34,516.02 L 643.06,517.39 L 639.68,519.98 L 636.00,523.21 L 636.00,547.60 L 636.00,572.00 L 631.64,572.00 L 627.27,572.00 L 626.79,549.25 L 626.77,547.95 L 626.71,545.56 L 626.69,544.39 L 626.64,542.27 L 626.58,540.20 L 626.48,536.79 L 626.42,535.19 L 626.29,532.58 L 626.22,531.36 L 626.05,529.40 L 625.96,528.49 L 625.74,527.02 L 625.63,526.33 L 625.34,525.19 L 624.15,522.27 L 623.57,521.14 L 622.22,519.30 L 621.51,518.45 L 619.79,517.09 L 618.88,516.47 L 616.69,515.53 L 612.72,514.47 L 611.22,514.19 L 608.48,514.11 L 607.14,514.15 L 604.63,514.74 L 603.39,515.13 L 601.00,516.42 L 597.41,519.19 L 593.00,523.25 L 593.00,547.63 L 593.00,572.00 L 588.50,572.00 L 584.00,572.00 L 584.00,539.50 M 137.25,544.29 L 136.54,544.16 L 135.66,543.84 L 135.31,543.65 L 135.16,543.02 L 135.18,542.64 L 135.78,541.45 L 135.98,541.10 L 136.52,540.26 L 137.54,538.73 L 140.07,535.00 L 187.79,534.88 L 191.07,534.87 L 197.42,534.85 L 200.56,534.83 L 206.52,534.79 L 209.44,534.76 L 214.87,534.71 L 217.51,534.68 L 222.26,534.61 L 224.55,534.58 L 228.50,534.50 L 230.36,534.47 L 233.36,534.39 L 234.04,534.37 L 235.21,534.32 L 235.76,534.30 L 236.65,534.26 L 237.05,534.24 L 237.64,534.20 L 238.15,534.13 L 238.48,534.05 L 238.98,533.84 L 239.18,533.69 L 239.30,533.10 L 239.29,532.72 L 238.87,531.42 L 238.72,531.04 L 238.30,530.08 L 238.07,529.57 L 237.45,528.33 L 237.12,527.67 L 236.29,526.10 L 235.85,525.27 L 234.79,523.33 L 234.23,522.31 L 232.92,519.96 L 232.23,518.73 L 230.65,515.93 L 229.82,514.47 L 227.95,511.18 L 226.97,509.47 L 224.78,505.65 L 223.64,503.67 L 221.12,499.28 L 216.93,492.00 L 215.03,488.69 L 211.54,482.63 L 209.84,479.68 L 206.74,474.29 L 205.24,471.68 L 202.50,466.93 L 201.18,464.63 L 198.78,460.47 L 197.62,458.45 L 195.53,454.83 L 194.52,453.08 L 192.71,449.95 L 191.84,448.44 L 190.28,445.75 L 189.54,444.46 L 188.21,442.17 L 187.57,441.07 L 186.44,439.13 L 185.90,438.20 L 184.94,436.57 L 184.48,435.78 L 183.66,434.40 L 183.27,433.74 L 182.57,432.57 L 181.89,431.44 L 180.77,429.60 L 179.22,427.10 L 175.83,421.70 L 173.88,424.60 L 173.61,425.00 L 172.76,426.39 L 172.29,427.16 L 171.14,429.12 L 167.30,435.91 L 162.66,444.32 L 160.34,441.41 L 159.70,440.61 L 158.69,438.47 L 158.48,437.93 L 158.19,436.89 L 158.00,435.49 L 158.00,435.28 L 158.19,434.55 L 158.31,434.14 L 158.72,433.07 L 158.95,432.49 L 159.55,431.12 L 159.87,430.40 L 160.62,428.79 L 161.41,427.13 L 163.34,423.34 L 164.33,421.41 L 166.49,417.41 L 167.57,415.43 L 169.71,411.68 L 170.75,409.87 L 172.62,406.83 L 173.05,406.13 L 173.84,404.94 L 174.21,404.39 L 174.84,403.54 L 175.14,403.16 L 175.58,402.70 L 176.02,402.51 L 176.07,402.55 L 176.35,402.90 L 176.51,403.12 L 176.99,403.83 L 177.26,404.23 L 177.94,405.31 L 178.30,405.89 L 179.19,407.33 L 179.65,408.09 L 180.73,409.87 L 181.30,410.81 L 182.57,412.95 L 183.24,414.06 L 184.71,416.55 L 185.47,417.83 L 187.13,420.66 L 187.98,422.12 L 189.84,425.28 L 190.78,426.91 L 192.82,430.41 L 193.87,432.20 L 196.09,436.04 L 197.23,438.00 L 199.64,442.16 L 200.87,444.29 L 203.46,448.78 L 204.78,451.06 L 207.55,455.88 L 208.95,458.32 L 211.90,463.45 L 216.52,471.50 L 218.96,475.76 L 224.17,484.84 L 226.78,489.38 L 231.87,498.24 L 233.11,500.39 L 235.46,504.48 L 236.61,506.47 L 238.73,510.15 L 239.75,511.92 L 241.56,515.05 L 243.84,519.00 L 245.15,521.27 L 247.72,525.73 L 248.98,527.91 L 251.26,531.86 L 251.80,532.80 L 252.77,534.49 L 253.24,535.31 L 254.05,536.72 L 254.43,537.38 L 255.04,538.46 L 255.70,539.62 L 258.03,543.74 L 254.89,544.37 L 254.78,544.39 L 254.26,544.43 L 253.95,544.45 L 253.04,544.49 L 252.54,544.51 L 251.27,544.55 L 250.59,544.56 L 248.99,544.60 L 248.15,544.61 L 246.24,544.64 L 245.25,544.65 L 243.06,544.68 L 240.80,544.71 L 235.56,544.75 L 232.83,544.77 L 226.80,544.80 L 223.71,544.81 L 217.10,544.83 L 213.75,544.84 L 206.77,544.85 L 203.26,544.86 L 196.13,544.85 L 192.56,544.85 L 185.48,544.84 L 181.97,544.83 L 175.15,544.81 L 171.79,544.79 L 165.44,544.76 L 162.34,544.74 L 156.67,544.70 L 153.94,544.67 L 149.15,544.62 L 148.02,544.60 L 145.96,544.57 L 144.97,544.56 L 143.20,544.53 L 142.36,544.51 L 140.91,544.47 L 140.23,544.46 L 139.13,544.42 L 138.62,544.40 L 137.90,544.36 L 137.58,544.34 Z" fill="rgba(255,255,255,1)"/>
  </g>
</svg>