<svg version="1.2" xmlns="http://www.w3.org/2000/svg" viewBox="0 0 1000 1000" width="1000" height="1000"><style>.a{fill:#0039bc}.b{fill:#0042d4}.c{fill:#0053bc}.d{fill:#0163da}</style><path fill-rule="evenodd" d="m125.5 489.7l0.2 0.1 0.6 0.5 0.6 0.5 1.4 1.8 0.7 0.9 1.2 1.9 0.2 0.4 0.4 0.8 0.2 0.9v0.1l-0.1 0.4-0.1 0.2-0.3 0.7-0.4 0.7-1 2-0.6 1.2-1.5 2.7-2.6 4.6-0.5 0.7-1.2 2.1-0.6 1.1-1.5 2.7-0.8 1.4-1.8 3.1-1 1.7-2 3.5-2 3.5-4.5 7.8-6.8 11.8-2.2 3.9-4.2 7.3-1 1.8-1.9 3.3-1 1.6-1.7 3-0.8 1.5-1.5 2.5-0.7 1.2-1.2 2-0.6 1-0.8 1.4-0.8 1.3-0.7 1.1-0.9 1.8-0.2 0.4-0.1 0.6v0.5l0.4 0.1h0.2 0.8 0.5l1.2 0.1h0.6 1.6 0.9l1.9 0.1h1.1 2.3 1.1 2.7 1.3 2.9l3 0.1h6.8 3.5 7.6 3.9 8.4 13.1 3.2 6 3 5.4 2.7l4.9-0.1h2.4 4.4 2.1 3.9l1.9-0.1h3.4 1.7l3-0.1h1.4 2.6l1.2-0.1h2.1l1.1-0.1h1.7 0.9l1.4-0.1h0.7l1.1-0.1 0.5-0.1 0.8-0.1h0.4l0.5-0.1 0.6-0.3-0.1-0.2-0.3-0.7-0.2-0.4-0.6-1.1-2.4-3.9-0.7-1.1-1.3-2-0.7-1-1.1-1.8-0.5-0.9-0.9-1.5-0.4-0.8-0.8-1.3-0.3-0.6-0.5-1.1-0.3-0.5-0.3-0.9-0.1-0.3-0.1-0.6 0.1-0.4 0.1-0.2 0.7-0.3 0.3-0.1 0.9-0.1 1-0.1 2.2 0.1 1.2 0.1 2 0.5 0.5 0.2 0.8 0.3 0.8 0.7 0.2 0.1 0.4 0.6 0.2 0.3 0.6 0.9 0.4 0.5 0.7 1.2 0.5 0.6 0.9 1.4 0.9 1.5 2.1 3.4 1.1 1.7 2.2 3.7 1.1 1.8 2.1 3.5 1 1.7 1.8 3 0.4 0.7 0.6 1.2 0.4 0.6 0.5 0.9 0.2 0.4 0.3 0.6 0.2 0.5v0.1h-0.4l-0.3 0.1h-1-0.5l-1.5 0.1h-0.8l-2 0.1h-1.1-2.4l-1.3 0.1h-2.9-1.5l-3.3 0.1h-1.7l-3.6 0.1h-1.9-4-2.1l-4.3 0.1h-2.2-4.6-2.4-4.9l-5 0.1h-10.6-16.7-5.7-11-5.4-10.1l-2.5-0.1h-4.8-2.3-4.5-2.2-4.2l-2.1-0.1h-3.8-1.9-3.5-1.7l-3.1-0.1h-1.5-2.6l-1.3-0.1h-2.3-1l-1.8-0.1h-0.8-1.2-0.6l-0.7-0.1h-0.2-0.2v-0.1l0.3-0.5 0.1-0.3 0.6-1.1 0.3-0.6 0.9-1.5 0.4-0.9 1.1-1.9 0.6-1 1.3-2.3 0.7-1.2 1.4-2.6 4.9-8.5 0.9-1.5 2-3.6 1.1-1.8 2.3-4 1.2-2.1 2.6-4.5 1.3-2.2 2.7-4.7 2.7-4.8 5.6-9.6 1.3-2.4 2.7-4.6 3.8-6.6 1.2-2.1 2.3-4 1.1-2 2.2-3.8 1.1-1.8 2-3.5 0.9-1.6 1.7-3 0.9-1.4 1.4-2.4 0.7-1.2 1-1.8 0.5-0.8 0.7-1.2 0.5-0.8 0.1-0.1m297.6 16.2l2.9 0.4 1.5 0.3 2.9 0.8 1.4 0.4 2.8 1.2 1.4 0.6 2.6 1.6 1.3 0.9 2.4 2 1.2 1 2.2 2.4 1.1 1.2 1.9 2.8 2.5 4.6 0.5 1 0.7 2.1 0.4 1.1 0.5 2.3 0.4 2.3 0.3 4.8v2.5l-0.8 4.7-0.2 1.2-0.6 2.2-1.3 3.2-0.8 1.9-2.5 3.7-1.3 1.8-3.1 3.3-1.6 1.5-3.5 2.6-0.9 0.6-1.8 1-2.7 1.2-1.8 0.7-4.1 0.8-2 0.4-4.3 0.1h-2.1l-4.1-0.5-2.1-0.3-3.6-1.2-1.3-0.5-2.4-1.2-1.2-0.6-2.2-1.5-1.1-0.8-2-1.8-1-1-1.8-2-0.8-1.1-1.6-2.3-0.8-1.2-1.3-2.5-0.6-1.3-1.1-2.7-1.2-4.2-0.4-1.8-0.3-3.6-0.1-1.8 0.4-3.7 0.2-1.9 1-3.7 2.3-5.6 0.8-1.6 1.8-2.8 1-1.4 2.1-2.5 1.1-1.2 2.4-2 1.2-1 2.6-1.6 1.3-0.7 2.8-1.3 1.3-0.5 2.9-0.9 1.4-0.3 3-0.4 1.5-0.2h2.9zm93.8 1.5l4.5 0.3 0.3 22v1.5 2.9l0.1 1.4v2.6 1.2l0.1 2.3v1.1l0.2 1.9 0.1 1.9 0.3 3.2 0.1 1.4 0.5 2.4 0.3 1 0.7 1.8 0.4 0.8 1 1.4 0.5 0.6 1.4 1.2 2.4 1.7 0.8 0.5 1.5 0.9 0.7 0.3 1.5 0.5 0.8 0.2 1.8 0.1 3.6 0.2h1.5l2.2-0.2h1l1.6-0.4 0.8-0.2 1.5-0.7 2.5-1.6 1.2-0.8 2.2-2 0.5-0.5 0.8-1 0.9-1.2 0.1-0.2 0.1-0.7 0.2-0.4 0.1-1.1 0.1-0.6 0.1-1.5 0.1-0.8 0.1-2 0.1-1v-2.4l0.1-1.3v-2.9-1.6l0.1-3.4v-5.8-23.2h9v65h-5.6l-1.5-0.1-0.6-0.1-0.7-0.3-0.3-0.2-0.2-0.8-0.1-2v-1.1l-0.2-1.3-0.1-0.6-0.5-0.4h-0.3l-0.9 0.5-1.9 1.8-0.7 0.7-1.6 1.1-0.9 0.6-2.1 0.9-1.1 0.5-2.4 0.7-1.3 0.3-2.6 0.4-1.3 0.1-2.7 0.2h-1.3l-2.6-0.2-1.3-0.1-2.4-0.5-1.2-0.3-2.2-0.8-0.5-0.3-1.4-0.7-0.6-0.4-1.5-1-3.7-3.2-0.8-0.7-1.2-1.5-0.6-0.8-0.9-1.6-0.5-0.8-0.7-1.9-0.3-1-0.5-2.4-0.3-1.2-0.3-3.1-0.2-1.6-0.2-3.9v-1l-0.1-2.3v-1.1-2.6l-0.1-1.3v-2.8-4.6-22.4zm-18.9-1.6l0.8 0.2 1.1 0.3 0.5 0.1 0.5 0.6 0.2 0.3 0.2 0.9 0.1 2.2v3.8h-6.7l-2.9 0.4-1.4 0.3-2.5 0.9-1.2 0.6-2.3 1.6-3.3 3.3-3.7 4.3v46.6h-10v-65h10v4.5l0.2 1.4 0.1 0.5 0.4 0.5 0.2 0.1 0.7-0.4 1.2-1.5 0.3-0.5 0.9-1 0.5-0.5 1.3-0.9 1.4-0.9 3.3-1.4 1.7-0.6 3.6-0.7 0.8-0.1 1.7-0.1zm-119.6-15.5l-54.5-0.2-0.2 16.1-0.3 16h36v9h-36v41h-10v-91h65zm234.8 15.8h1.6l3.1 0.6 1.6 0.3 3 1.2 1.4 0.6 2.7 1.7 3.7 3.1 3.4 3.5 2.4-2.9 0.3-0.4 1.1-0.9 0.5-0.5 1.4-1 4.6-2.7 1.2-0.6 1.9-0.8 1-0.4 1.7-0.4 1-0.1 2.1-0.1h0.6 1.4l2.4 0.2h0.8l1.5 0.1 0.7 0.1 1.2 0.1 1.1 0.1 1.8 0.5 0.9 0.2 1.5 0.7 2.4 1.5 1.1 0.9 2.1 1.8 1 1 1.6 2 0.8 1.1 1.3 2.2 1.3 3.6 0.1 0.2 0.1 0.9 0.1 0.5 0.1 1.5 0.1 0.8 0.1 1.9v1.1l0.1 2.3 0.1 1.2 0.1 2.6v1.4 2.9l0.1 9.3v23.3h-8.9l-0.3-23.3v-1.3-2.4-1.2l-0.1-2.2v-2.1l-0.1-3.4v-1.6l-0.1-2.7-0.1-1.2-0.1-2-0.1-0.9-0.2-1.4-0.1-0.7-0.3-1-1.1-2.5-0.7-1.2-1.5-1.9-0.8-0.9-1.8-1.4-0.9-0.7-2.1-0.9-3.4-0.8-1.7-0.2-2.8-0.1-1.4 0.1-2.5 0.6-1.3 0.4-2.3 1.2-3.7 2.8-4.6 4v48.9h-8.9l-0.3-22.8v-2.5l-0.1-4.2v-2l-0.1-3.3v-1.6l-0.2-2.6v-1.3l-0.1-2-0.1-0.9-0.2-1.5-0.1-0.7-0.3-1.2-1-2.7-0.6-1.3-1.6-2.1-0.8-1-2-1.5-1.1-0.7-2.4-1.1-4.1-0.8-1.6-0.2-2.8 0.2-1.4 0.1-2.5 0.7-1.3 0.5-2.4 1.3-3.4 2.8-3.6 3.5v48.9h-9v-65h9v7.3l2.8-2.6 1.1-1.1 2.5-1.7 1.4-0.8 2.8-1.1 1.5-0.5 3-0.5 1.6-0.2zm-194.4 8.4l-1.2 0.2-2.3 0.5-1.2 0.3-2.2 0.9-1.1 0.5-2 1.2-2.9 2.3-1 0.9-1.7 1.9-0.8 1-1.4 2.1-0.7 1.1-1 2.2-0.5 1.2-0.7 2.4-0.3 1.2-0.4 2.5-0.1 1.2v2.6 1.3l0.4 2.6 0.9 4 0.2 0.8 0.7 1.6 0.4 0.8 1.1 1.6 1.1 1.6 2.9 3.1 1.6 1.5 3.2 2.4 0.8 0.5 1.6 0.8 2.3 0.8 1.4 0.4 2.9 0.2 1.5 0.1 2.9-0.1 1.4-0.2 2.7-0.6 1.4-0.4 2.4-1.1 1.1-0.6 1.9-1.3 0.9-0.6 1.7-1.6 0.8-0.8 1.4-1.7 0.7-0.9 1.2-1.9 0.6-0.9 0.9-2 0.4-1.1 0.7-2.1 0.6-2.1 0.4-4.5v-2.2l-0.6-4.4-0.2-1.1-0.6-2.1-0.4-1.1-0.9-2-0.5-1-1.1-1.8-0.7-1-1.4-1.7-0.7-0.8-1.7-1.5-2.9-2-1.1-0.6-2.2-1-1.2-0.5-2.3-0.6-1.2-0.2-2.4-0.2-1.2-0.1zm-242.3-112.1l0.5 0.7 0.3 0.5 0.9 1.5 0.5 0.8 1.4 2.2 0.7 1.1 1.7 2.8 0.8 1.5 2 3.3 1 1.7 2.2 3.8 1.1 1.9 2.4 4.1 3.7 6.4 2.4 4.2 4.6 8 2.2 3.9 4.3 7.5 2.1 3.6 4 7 2 3.4 3.7 6.5 1.8 3.2 3.4 5.9 1.7 2.9 3.1 5.5 1.6 2.6 2.8 5 1.4 2.4 2.6 4.5 1.2 2.2 2.3 3.9 1.1 2 2.1 3.4 0.9 1.7 1.8 3 0.8 1.4 1.4 2.5 0.7 1.2 1.2 2 0.6 1 0.9 1.5 1 1.8 0.6 1 0.7 1.1 1 1.9 0.2 0.4 0.3 0.7 0.2 0.7-0.2 0.1-0.2 0.1h-0.5l-0.3 0.1-0.9 0.1h-0.5-1.2l-0.6 0.1h-1.6l-0.8 0.1h-1.8l-0.9 0.1h-2.2-1.1l-2.5 0.1h-1.3-2.8-1.4l-3.1 0.1h-1.6-3.5-1.7l-3.8 0.1h-1.9-4.1-2.1-4.4-2.3-4.7-16.2-2.8-5.2-2.5-4.6-2.3-4.2l-2-0.1h-3.6-1.8-3.3-1.5l-2.8-0.1h-1.4-2.4l-1.2-0.1h-2-1l-1.6-0.1h-0.8l-1.4-0.1h-0.6l-1.1-0.1-0.4-0.1-0.8-0.1h-0.3l-0.5-0.1-0.5-0.1-0.2-0.2v-0.2l0.2-0.6 0.2-0.4 0.4-0.8 1.8-3 2.5-3.8h57.9 2.3 4.3 2.1 3.8 1.9 3.4 1.7l3-0.1h1.5 2.6 1.3l2.3-0.1h1.1 1.9l0.9-0.1h1.7 0.7l1.4-0.1h0.6l1.1-0.1 0.5-0.1h0.7l0.8-0.1 0.8-0.2 0.3-0.4v-0.1l-0.3-0.6-0.2-0.4-0.7-1.1-1.2-2.3-0.5-0.8-1.1-2-0.6-1.1-1.4-2.4-0.7-1.2-1.5-2.6-4.9-8.6-0.9-1.5-2.1-3.6-1.1-1.9-2.4-4.2-1.2-2.1-2.7-4.7-1.3-2.3-2.9-5-2.9-5-5.9-10.3-1.4-2.5-2.9-5-4.1-7.1-1.3-2.3-2.5-4.4-1.3-2.2-2.3-4-1.2-2-2.1-3.7-1.1-1.8-1.9-3.1-0.9-1.5-1.5-2.6-0.8-1.2-1.1-1.9-0.6-0.8-0.7-1.1-0.6-0.7-0.3 0.3-0.1 0.1-0.4 0.5-0.4 0.6-1.2 1.8-0.6 1-1.5 2.5-2.5 4.3-6.3 11.2-2.3-2.9-0.5-0.7-0.9-1.1-0.4-0.6-0.5-1-0.2-0.6-0.2-1.1-0.1-0.5 0.2-1.3 0.1-0.6 0.6-1.6 0.3-0.8 1-2 0.5-1.1 1.4-2.5 2.7-4.6 1-1.8 2-3.4 1-1.7 1.8-3.1 0.8-1.5 1.3-2.3 0.3-0.5 0.5-0.9 0.5-0.9 0.4-0.9 1-1.3 0.2-0.3 0.5-0.3 0.4-0.2z"/><path fill-rule="evenodd" class="a" d="m820.1 528.1v6.9 4.1 1.9 3.6 1.6 3.2 1.3 2.7l0.1 1.2v2.2 1l0.1 1.9v0.8 1.5l0.1 0.7 0.1 2.3 0.1 0.9 0.3 1.4 0.1 0.5 0.4 0.8 0.2 0.3 0.4 0.6 0.3 0.3 1.4 1.2 0.8 0.4 1.1 0.3-5.5 0.4v-41.7-4.8m-718.6-97.6l0.1 0.5v1.1l-0.4 1.1-0.3 0.8-0.7 1.5-0.5 0.9-1 1.9-0.5 1-1.6 2.6-0.9 1.6-0.4 0.7-0.6 1.2-0.2 0.5-0.2 0.7-0.3 1-0.6 1-0.5 0.5-0.8 1.2-0.7 1.1-0.4 0.7-1.7 2.9-0.7 1.5-2.4 4.3-0.7 1.3-0.3 0.4-0.6 0.9-0.2 0.2-1 1.4-0.4 0.8v0.3l-0.3 0.6-0.3 0.7-0.3 0.5-1.3 1.9-0.8 1.1-2.1 3.1-0.5 0.9-0.2 0.4-0.2 0.6v0.1l-0.2 0.7-0.2 0.6-0.2 0.3-0.9 1.5-0.5 0.7-1.1 1.5-0.9 1.5-0.5 0.8-2.1 3.7-1 1.9-1.7 3.3-1.1 2-0.5 0.9-0.9 1.8-0.4 0.7-0.8 1.5-0.4 0.7-0.7 1.2-0.2 0.5-0.6 1-0.2 0.4-0.4 0.6-0.2 0.2-0.2 0.4-0.1 0.1-0.8 0.9-0.7 1-0.4 0.6-1.8 2.8-0.9 1.4-0.9 1.5-0.4 0.7-0.7 1.4-0.4 0.6-0.5 1-0.2 0.4-0.3 0.7v0.1l-0.3 0.8-0.4 0.8-0.3 0.6-1.4 2.3-1 1.3-1.4 2.1-1.1 1.7-0.5 1-2.2 3.9-1 2-0.9 2-0.4 0.9-0.8 1.7-0.3 0.8-0.6 1.5-0.1 0.6-0.3 1v0.3l0.6 1.3 1 0.6 0.8 0.2 1.9 0.4h1.3l1.4 0.1h0.7 1.7l0.9-0.1h2.8l1.7-0.1 0.7 0.1h1.2 0.5l0.9 0.1h0.3l0.4 0.1 0.1 0.1v0.1l-0.1 0.1-0.4 0.2-0.4 0.1-0.9 0.2-0.6 0.1-0.7 0.1-0.2 0.1-0.3 0.1h-0.1l-0.1 0.1 0.1 0.1h0.2 0.2l0.5 0.1h0.4l0.8 0.1h0.5 1.2 0.7 1.4 0.9 2.3 1.3 0.6l1-0.1h0.3 0.7l0.2-0.1h0.4 0.1v-0.1l-0.1-0.1-0.2-0.1h-0.2l-0.5-0.1-0.4-0.1-1.5-0.3-0.8-0.2-0.2-0.1-0.5-0.1-0.1-0.1v-0.1h0.1l1.3-0.3 1.1-0.2 0.5-0.1 1.3-0.5 0.8-0.6 0.4-0.3 0.6-0.7 0.2-0.4 0.3-0.8v-0.4l-0.7-0.3-1-0.2-0.7-0.1-1.7-0.2h-0.9l-2.1-0.2h-1.1l-3.8-0.2-1.9-0.2-0.6-0.1-1.1-0.3-0.3-0.2-0.4-0.3 0.1-0.3-0.3-0.8-0.6-0.4h-0.4l-1-0.7 0.3 0.1 0.5 0.1 1.8 0.2 0.5 0.1h1.2l0.7 0.1h1.5l0.8 0.1h1.7 3 1.7 3.2l1.5 0.1h2.4l1.2 0.1 1.5 0.1h0.3 0.4l0.3 0.1v0.2l-0.2 0.4-0.1 0.3-0.4 0.8-0.4 0.8-1.2 2-0.7 1-1.2 1.8-0.3 0.4-0.4 0.6-0.6 0.5-0.1 0.1-0.5 0.1-0.4 0.1-1 0.1-0.6 0.1h-1.3l-0.8 0.1h-1.7l-1.7 0.1-4.1 0.1h-2.2-4.4-2.3l-4.3-0.1-2-0.1-3.6-0.1-0.8-0.1-1.5-0.1h-0.6l-1.1-0.1-0.5-0.1-0.6-0.1-0.3-0.1-0.1-0.1v-0.1l0.1-0.3 0.1-0.2 0.3-0.6 0.2-0.6 1-1.8 0.5-1 1.3-2.3 2.1-3.9 0.4-0.6 1-1.7 0.5-0.9 1.2-2.1 0.7-1.1 1.4-2.4 0.7-1.3 1.5-2.6 1.6-2.7 3.3-5.8 4.9-8.5 1.6-2.7 3-5.3 1.5-2.6 2.9-5 2.8-5 5.6-9.6 2.7-4.7 5.4-9.4 8.2-14.2 1.6-2.7 3.5-6.1 1.7-3 3.2-5.5zm1.1 16.8l-0.2 0.3-0.9 1.6-2.1 3.7-1.1 1.9-2.5 4.4-1.3 2.2-2.8 4.8-1.4 2.5-2.9 5.1-1.5 2.6-3.1 5.3-9.1 15.9-1.5 2.6-2.9 5-1.4 2.5-2.6 4.6-1.3 2.3-2.4 4.3-1.2 2-2 3.7-1 1.7-1.7 3-0.8 1.4-1.2 2.3-0.5 1-0.8 1.4-0.1 0.3-0.1 0.2v-0.1-0.8-1.7l0.2-1.1 0.5-2.2 0.4-1.2 0.8-1.8 0.5-0.9 0.2-0.2 0.7-0.4 0.3-0.1 0.8-0.1 0.6 0.1 0.3-0.5v-0.7l-0.1-0.5v-1l0.2-0.8 0.2-0.6 1-2.2 0.6-1.1 1.2-1.9 0.9-1.5 0.4-0.8 1.8-3.1 0.7-1.2 2.2-3.7 0.7-1 0.3-0.4 0.6-0.6 0.2-0.2 1.1-1.3 0.5-0.8v-0.2l0.3-1.1 0.5-1.1 0.3-0.8 0.8-1.6 0.4-0.9 0.9-1.8 0.5-0.9 0.9-1.8 0.5-0.9 0.9-1.7 0.4-0.7 0.7-1.3 0.3-0.4 0.6-0.7 0.1-0.1 0.5-0.6 0.4-0.7 0.3-0.4 1.1-2.2 0.5-1.2 2-3.9 0.7-1.2 0.3-0.6 0.7-0.9 0.2-0.4 1.3-1.8 1.1-1.8 0.7-1.1 1.4-2.3 0.7-1.3 1.5-2.5 0.8-1.3 1.5-2.6 0.7-1.2 1.2-2.4 0.6-0.9 0.9-1.8 0.3-0.7 0.3-0.5 0.1-0.2 0.1-0.4 0.6-1.2 0.8-0.9 0.5-0.4 1.1-0.7 0.5-0.1 0.8-0.2zm14.5-42.2l0.2 0.4 0.8 1.2 0.4 0.6 1 1.7 1.7 2.8 0.3 0.5 0.9 1.6 0.5 0.9 1.4 2.3 0.7 1.2 1.7 2.9 0.9 1.5 2 3.4 1 1.8 2.2 3.8 1.2 1.9 2.4 4.1 7.5 12.8 2 3.5 3.7 6.2 1.8 3.1 3.3 5.6 1.5 2.6 2.9 4.9 1.4 2.4 2.5 4.2 1.2 2.1 2.1 3.7 1.1 1.7 1.8 3.1 0.9 1.5 1.5 2.6 0.7 1.3 1.3 2.2 0.6 1 1 1.7 0.4 0.8 0.8 1.4 0.4 0.7 0.9 1.5 0.4 0.7 0.4 0.8 0.4 0.7 0.2 0.5v0.1l-0.4 0.1-0.3 0.1-0.7 0.1h-0.5l-1.1 0.1h-1.9-0.7-1.2-0.6l-1-0.2-0.5-0.1-0.9-0.5-0.4-0.3-0.9-0.9-0.5-0.5-1.1-1.5-0.6-0.8-1.4-2.2-0.7-1.2-1.8-3.1-0.5-0.8-1-1.8-1.8-3.1-0.5-0.9-1.2-2.1-0.7-1-1.3-2.3-1.4-2.3-2.9-5-1.4-2.5-2.9-4.9-0.7-1.2-1.3-2.2-1.8-3.1-0.5-0.9-1.3-2.2-0.6-1.1-1.4-2.3-1.4-2.4-0.6-0.9h0.1l0.7-0.1 0.7 0.4 0.3 0.3 1.7 2.1 1.3 1.7 0.5 0.9 1.1 1.5 0.3 0.6 0.2 0.5v0.2l0.1 0.2h-0.1l-0.1 0.2 0.1 0.2 0.1 0.2 0.6 0.9 0.6 0.5 0.9 1.1 0.6 1 0.4 0.6 1.5 2.4 0.6 1.2 1.2 2.2 1 1.8 0.7 1 2.5 4.3 1.2 1.9 4 6.3 1.2 2 0.6 0.9 1 1.7 0.4 0.6 2.5 4.1 1.3 2.3 0.6 0.9 1.1 1.7 0.5 0.6 0.8 1.1 0.3 0.4 0.7 0.6 0.2 0.2 0.5 0.1h0.2l0.4-0.2 0.1-0.3 0.4-0.5 0.1-0.4-0.1-0.5-0.1-0.6-0.2-0.3-0.3-0.9-0.3-0.5-0.5-1.2-0.3-0.6-1.3-2.8-0.9-1.7-1.7-3.4-1-1.8-4.1-7.8-2.1-3.7-2.1-3.7-1-1.6-1.8-3.2-0.9-1.3-1.9-3-0.6-1-0.2-0.4-0.5-0.8-0.1-0.3-0.4-0.6-0.4-0.7-0.3-0.4-0.5-1-0.3-0.5-0.7-1.2-0.4-0.7-1.6-2.8-1-1.6-1.9-3.3-1-1.7-2.8-4.9-1.7-2.9-0.6-1.2-0.6-1.2-0.2-0.5-0.5-0.9-0.2-0.4-0.3-0.6-0.1-0.2-0.1-0.4-0.1-0.6-0.4-0.2h-0.2l-0.7-0.3-0.3-0.5v-0.3l-0.2-0.7-0.3-0.7-0.2-0.4-1-1.6-0.7-0.9-1.1-1.6-0.9-1.4-0.5-0.8-2-3.3-0.8-1.5-2.7-4.8-1.5-2.6-0.6-1-1.1-1.8-0.5-0.6-1-1.2-0.4-0.3-0.8-0.5h-0.3-0.8l-0.3 0.2-0.8 0.6-0.4 0.4-0.9 1-0.5 0.6-2 1.8-0.6 0.4-0.2 0.1h-0.2l4-7 0.7-1.2 1.1-1.8 0.3-0.4 0.4-0.5 0.3-0.4h0.1zm782 97.6l0.1-0.5 0.4-1zm4.1-8.3l-1.1 1.7-0.5 1-1.8 3.7 0.9-2.3 0.5-1.1 1.2-1.9 0.6-0.9 0.7-0.8zm53.6-5.6l0.9 0.5 0.5 0.2-1.2-0.5-0.9-0.5zm-136.2 0v-0.2-0.6l0.1-0.5zm119.2-5.5l2.9 0.5 5.7 1.6 1.2 0.5h-0.1l-2.1-0.7-1-0.3-1.9-0.6-0.9-0.2-3.5-0.6-1.8-0.2h-0.8-1.6l-0.7 0.2-1.6 0.3-0.9 0.3-2.1 0.6-1.2 0.1-0.4 0.1-0.8-0.1h-0.3l-0.5-0.3-0.3-0.2-1.5-0.8-1.5-0.1-0.9 0.1h-0.5l0.7-0.1 2.6-0.5 5.4-0.2h2.8zm-821.8-57.7l0.5 0.3 1 0.9 0.7 0.6 2.9 3.2 0.9 1.3 0.4 0.6 0.8 1.2 0.3 0.5 1.7 2.9 0.5 0.8 0.2 0.3 0.4 0.4 0.2 0.1 0.4 0.6-0.1 0.2h-0.2l-0.2 0.2v0.3l0.1 0.2 0.6 0.9 0.6 0.7 2.6 3.4 1.7 2.8 0.7 1.4 1.2 2.7 0.4 1.1 0.3 1v0.5l0.1 0.8-0.1 0.2-0.2 1.2-2.2-3.9-1.5-2.5-2.9-4.9-0.7-1.2-1.3-2.3-1.8-3.1-1.2-1.9-2.1-3.6-1-1.7-1.7-2.8-0.4-0.7-0.6-1.1-0.4-0.5-0.5-0.8-0.1-0.3zm-2.7 0.4l-0.4 0.4-0.8 1.3-0.5 0.7-1.2 1.9-0.6 1-1.4 2.4-0.8 1.3-1.8 3.1-3.1 5.4-0.7 1.1-1.4 2.5-0.2-0.4-0.4-0.5-0.6-1.2v-0.5h0.3l1-0.8 0.8-1.1 0.3-0.7 1.1-1.6 0.3-0.3 0.2-0.1 0.3-0.1 0.1 0.1 0.5-0.3 0.2-0.8-0.1-0.6 0.2-2 0.4-1.2 0.3-0.4 0.8-1.3 0.4-1 0.1-0.3 0.3-0.8 0.3-0.7 0.3-0.3 1.2-1.6 0.6-0.7 1.3-1.4 0.5-0.4 0.5-0.4h0.1 0.2v0.2l0.5 0.2 0.6-0.2 0.4-0.4 0.4-0.2zm-5.9-8.6l-0.2 1.2-0.3 0.8-0.6 1.5-0.4 0.9-0.8 1.6-0.4 0.9-0.9 1.6-0.5 0.7-0.9 1.4-0.5 0.6-0.8 0.9-0.4 0.3-0.6 0.3-0.2-0.1h-0.3l0.5-0.8 7.2-12.7z"/><path class="b" d="m116.8 408.2l0.8 0.5 0.4 0.3 0.9 1.1 0.5 0.7 1.1 1.8 0.7 1 1.4 2.6 2.7 4.8 0.8 1.5 2 3.3 0.5 0.8 0.9 1.4 1.2 1.6 0.6 0.9 1 1.6 0.2 0.4 0.3 0.6 0.2 0.7v0.4l0.3 0.5 0.7 0.3h0.3l0.3 0.2 0.2 0.6h-0.1l0.2 0.4v0.2l0.3 0.6 0.2 0.4 0.5 0.9 0.2 0.5 0.6 1.1 0.7 1.2 1.6 3 2.8 4.9 1 1.7 1.9 3.3 1 1.6 1.6 2.8 0.4 0.7 0.7 1.1 0.3 0.6 0.6 0.9 0.2 0.5 0.4 0.6 0.4 0.7 0.1 0.3 0.5 0.8 0.3 0.4 0.6 0.9 1.9 3.1 0.8 1.3 1.9 3.2 0.9 1.6 2.1 3.7 2.1 3.7 4.1 7.7 1 1.9 1.8 3.4 0.8 1.7 1.3 2.8 0.3 0.6 0.5 1.1 0.3 0.6 0.3 0.8 0.2 0.4 0.2 0.6v0.5l-0.1 0.4-0.3 0.5-0.2 0.3-0.4 0.2h-0.2l-0.4-0.2-0.3-0.1-0.6-0.6-0.4-0.4-0.8-1.1-0.5-0.7-1-1.6-0.6-0.9-1.4-2.3-2.5-4.1-0.4-0.6-1-1.7-0.5-0.9-1.3-2-3.9-6.3-1.3-1.9-2.5-4.3-0.6-1-1.1-1.9-1.2-2.1-0.6-1.2-1.5-2.4-0.3-0.6-0.7-1-0.9-1.1-0.5-0.6-0.6-0.8-0.2-0.2-0.1-0.2 0.1-0.2h0.1v-0.2l-0.1-0.2-0.2-0.5-0.3-0.6-1-1.6-0.6-0.8-1.2-1.7-1.8-2.1-0.3-0.3-0.7-0.4h-0.7l-0.2 0.2-0.1-0.4 0.3-1.2v-0.3-0.8l-0.1-0.4-0.3-1.1-0.4-1.1-1.2-2.7-0.7-1.3-1.6-2.8-2.7-3.4-0.5-0.7-0.7-0.9-0.1-0.3v-0.2l0.2-0.2h0.2l0.1-0.2-0.4-0.6-0.2-0.1-0.4-0.5-0.2-0.2-0.5-0.8-1.7-2.9-0.3-0.5-0.7-1.2-0.4-0.6-1-1.3-2.9-3.2-0.7-0.6-1-0.9-0.5-0.3-0.7-0.4-0.4-0.1h-0.6l-0.9 0.5-0.3 0.3-0.7 0.2-0.4-0.2v-0.2h-0.2l-0.2 0.1-0.4 0.3-0.5 0.4-1.3 1.4-0.7 0.7-1.1 1.6-0.3 0.4-0.4 0.6-0.3 0.8v0.3l-0.4 1-0.9 1.3-0.2 0.4-0.5 1.3-0.1 1.9v0.6l-0.1 0.8-0.6 0.3-0.1-0.1-0.3 0.1-0.1 0.1-0.4 0.3-1.1 1.6-0.3 0.7-0.8 1.2-1 0.7h-0.2l-0.1 0.5 0.7 1.3 0.4 0.4 0.3 0.6h-0.2l-0.3-0.2-0.8 0.2-0.5 0.1-1.1 0.7-0.5 0.4-0.8 0.9-0.6 1.2-0.1 0.4-0.1 0.2-0.3 0.5-0.3 0.7-0.9 1.8-0.6 0.9-1.2 2.4-0.7 1.2-1.5 2.6-0.8 1.3-1.5 2.5-0.7 1.3-1.4 2.3-0.7 1.1-1.1 1.8-1.3 1.8-0.2 0.4-0.7 0.9-0.3 0.5-0.7 1.3-2 3.9-0.5 1.2-1.1 2.2-0.3 0.4-0.4 0.7-0.5 0.6-0.1 0.1-0.6 0.7-0.3 0.4-0.7 1.3-0.4 0.7-0.9 1.7-0.5 0.9-0.9 1.8-0.5 0.9-0.9 1.8-0.5 0.9-0.7 1.6-0.3 0.7-0.5 1.2-0.3 1v0.3l-0.5 0.8-1.1 1.3-0.2 0.1-0.6 0.7-0.3 0.4-0.7 1-2.2 3.6-0.7 1.3-1.8 3.1-0.4 0.8-0.9 1.5-1.2 1.9-0.6 1.1-1 2.2-0.2 0.6-0.2 0.8v1l0.1 0.5v0.7l-0.3 0.5-0.6-0.1-0.8 0.1h-0.3l-0.7 0.5-0.2 0.2-0.5 0.9-0.8 1.8-0.4 1.2-0.5 2.2-0.2 1.1v1.7 0.8l0.3 1 1 0.7h0.4l0.6 0.4 0.3 0.9-0.1 0.2 0.4 0.3 0.3 0.2 1.1 0.3 0.6 0.1 1.9 0.2 3.8 0.2h1.1l2.1 0.2h0.9l1.7 0.2 0.7 0.1 1 0.2 0.7 0.3v0.4l-0.3 0.8-0.2 0.4-0.7 0.7-0.3 0.3-0.8 0.6-1.3 0.5-0.5 0.1-1.1 0.2-1.3 0.3h-0.1v0.1l0.1 0.1 0.5 0.1 0.2 0.1 0.8 0.2 1.5 0.3 0.4 0.1 0.5 0.1h0.2l0.2 0.1 0.1 0.1-0.1 0.1h-0.4l-0.2 0.1h-0.7-0.3l-1 0.1h-0.6-1.3-2.3-0.9-1.4-0.7-1.2-0.5l-0.8-0.1h-0.4l-0.5-0.1h-0.2-0.2l-0.1-0.1 0.1-0.1h0.1l0.3-0.1 0.2-0.1 0.7-0.1 0.6-0.1 0.9-0.2 0.4-0.1 0.4-0.2 0.1-0.1v-0.1l-0.1-0.1-0.4-0.1h-0.3l-0.9-0.1h-0.5-1.2-0.7-1.7-2.8l-0.9 0.1h-1.7-0.7l-1.4-0.1h-1.3l-1.9-0.4-0.8-0.2-1-0.6-0.6-1.3v-0.3l0.3-1 0.1-0.6 0.6-1.5 0.3-0.7 0.8-1.8 0.4-0.9 0.9-2 1-2 2.2-3.9 0.5-0.9 1.1-1.8 1.4-2.1 0.9-1.3 1.5-2.3 0.3-0.6 0.4-0.8 0.3-0.8v-0.1l0.3-0.7 0.2-0.4 0.5-1 0.4-0.6 0.7-1.4 0.4-0.7 0.9-1.4 0.9-1.5 1.8-2.8 0.4-0.6 0.7-1 0.8-0.9 0.1-0.1 0.2-0.3 0.2-0.3 0.4-0.6 0.2-0.4 0.6-1 0.2-0.5 0.7-1.2 0.4-0.7 0.8-1.5 0.4-0.7 0.9-1.8 0.5-0.9 1.1-2 1.7-3.3 1-1.9 2.1-3.7 0.5-0.8 0.9-1.5 1.1-1.5 0.5-0.7 0.9-1.5 0.2-0.3 0.2-0.6 0.2-0.7v-0.1l0.2-0.6 0.2-0.4 0.5-0.8 2.1-3.2 0.8-1 1.3-2 0.2-0.5 0.4-0.6 0.3-0.7v-0.3l0.4-0.8 1-1.4 0.2-0.2 0.6-0.9 0.3-0.4 0.7-1.2 2.4-4.4 0.7-1.5 1.7-2.9 0.4-0.7 0.7-1.1 0.8-1.2 0.4-0.5 0.7-1 0.3-1 0.2-0.7 0.2-0.5 0.6-1.2 0.4-0.7 0.9-1.6 1.6-2.6 0.5-1 1-1.9 0.5-0.8 0.7-1.6 0.3-0.7 0.4-1.2v-1.1l-0.1-0.5v-0.5l0.4-0.1 0.2 0.2 0.7-0.4 0.3-0.2 0.9-1 0.4-0.5 0.9-1.4 0.5-0.7 0.9-1.7 0.5-0.8 0.8-1.7 0.3-0.8 0.6-1.6 0.3-0.7 0.2-1.2-0.1-1.3-0.1-0.3-0.1-0.3 0.4 0.2 0.1 0.1 0.4-0.1h0.2l0.5-0.4 2-1.9 0.5-0.6 0.9-0.9 0.4-0.5 0.8-0.5 0.4-0.2 0.7-0.1z"/><path fill-rule="evenodd" class="c" d="m801.2 555.7l3 2.8-3.6 3.1-1.5 1.3-3.4 2.3-1.7 1.1-3.7 1.9-1.9 0.9-3.9 1.4-2 0.6-4.1 0.9-2.1 0.4-4.1 0.4-2.1 0.2-4.2-0.1-2-0.1h-0.1l1-0.2 0.7-0.1 3.3-0.6 1.7-0.4 5-1 1.5-0.3h0.6l1.2-0.2h0.3l1.9-0.3 1.6-0.6 1-0.3 2-0.9 1.1-0.5 2.2-1 1.1-0.6 2.1-1.1 1-0.6 2-1.1 0.8-0.5 1.5-1.1 0.6-0.4 0.9-0.9 0.2-0.3 0.6-1.9-0.2-0.9-0.4-0.3-0.9-0.3-0.6 0.1-1.5 0.4-0.9 0.5-2.4 1.4-0.6 0.5-0.2 0.2-0.4 0.3-0.1 0.2-1.1 0.8-1.3 0.7-0.8 0.3-1.9 0.7-1.1 0.3-2.2 0.7-1.3 0.3-5 1.2-2.4 0.4-2.4 0.3-1.1 0.1-2.1 0.2h-0.9l-5.5-0.4-3.2-0.5-1.3-0.4-1.2-0.5-0.5-0.2-0.8-0.4-0.3-0.3-0.5-0.5-0.1-0.3-0.1-0.5 0.2-0.2 0.1-0.3 0.9 0.3 1.1 0.5 2.3 0.6 1.1 0.2 2.6 0.4h0.7l1.6 0.2 2.7 0.1 1.3 0.1h2.5 1.2l2.2-0.1 2.1-0.2 3.7-0.8 1.8-0.5 3.7-1.7 0.9-0.4 1.9-1.2 3.2-2 6-4.2m112.7 13.6l-0.2 0.3v0.7l0.7 0.1 0.6-0.2 1.1-0.1 1 0.1 0.6 0.1 2.4 0.5 1.2 0.4 3.8 1.3 1.3 0.4 0.6 0.1 1.1 0.3 0.4 0.1 1.5 0.4 0.6 0.2 0.1 0.1v0.3l-0.2 0.1-0.6 0.3-0.4 0.1-0.4 0.3 0.1 0.1 0.5 0.2h0.6l1.3 0.1 0.7 0.1-1.1-0.1-2.5-0.2-1.2-0.2-2.5-0.6-0.6-0.2-1.5-0.5-0.7-0.2-1.7-0.6-2.1-0.7-3.8-1.7-1.9-0.8-0.8-0.5h0.2l0.5-0.2 1.1-0.2zm45.1-80.4l1 0.5 1.9 0.9 1 0.5 1.5 0.9 0.8 0.5 1.1 0.8 1.1 1.1 0.1 0.2 0.1 0.6v0.3l-0.1 0.7-0.1 0.7-0.8 1.6-0.4 0.7-1.1 1.2-0.2 0.2-0.6 0.4-0.8 0.2h-0.1l-0.8-0.2-0.4-0.2-1.2-0.6-0.6-0.3-1.4-0.7-2.3-1.3-1.5-1-3.8-1.8-1-0.4-1.8-0.7-2.3-0.7-1.3-0.3-3-0.8-0.7-0.2-1.3-0.4-1.5-0.4-1.3-0.4-2.7-0.4-1.3-0.2-2.6 0.2-1.3 0.1-2.7 0.7-4.1 1.6-0.9 0.4-1.7 1-0.8 0.4-1.5 1-1.3 0.9-2 2.1-0.9 1-1.2 2.4-0.9 4-0.2 1.3 0.1 2.3 0.1 1.1 0.5 1.9 0.3 0.9 1 1.6 0.6 0.8 1.6 1.4 0.9 0.6 2.3 1.2 1.3 0.5 3 1 1.6 0.5 3.8 0.9 6.7 1.3 1.7 0.3 3.4 0.6 1.7 0.3 3.2 0.6 1.5 0.4 2.5 0.5 0.6 0.1 1 0.3 1.1 0.3 1.5 0.4 2.6 1.1 1.3 0.5 2.4 1.3 1.1 0.6 2 1.5 1 0.8 1.6 1.7 0.8 0.9 1.4 1.9 0.6 0.9 1 2.2 0.5 1.1 0.7 2.3 0.6 3.8 0.2 1.2v1.9 0.9l-0.2 1.6-0.2 0.9-0.7 1.9-1.6 3.5-0.7 1.3-1.5 2.4-0.8 1.1-1.8 2.1-0.9 1-2.1 1.7-1.1 0.9-2.4 1.4-1.2 0.6-2.8 1.2-1.4 0.5-3 0.8-1.6 0.4-3.4 0.5-1.3 0.1-0.2-0.2-0.5-0.1-3-0.7 3.5-0.7 3.1-0.6 1-0.2 0.4-0.1 0.8-0.2h0.2l2.6-0.8 1.9-0.7 1-0.4 3.9-2 1.8-1.2 1.7-1.2 0.8-0.5 1.4-1.2 0.6-0.5 1-1.1 0.3-0.5 0.5-0.9v-0.3l0.4-0.8 0.5-0.1 0.3 0.2 0.6 0.2 0.1-0.2-0.2-0.3-0.1-0.7v-0.6l0.1-0.3 0.4-1.5 0.4-0.8 1.2-3.2 0.3-2.3v-1.3l-0.2-2.4-0.3-1.2-0.6-2.5-0.5-1.2-1.2-2.4-0.7-1.1-1.5-2.3-0.9-1-1.9-2-1-0.8-2.2-1.6-1.2-0.7-2.4-1-1-0.4-0.6-0.1-1.3-0.4-0.8-0.2-1.7-0.4-1-0.2-2.1-0.4-1.3-0.3-2.8-0.6-1.6-0.3-3.4-0.7-2-0.4-6.3-1.3-3.6-0.9-1.6-0.5-2.9-1-1.3-0.5-2.4-1.1-0.9-0.6-1.9-1.3-0.7-0.7-1.3-1.4-0.5-0.8-0.9-1.7-0.4-0.9-0.5-2-0.2-1v-3.8l0.5-2.7 0.3-1.1 0.4-1.1 0.2-0.4 0.5-0.9 0.2-0.3 0.5-0.5 0.2-0.1 0.5-0.1 0.2 0.1 0.5 0.1 0.4-0.2 0.3-0.1 1-0.8 0.5-0.6 0.8-0.8 0.2-0.4v-0.1-0.2h-0.1l-0.2 0.1-0.3 0.1-0.7 0.4-0.3 0.1v-0.1l0.1-0.1 0.1-0.2 0.4-0.5 0.3-0.3 1.4-1.1 1.1-0.4h0.5l1-0.1 0.8-0.2 0.5-0.1 2-0.7 0.9-0.4 3.2-1.1 2.4-0.5 1.4-0.1 2.7-0.2 1.5 0.1 2.9 0.1 1.6 0.2 3 0.4 1.6 0.4 3 0.7 1.5 0.5 3 1 1.4 0.6 2.8 1.2 1.3 0.7 2.1 1.2 1.3 0.6 0.6 0.2 1.1 0.3 0.4 0.1 0.6 0.1 0.1-0.1 0.9-1.2v-0.9l-0.2-0.6-0.7-1.1-0.6-0.5-1.3-1.2-0.9-0.6-1.7-1.2-0.8-0.6-0.2-0.3-0.2-0.5v-0.2l0.1-0.4 0.3-0.1v-0.1zm-224.4 69.4l1.5 1.4 1.1 0.8 1.2 0.8 0.7 0.5 1.4 1 0.8 0.5 5.5 3.4 3.6 1.9 1.9 0.9 3.9 1.5 2 0.7 4.1 1.2 2.3 0.6 3 0.7-3.5 1.1-1.2-0.2-2-0.4-3.9-1.2-2.5-0.9-4.5-2-2.1-1.1-4-2.5-1.9-1.2-3.3-2.9-1.6-1.5-2.8-3.3-0.3-0.3zm116-74.4h1.4 2.6l1.3 0.1h2.3 1.1l2.1 0.1 2 0.1 3.4 0.3 1.6 0.1 2.7 0.5 1.2 0.2 2.2 0.7 1 0.3 1.9 1 0.9 0.4 1.7 1.2 2.6 2.2 1.6 1.4 2.4 2.7 1 1.4 1.6 2.9 0.6 1.5 0.8 3.3 0.5 5.8v1.5l-0.2 2.7-0.2 1.3-0.5 2.4-0.3 1.2-0.8 2.1-0.5 1.1-1.2 1.9-0.6 1-1.6 1.7-0.8 0.9-1.9 1.5-1.1 0.8-2.3 1.5-4 2.1-1.3 0.6-2.2 0.8-0.5 0.2-1.3 0.3-0.6 0.1-1.5 0.2-0.8 0.1-1.9 0.1-1 0.1-2.1 0.1 0.3-0.1 0.1-0.1v-0.1l-0.1-0.1-0.3-0.5 0.2-0.3 0.3-0.2 0.9-0.3 0.7-0.2 1.5-0.4 1.1-0.2 5.6-1.5 3.3-1.2 1.4-0.7 2.8-1.5 1.2-0.9 2.3-1.8 0.9-1 1.7-2.1 0.7-1.2 1.2-2.5 0.4-1.3 0.7-2.8 0.1-1.5 0.2-3.1-0.2-1.6-0.6-4.3-0.7-2.7-0.4-1.2-1.1-2.4-0.6-1.1-1.4-2.1-0.8-0.9-1.8-1.9-1-0.8-2-1.5-1.2-0.6-2.4-1.2-1.4-0.5-2.7-0.9-1.6-0.4-1.7-0.4-0.9-0.2-0.4-0.1-0.6-0.2-0.2-0.1-0.4-0.1-0.1-0.1-0.1-0.2 0.3-0.1 0.8-0.3 0.7-0.1 0.2-0.2h-0.3l-0.3-0.1-0.8-0.1h-0.5l-1.2-0.1h-0.8l-1.6-0.1h-0.9l-2-0.1h-1.1-2.3-1.2l-2.6-0.1h-1.4-7.6l-2.3 0.1h-1.1-2-0.9l-1.7 0.1-0.7 0.1h-1.3l-0.5 0.1-0.9 0.1h-0.3l-0.4 0.1-0.7 0.9-0.9 0.6-0.7 0.3-2.2 1-0.3 41.5v8.4 5.3 2.5 4.9 2.3 4.3 2 3.7 1.5l0.1 3v1.1 2l0.1 0.6v0.6 0.2 0.3h0.1l0.4 0.8 0.3 0.1 0.8 0.4h0.4l0.9-0.1 0.4-0.3 0.7-0.5 0.3-0.4 0.1-0.5 0.1-0.5v-0.4l0.2-1.9v-1.2l0.1-2.7v-1.6-3.2-1.7-5.8l0.1-3.3 0.1-1.4 0.2-2.6 0.1-1.1 0.4-2 0.2-0.8 1.2-3.8-0.1 18.5-0.2 18.8-2.4 0.3-0.7 0.1-1.6-0.5-0.8-0.4-1.4-1.2-0.3-0.3-0.4-0.6-0.2-0.3-0.4-0.8-0.1-0.5-0.3-1.4-0.1-0.9-0.1-2.3-0.1-0.7v-1.5-0.8l-0.1-1.9v-1-2.2l-0.1-1.2v-2.7-1.3-3.2-1.6-3.6-1.9-4.1-6.9-8-2.6-5-2.4-4.6l0.1-2.2v-4.1-2l0.1-3.4v-1.6l0.1-2.7v-1.2l0.1-1.8 0.1-1.6 0.7-3.9h23.2zm54.7 70.2l0.7 0.3 0.3 0.1 0.8 0.5 0.2 0.1 0.1 0.2 0.4 0.6 0.4 0.4 0.7 1 0.3 0.5h-0.1l-0.1 0.1h-0.2l-0.5-0.1-0.4-0.2-1.7-0.3-1.1 0.1-0.4 0.1-0.9 0.5-0.4 0.4-0.1 0.2-0.1 1.1 0.2 0.6 0.8 1.4 0.7 0.7 1.6 1.6 1.2 0.8 1.7 1.3 0.9 0.9 0.4 0.3 0.6 0.8 0.2 0.2 0.2 0.5-0.1 0.1 0.1 0.3-2.2-1.3-1.7-0.9-2.9-2.2-3.7-3.3-2.4-2.6 2.4-2.5 0.7-0.8 1.3-1 0.6-0.4 1.2-0.1zm4.9 3.3l1.4 1.2 2.9 2 1.5 0.9 3.1 1.7 1.5 0.8 3.2 1.3 4.9 1.4 0.6 0.2 1.6 0.2 0.9 0.1 1.7 0.2 1.8 0.1 3.7 0.1h0.2v0.2l-0.6 0.7-1 0.3-0.7 0.1-1.5 0.1-0.9-0.1-2-0.1-1-0.1-4.5-0.6-2.1-0.6-2.2-0.5-1-0.4-1.9-0.7-0.7-0.3-4.4-2.4-2.3-1.4-0.8-0.7-1.5-1.2-0.3-0.6-0.3-0.5v-0.2l-0.1-0.4 0.2-0.2-0.1-1-0.3-0.4zm35.4 8.6l-0.5 0.4v0.3l-0.2 0.4-0.4 0.2h-0.2-1.3-0.2l0.5-0.1h0.6l0.7-0.3 0.5-0.4v-0.2l0.5-0.3 1.3-0.2zm-195.9-68.8l-0.1 0.5-0.2 0.3-0.2 0.6h0.2l-1.7 1.4-1.1 0.9-2.1 2.1-2.9 3.6-1.3 1.7-2 3.4-0.8 1.7-1.3 3.7-0.5 1.8-0.6 4.1-0.4 7v1l0.1 1.6v0.8l0.1 1.4 0.1 1.3 0.3 2.2 0.2 1.1 0.8 2.1 1.5 3.6 1 2.2 2.3 3.8 1.2 1.8 2.6 3 1.4 1.5 3.2 2.4 5.4 3.2 1.4 0.7 1.1 0.5-0.1 0.1-0.2 0.2-1 0.4-0.8 0.1h-0.4l-1.9-0.5-0.9-0.4-1.7-1.1-0.4-0.6-0.5-0.6v-0.3-0.5l0.1-0.3v-0.4h-0.5l-0.4 0.1-1.2-0.1-1-0.5-0.6-0.4-1.2-0.9-0.7-0.7-1.3-1.3-0.7-0.7-2.6-3.2-1.2-1.8-1.1-1.7-0.4-0.9-0.8-1.6-0.3-0.8-0.9-2.4-0.4-1.4-0.2-0.5-0.6-2.2-0.2-1.1-0.1-1.1-0.1-0.6-0.1-1.3v-0.8-1.7-1l-0.1-2.1v-1.3l0.1-4.5 0.1-2.5 0.2-1.2 0.3-2.1 0.3-1 0.6-1.9 0.3-1 2.1-4.4 1.8-3 1-1.3 0.9-1.3 0.4-0.5 0.9-1.1 0.4-0.4 0.8-0.7 0.3-0.2 0.6-0.4h0.3l0.3 0.5-0.3 0.8-0.4 0.5-0.5 0.8-0.2 0.2h0.1l0.2-0.1 0.3-0.2 0.6-0.5 0.4-0.4 1.5-1.5 0.2-0.4 0.1-0.2v-0.2-0.1l-0.1-0.8 0.4-0.7 0.3-0.3 0.7-0.7 0.3-0.3 0.7-0.4h0.3zm-18.1 55.5l0.1 0.2 0.6 1.1 0.1 0.8 0.7 1.7 0.4 0.5-0.5-0.7-2.3-3.7 0.1-0.1h0.5zm10.9-60v0.8l-0.4 0.8-0.3 0.5-0.7 1-0.5 0.6-1.1 1.2-0.6 0.6-3.7 4.3-2.1 3.1-0.9 1.7-1.7 3.4-0.7 1.7-1.2 3.5-0.4 1.8-0.9 6.8-0.2 4.8v2.4l0.3 4.8 0.4 2.2 0.3 2.2 0.3 1 0.4 2 0.3 0.8 0.8 2.5 0.3 1.6 0.2 0.6 0.2 1.3v0.4 0.8l-0.1 0.2-0.8-1.4-1.6-4.1-0.8-2.1-1-4.6-0.9-7.2-0.2-2.9 0.3-5.6 0.3-2.8 1.1-5.2 0.7-2.6 2-4.8 1.1-2.4 2.7-4.3 1.5-2.1 3.4-3.7 1.8-1.8 2.4-1.8zm167.3 30.3l0.5 0.1 0.4 0.2 5.1 1.9 3.5 1.2 1.9 0.5 3.8 1.1 2.1 0.5 4.4 1 2.5 0.5 2.7 0.5 1.5 0.4 0.7 0.1 1.3 0.3 0.5 0.2 1 0.2 0.4 0.2 0.7 0.2 0.3 0.1 0.4 0.2 0.1 0.1 0.2 0.2-0.1 0.1-0.1 0.1-0.1 0.1-0.4 0.2v0.1l0.2 0.1h0.6 0.4l0.9-0.1 0.5-0.1 2.2-0.2h1.1l0.5 0.1 0.8 0.3 0.4 0.3 0.8 0.6 0.5 0.4 1.6 1.5 0.5 0.4 0.2 0.1 0.3 0.1 0.5 0.3 0.5 0.4 0.3 0.2 1.2 1.3 0.2 0.3-0.4-0.4-0.7-0.5-1.6-0.9-0.9-0.5-1.9-0.9-1.1-0.4-2.2-0.8-1.2-0.4-2.6-0.7-4.1-0.8-2.1-0.4-3.7-0.7-1.7-0.3-3.1-0.6-1.4-0.3-2.5-0.5-1.2-0.3-2.1-0.5-1-0.2-1.7-0.5-0.8-0.2-1.5-0.5-4-1.6-1.4-0.7-2.7-1.6-0.1-0.3-0.3-0.6v-0.2l0.3-0.1zm-66.3 13.7l-10.8 0.1 0.1-0.3zm-10.7-9.3l0.5 0.1 0.3 0.1 1 0.1h0.6l1.4 0.1h0.7 1.7l1.8 0.1h4.2 0.6l-12.5 0.1-0.4-0.7zm36.9-0.4l-0.5 0.1-0.4 0.1-1 0.1-0.6 0.1-1.3 0.1h-0.8l-1.7 0.1-1 0.1-2 0.1h-1.1-2.4l-1.2 0.1h-2.7-1.1 2.2l4.5-0.1 2.1-0.1 3.7-0.2h0.8l1.5-0.2h0.7l1.1-0.1 0.5-0.1 0.6-0.1 0.3-0.1 0.2-0.1-0.2 0.1zm-17.8 1h-0.1zm-19.9-15.9l0.1 4.3v2.1l0.1 3.4 0.1 0.8v1.4l0.1 0.7 0.1 1v0.5l0.1 0.6 0.1 0.4-1.1-2.2-0.7-1.9-0.3-1.9-0.1-1.1-0.3-2.3v-1.3l-0.2-2.7v-1.4-5.8l0.2-2.6 0.2-2.6 0.2-1.1 0.3-2.2 0.3-0.8 0.8-3.4zm71.6 4l-0.2 0.3v0.1-0.1zm-0.1 1l0.1 0.6 0.2 0.3 0.7 1.4 0.6 0.7 0.8 0.8 0.4 0.4 0.1 0.1 0.2 0.1v-0.1-0.2l-0.1-0.2-0.4-0.7v-0.3l0.2 0.1 0.2 0.1 0.5 0.4 0.4 0.3 1 1.2 0.3 0.7-0.1 0.3v0.3l-0.3-0.1-2.2-2-0.4-0.5-0.9-0.9-0.3-0.5-0.6-0.9-0.2-0.4-0.2-0.7v-0.9zm0.1-1.7l0.1 0.6-0.1-0.6-0.6-0.4zm-1.5-5.4l0.4 0.5-0.5-0.5zm-0.7-0.8l0.2 0.5 0.1 0.1 0.3 0.2h-0.4l-0.4-0.5-0.2-0.3v-1.1-0.7l0.1-0.3v0.2zm39.9-25.5l1.9 0.2 3.5 0.7 0.8 0.1 2 0.6 1 0.3 2.1 0.7 2.2 0.8 2.9 1.3-0.3 0.1-1.1 0.1h-0.9l-0.6-0.1-2.1-0.5-1-0.4-4.6-1.4-3.7-0.6-2-0.1-4.2-0.2-2.3 0.1-4.7 0.2-2.5 0.3-4.7 0.8-2.9 0.6-1.3 0.5-2.6 0.9-1.1 0.6-2.2 1.1-1 0.7-1.9 1.4-0.8 0.8-1.5 1.7-0.6 1-1.2 1.9-0.5 1.1-0.9 2.2-0.4 1.3-0.6 2-0.4 0.9-0.2 0.3-0.3 0.4h-0.2l-0.3-0.1-0.1-0.2-0.4-0.4h-0.1v-0.3l0.6-1.8 0.7-1.9 1.9-3.9 0.5-0.9 1.1-1.7 1.7-2.2 0.7-0.8 1.7-1.4 0.9-0.7 2.1-1.3 1-0.6 2.2-1.1 1.2-0.6 2.2-0.8 1.2-0.5 2.1-0.5 1.1-0.3 1.9-0.2 0.9-0.1 1.4 0.2 1.6 0.7 0.2 0.2 0.6 0.3 0.3 0.1h0.8 0.4l1.1-0.2 2.1-0.6 1-0.3 1.5-0.3 0.8-0.1 1.5-0.1zm-166.2-0.3l2.9 0.1 5.5 0.7 1.3 0.3 2.3 0.5 3 1 1.5 0.7 3.1 1.5 1.5 0.8 2.8 1.7 1.4 0.9 2.3 1.7 2.6 2.4 0.4 0.4 0.5 0.7 0.2 0.3v0.6 0.3l-0.5 0.7-1.4 1.6-0.6 0.7-1.3 1.2-0.3 0.3-0.4 0.3-0.4 0.2h-0.1l-0.6-0.3-0.3-0.2-1.1-0.7-0.6-0.4-1.4-0.9-2.4-1.5-1-0.7-1.8-1.2-1-0.6-1.7-1-1.8-0.9-3.3-1.3-1.7-0.5-3.5-0.7-6.1-0.4h-1.6l-3.2 0.2-1.6 0.1-3 0.6-1.5 0.3-2.9 0.8-1.4 0.5-1.1 0.5v-0.1-0.2l-0.2-0.5-0.1-0.4-0.4-1v-0.4-0.1l0.3 0.1 0.2 0.1 0.6 0.5 0.4 0.3 1.2 0.7 0.1 0.1 0.1-0.1-0.1-0.1v-0.2l0.1-0.5 0.4-0.5 0.4-0.2 0.9-0.5 0.7-0.3 1.3-0.5 0.8-0.2 4.3-1 3-0.2h1.6l3.4 0.3 1.9 0.4 2 0.4 1 0.3 2.2 0.5 1.2 0.3 3.8 1.2 1.9 0.8 0.6 0.3 1 0.7 0.2 0.4 0.2 0.7-0.2 0.3v0.5h0.4l0.4-0.1 0.7-0.1 0.6 0.2 0.3 0.1 1.4 0.7 0.7 0.6 1.9 1.4 1.1 0.5h0.4l1-0.1 0.4-0.2 0.9-0.7 0.4-0.5 0.6-0.9 0.1-0.6-0.1-0.3-0.3-0.6-0.4-0.3-0.9-0.8-0.6-0.5-5.2-3.6-3.9-2-2-0.7-4.2-1.4-2.2-0.5-4.5-0.7-2.3-0.2-7.1-0.1-4.4 0.3-2 0.4-4 0.9-2 0.7-4.1 1.5-2.2 1.1-2.6 1.1-1.6 0.6-0.7 0.2-1.2 0.4h-0.5l-0.8 0.1h-0.1l1.3-1 2.2-1.5 4.8-2.5 7.8-2.8 1.1-0.3 2.4-0.5 1.2-0.2 2.7-0.2 2.8-0.2zm-19.6 10.5l0.5 0.4 0.5 0.5-1.4 0.6-1.3 0.6-2.5 1.5-1 0.7 0.3-0.4 0.1-0.5-0.1-0.2v-0.5l0.1-0.4 0.2-0.2 0.9-0.9 0.6-0.4 1.2-0.7 0.7-0.3h0.2zm159.2 2.5l0.1 0.4-0.2 0.3-0.4 0.5-0.2 0.2-0.4 0.3h-0.1l-0.3-0.3-0.1-0.5v-0.2l0.3-0.7 0.5-0.3h0.2zm-82.3-3.5l20.1 0.3 20.1 0.4-20.2-0.4zm127.6 50.8v0.2zm-57.3-31.8l-0.2 0.7z"/><path fill-rule="evenodd" class="d" d="m762 572l2.5-0.7-3-0.7-2.3-0.6-4.1-1.3-2-0.6-3.8-1.6-1.9-0.8-3.7-1.9-5.5-3.4-0.8-0.5-1.4-1-0.7-0.5-1.1-0.8-1.1-0.9-1.6-1.3-0.6-0.7-0.9-1.1-0.7-1.7-0.1-0.8-0.6-1.1-0.1-0.1-0.3-0.3-0.5 0.1-0.3 0.2-0.2-0.1 0.2-0.6 0.1-0.2v-0.7-0.5l-0.2-1.2-0.2-0.7-0.3-1.5-0.8-2.5-0.3-0.9-0.4-2-0.3-1-0.3-2.1-0.4-2.3-0.3-4.7v-2.5l0.2-4.8 0.9-6.8 0.4-1.8 1.2-3.5 0.7-1.7 1.7-3.4 0.9-1.6 2.1-3.2 3.7-4.2 0.7-0.7 1-1.2 0.5-0.6 0.7-1 0.3-0.5 0.4-0.8v-0.7l-0.2-0.4v-0.3l0.6 0.2 0.2 0.1 0.8-0.1h0.4l1.3-0.4 0.7-0.2 1.6-0.6 2.5-1.1 2.2-1.1 4.1-1.5 2.1-0.7 4-0.9 2-0.4 4.3-0.3 7.2 0.1 2.3 0.1 4.5 0.8 2.2 0.5 4.2 1.4 2 0.7 3.8 2 5.3 3.6 0.6 0.5 0.9 0.8 0.3 0.3 0.4 0.6 0.1 0.3-0.1 0.5-0.6 1-0.5 0.5-0.8 0.7-0.4 0.2-1 0.1h-0.4l-1.1-0.5-1.9-1.4-0.7-0.6-1.4-0.7-0.3-0.1-0.6-0.2-0.7 0.1-0.4 0.1h-0.4l-0.1-0.5 0.2-0.3-0.1-0.7-0.2-0.4-1-0.7-0.6-0.3-1.9-0.8-3.8-1.2-1.2-0.3-2.2-0.5-1-0.3-2-0.4-1.9-0.4-3.4-0.3-1.6-0.1-3 0.3-4.3 1-0.8 0.2-1.4 0.5-0.6 0.3-0.9 0.5-0.4 0.2-0.5 0.5-0.1 0.5 0.1 0.2v0.1 0.1l-0.2-0.1-1.1-0.7-0.4-0.4-0.6-0.4-0.2-0.1-0.3-0.1v0.1 0.3l0.4 1.1 0.1 0.4 0.2 0.5v0.2 0.2 0.1l-0.2-0.1-0.6-0.5-0.4-0.4-1-0.2h-0.3l-0.6 0.3-1.2 0.7-0.7 0.4-0.8 0.9-0.2 0.2-0.2 0.4v0.4l0.2 0.3-0.2 0.5-0.6 0.8-0.4 0.2h-0.3l0.2-0.7 0.2-0.3v-0.5l-0.4-0.3h-0.3l-0.7 0.4-0.4 0.2-0.7 0.8-0.2 0.3-0.4 0.7v0.8h0.1l-0.1 0.3v0.2l-0.3 0.4-1.4 1.5-0.5 0.4-0.6 0.5-0.2 0.2-0.3 0.1 0.1-0.3 0.6-0.8 0.4-0.5 0.3-0.7-0.4-0.5h-0.2l-0.6 0.4-0.4 0.2-0.7 0.7-0.4 0.4-0.9 1.1-0.5 0.5-0.9 1.3-0.9 1.3-1.8 3-2.1 4.4-0.4 0.9-0.5 2-0.3 1-0.4 2.1-0.1 1.2-0.2 2.5v4.5 1.3 2.1 1l0.1 1.7v0.8l0.1 1.3v0.6l0.2 1.1 0.1 1.1 0.6 2.1 0.2 0.6 0.5 1.4 0.8 2.4 0.3 0.7 0.8 1.7 0.5 0.9 1.1 1.7 1.1 1.8 2.7 3.2 0.6 0.7 1.4 1.3 0.6 0.6 1.2 1 0.6 0.4 1 0.5 1.2 0.1 0.4-0.2h0.5l0.1 0.5-0.2 0.2v0.6l0.1 0.3 0.4 0.6 0.5 0.6 1.7 1 0.9 0.5 1.9 0.4 0.4 0.1 0.8-0.1 0.9-0.4 0.3-0.2 0.3-0.3 0.1-0.1 0.2-0.1v0.2l-0.3 0.6-0.2 0.2 0.1 0.5 0.1 0.3 0.5 0.5 0.3 0.3 0.8 0.4 0.5 0.2 1.2 0.5 1.3 0.4 3.2 0.5 5.5 0.4h0.9l2.1-0.2 1.1-0.1 2.4-0.3 2.4-0.4 5.1-1.2 1.2-0.3 2.2-0.7 1.1-0.3 1.9-0.7 0.8-0.3 1.3-0.7 1.1-0.8 0.1-0.2 0.4-0.3 0.2-0.2 0.7-0.5 2.3-1.4 0.9-0.5 1.5-0.4 0.6-0.1 0.9 0.3 0.4 0.3 0.2 0.9-0.6 1.9-0.2 0.3-0.9 0.9-0.5 0.4-1.6 1.1-0.8 0.5-2 1.1-1 0.6-2.1 1.2-1.1 0.5-2.2 1-1.1 0.5-2 0.9-1 0.3-1.6 0.6-1.9 0.3h-0.3l-1.2 0.2h-0.6l-1.5 0.3-5 1-1.6 0.4-3.4 0.6-0.7 0.1-1.4 0.2-1.4 0.1-2.5-0.1zm164.5 0l0.5-0.2 0.5-0.2 0.2-0.2v-0.2l-0.1-0.1-0.6-0.2-1.5-0.4-0.4-0.1-1.1-0.3-0.6-0.2-1.3-0.4-3.8-1.3-1.2-0.4-2.4-0.5-0.6-0.1h-1-1.1l-0.6 0.2-0.7-0.1v-0.6l0.2-0.4-0.2-0.2-1.1 0.2-0.5 0.2h-0.5l-0.1-0.5v-0.1l-0.2-0.5-0.1-0.3-0.7-0.7-0.3-0.4-1-0.8-1.7-1.3-1.1-0.9-1.7-1.5-0.7-0.8-0.7-1.3-0.3-0.6 0.2-1.1 0.1-0.2 0.3-0.4 0.9-0.5 0.4-0.2h1.2l1.6 0.3 0.4 0.1 0.5 0.2h0.3l0.1-0.1v-0.1l-0.2-0.4-0.8-1-0.4-0.5-0.4-0.5-0.1-0.3-0.1-0.1v-0.1l0.3 0.2 0.9 0.7 0.5 0.4 0.6 0.9 0.1 1-0.1 0.2v0.4 0.2l0.3 0.5 0.4 0.6 1.4 1.2 0.8 0.7 2.4 1.4 4.3 2.4 0.8 0.3 1.9 0.7 1 0.4 2.1 0.5 2.2 0.6 4.4 0.6 1.1 0.1 1.9 0.2h0.9l1.5-0.1 0.7-0.1 1-0.3 0.6-0.7v-0.2l0.2-0.3 0.1-0.1 0.4-0.1 0.3-0.1h0.7l1.3 0.2 0.9 0.2h1.3l0.2-0.1 0.4-0.2 0.2-0.3v-0.3l0.5-0.4 1.2-0.2 0.5 0.1h1.1 1.4 0.2l0.8-0.5 0.4-0.3 1-0.8 1.1-0.9 2.5-2.5 0.6-0.6 1.2-1.3 0.5-0.6 0.9-1.1 0.4-0.6 0.6-0.8 0.3-0.9-0.1-0.3 0.2-0.6 0.7-0.3h0.1l0.3-0.4 0.1-0.2 0.2-0.8 0.3-3.1v-1.3l-0.3-1.9-0.1-0.4-0.2-0.6-0.4-0.3h-0.3l-0.4-0.4-0.3-0.9v-0.1l-0.2-0.5-0.2-0.3-0.4-0.7-0.4-0.7-1.2-1.5-0.6-0.8-1.2-1.3-0.3-0.2-0.4-0.4-0.6-0.2-0.3-0.2-0.2-0.1-0.5-0.4-1.6-1.5-0.4-0.4-0.8-0.6-0.4-0.2-0.9-0.3-0.5-0.1-1.1-0.1-2.2 0.2-0.5 0.1-0.9 0.1h-0.4-0.5-0.2l-0.1-0.1 0.4-0.3h0.1l0.1-0.2 0.1-0.1-0.2-0.2-0.1-0.1-0.4-0.2-0.3-0.1-0.7-0.2-0.4-0.1-1-0.3-0.5-0.2-1.3-0.3-0.7-0.1-1.5-0.4-2.7-0.5-2.5-0.5-4.4-1-2.1-0.5-3.8-1-1.9-0.6-3.5-1.1-5.1-2-0.4-0.1-0.5-0.2-0.2-0.1-0.2 0.1h-0.1v0.2l0.3 0.6 0.3 0.5v0.4l-0.7-0.2-0.3-0.3-0.3-0.5v-0.8l0.1-0.2-0.3-0.8-1-1.2-0.4-0.3-0.4-0.3-0.3-0.2h-0.2v0.2l0.4 0.8 0.1 0.2v0.1 0.1l-0.2-0.1-0.1-0.1-0.4-0.3-0.8-0.8-0.5-0.7-0.8-1.5-0.2-0.3-0.1-0.6v-0.7l0.2-0.4-0.1-0.6-0.6-0.3h-0.4l-0.3-0.7 0.2-1.8 0.2-0.8v-1l-0.6-0.7h-0.1l-0.3-0.3-0.1-0.1-0.2-0.5-0.3-1.9v-0.5l0.1-0.6v-0.3l0.1-0.3 0.1-0.2 0.2 0.1 0.4 0.4 0.1 0.2 0.3 0.1h0.2l0.3-0.5 0.2-0.3 0.4-0.9 0.6-2 0.4-1.2 0.9-2.3 0.4-1 1.3-2 0.6-0.9 1.5-1.7 0.8-0.8 1.9-1.4 1-0.7 2.2-1.2 1.1-0.6 2.5-0.9 1.4-0.4 2.9-0.7 4.7-0.7 2.5-0.3 4.7-0.3h2.3l4.2 0.1 2 0.2 3.7 0.6 4.6 1.3 0.9 0.5 2.2 0.4 0.6 0.1 0.9 0.1 1.1-0.2 0.4-0.1 0.5-0.1h0.2 0.2 0.1l-0.1 0.2-0.4 0.3-0.2 0.2-0.2 0.4v0.2l0.3 0.4 0.2 0.3 0.7 0.7 1.7 1.1 0.9 0.6 1.4 1.2 0.6 0.6 0.7 1.1 0.2 0.5v0.9l-0.9 1.2-0.1 0.1-0.7-0.1h-0.4l-1-0.4-0.6-0.2-1.3-0.6-2.1-1.1-1.3-0.7-2.8-1.3-1.4-0.6-3-1-1.5-0.5-3.1-0.7-1.5-0.3-3.1-0.5-1.5-0.2-3-0.1h-1.4l-2.8 0.1-1.3 0.1-2.4 0.5-3.2 1.1-1 0.5-2 0.6-0.4 0.2-0.9 0.1-0.9 0.1h-0.5l-1.1 0.4-1.5 1.1-0.3 0.4-0.3 0.4-0.1 0.2-0.1 0.2h0.3l0.7-0.4 0.2-0.2h0.3l0.1-0.1v0.2 0.1l-0.3 0.4-0.7 0.9-0.5 0.6-1.1 0.7-0.2 0.2-0.4 0.1h-0.5l-0.3-0.2-0.4 0.1-0.3 0.1-0.4 0.5-0.3 0.4-0.4 0.8-0.2 0.4-0.4 1.1-0.4 1.2-0.4 2.6v3.8l0.2 1.1 0.5 1.9 0.3 1 1 1.6 0.5 0.8 1.3 1.5 0.7 0.7 1.8 1.2 1 0.6 2.4 1.1 1.2 0.6 3 1 1.5 0.4 3.7 1 6.2 1.3 2 0.4 3.5 0.7 1.6 0.3 2.7 0.5 1.4 0.3 2.1 0.5 1 0.2 1.7 0.4 0.8 0.1 1.2 0.4 0.7 0.2 0.9 0.3 2.4 1.1 1.3 0.6 2.1 1.6 1.1 0.9 1.9 1.9 0.9 1.1 1.5 2.2 0.7 1.1 1.1 2.4 0.5 1.2 0.7 2.5 0.3 1.3 0.2 2.4v1.2l-0.4 2.3-1.1 3.2-0.4 0.8-0.5 1.5v0.4l-0.1 0.6 0.2 0.6 0.2 0.3-0.1 0.3-0.7-0.2-0.3-0.3-0.5 0.1-0.3 0.8v0.4l-0.5 0.9-0.3 0.4-1 1.1-0.6 0.6-1.4 1.1-0.8 0.6-1.7 1.1-1.8 1.2-3.9 2-1 0.5-1.9 0.7-2.6 0.7-0.3 0.1-0.7 0.1-0.5 0.1-0.9 0.2-3.1 0.7-3.5 0.7 3 0.6 0.5 0.2 0.2 0.1v0.1l-0.7 0.2h-0.5l-1.6 0.1-3.4 0.1h-1.3l-2.1-0.1h-1l-1.3-0.1-0.6-0.1-0.5-0.2-0.1-0.1zm-15-78l0.2-0.3-0.1-0.4-0.5-0.3h-0.3l-0.5 0.3-0.3 0.7v0.3l0.1 0.4 0.4 0.3h0.1l0.3-0.3 0.2-0.2zm-89 74.8v-0.1l-0.1-0.3v-0.2-0.5-0.7l-0.1-2v-1.1-2.9-1.6l-0.1-3.7v-1.9-4.4-2.3-4.9-2.5-5.3l0.1-8.4 0.2-41.5 2.3-1 0.6-0.2 1-0.7 0.6-0.8v-0.1l0.4-0.1h0.3l0.9-0.1 0.5-0.1h1.3l0.7-0.1h1.7 0.9l2.1-0.1h1l2.3-0.1h7.7 1.4l2.5 0.1h1.2 2.3l1.1 0.1h2 0.9l1.7 0.1h0.7l1.2 0.1 0.6 0.1h0.8l0.3 0.1 0.2 0.1-0.2 0.1-0.7 0.2-0.8 0.2-0.2 0.1 0.1 0.3 0.4 0.2h0.2l0.7 0.2 0.3 0.1 1 0.2 1.7 0.4 1.5 0.4 2.8 0.9 1.3 0.5 2.4 1.2 1.2 0.7 2.1 1.5 1 0.8 1.7 1.8 0.8 0.9 1.4 2.1 0.7 1.1 1 2.4 0.5 1.2 0.7 2.7 0.6 4.3 0.1 1.7-0.2 3-0.1 1.5-0.7 2.8-0.4 1.4-1.2 2.4-0.6 1.2-1.7 2.1-1 1-2.2 1.9-1.2 0.8-2.8 1.5-1.5 0.8-3.3 1.2-5.6 1.4-1 0.2-1.6 0.4-0.6 0.2-0.9 0.4-0.4 0.1-0.2 0.4 0.3 0.5h0.2l-0.1 0.2h-0.1l-0.4 0.1-0.3 0.1-0.7 0.1h-0.4l-1.2 0.1h-0.6l-1.4 0.1h-0.8-1.7-3-3.5l-15.4-0.3-1.3 4.5-0.3 0.7-0.3 2-0.2 1.1-0.2 2.6-0.1 1.4-0.1 3.4v5.7l0.1 1.7v3.3 1.5l-0.1 2.7-0.1 1.3-0.1 1.8-0.1 0.4-0.1 0.6-0.1 0.5-0.3 0.4-0.7 0.5-0.4 0.2-0.9 0.1h-0.4l-0.7-0.3-0.4-0.2zm44.6-45v-0.3l0.4-0.2 1 0.1 0.4 0.1 0.7-0.2 0.9-0.8 0.1-0.4 0.7-0.7 1.2-0.4h0.2l0.5-0.2 0.3-0.1 0.6-0.4 0.6-0.5 1.2-1.4 0.6-0.6 0.8-1.4 0.1-0.3 0.2-0.6-0.1-0.6-0.2-0.2 0.1-0.4 0.5-0.3h0.2l0.3-0.7-0.1-1.6-0.1-0.7 0.1-1.2 0.6-1.1 0.1-0.1 0.2-0.4v-0.3-0.7-0.3l-0.2-1-0.5-1.6-0.4-1-0.6-2-0.1-0.4-0.2-0.8-0.1-0.7v-0.2l-0.3-0.6-0.2-0.3-0.6-0.9-2.7-3-3.7-3.8-20.1-0.4-20.1-0.4-1.2 4.6-0.2 0.8-0.3 2.2-0.2 1.1-0.2 2.6-0.2 2.6v5.8 1.4l0.1 2.7 0.1 1.3 0.2 2.3 0.2 1.1 0.3 1.9 0.6 1.9 1.6 3 18.4-0.1 1.4-0.1h2.7 1.3l2.3-0.1h1.1l2-0.1h1l1.7-0.1 0.8-0.1 1.3-0.1h0.6l1-0.2h0.4l0.5-0.2 0.3-0.1z"/></svg>