<svg version="1.2" xmlns="http://www.w3.org/2000/svg" viewBox="0 0 1000 1000" width="1000" height="1000"><style>.a{opacity:0;fill:#fefffe}.b{opacity:0;fill:#e0ecee}.c{opacity:0;fill:#f3f3f3}.d{fill:#0e0e0e}.e{opacity:.3;fill:#9fa8b4}.f{opacity:0;fill:#cbdde2}.g{opacity:0;fill:#f4f4f4}.h{opacity:0;fill:#ecf2f9}.i{opacity:.1;fill:#d9d9d9}.j{opacity:.2;fill:#cbcbcb}.k{opacity:.2;fill:#cfcfcf}.l{opacity:.9;fill:#7b7b7b}.m{opacity:0;fill:#e6ecf4}.n{opacity:.2;fill:#c7c7c7}.o{opacity:.2;fill:#c9c9c9}.p{opacity:.1;fill:#d4d4d4}.q{opacity:0;fill:#e8e8e8}.r{opacity:.4;fill:#929292}.s{opacity:.3;fill:#bcbcbc}.t{opacity:.2;fill:#c5c5c5}.u{opacity:0;fill:#dbe7f3}.v{opacity:0;fill:#ddd}.w{opacity:.1;fill:#f4f4f4}.x{opacity:0;fill:#cfcfcf}.y{opacity:.3;fill:#bebebe}.z{fill:#0e2c5d}.A{opacity:0;fill:#cdcdcd}.B{opacity:0;fill:#dbdbdb}.C{opacity:0;fill:#e0e0e0}.D{opacity:0;fill:#e3f2f8}.E{opacity:0;fill:#e7e7e7}.F{opacity:0;fill:#cecece}.G{opacity:0;fill:#dfdfdf}.H{opacity:.3;fill:#b5b5b5}.I{opacity:0;fill:#dae3f0}.J{opacity:.1;fill:#c3c3c3}.K{opacity:.1;fill:#cacaca}.L{opacity:0;fill:#ecf1f7}.M{opacity:0;fill:#ededed}.N{opacity:.2;fill:#b5b5b5}.O{opacity:.1;fill:#dedede}.P{opacity:0;fill:#e1e1e0}.Q{opacity:.1;fill:#d6e5f1}.R{opacity:0;fill:#dbe7f2}.S{opacity:.2;fill:#b4b4b6}.T{opacity:0;fill:#e7eef5}.U{fill:#112f60}.V{opacity:.1;fill:#c6c6c6}.W{opacity:.1;fill:#cfe8f0}.X{opacity:.3;fill:#adadad}.Y{opacity:0;fill:#dbedf3}.Z{opacity:0;fill:#dadada}.a0{opacity:0;fill:#e2edf5}.a1{opacity:0;fill:#dde4ef}.a2{opacity:.1;fill:#c7d9e8}.a3{opacity:.4;fill:#a5a5a5}.a4{opacity:0;fill:#e9f0f7}.a5{opacity:.2;fill:#cacaca}.a6{opacity:.2;fill:#b9b9b9}.a7{opacity:.4;fill:#979797}.a8{opacity:.2;fill:#d1ecf9}.a9{opacity:0;fill:#e3f0f5}.aa{opacity:0;fill:#daebf2}.ab{opacity:.8;fill:#97b3c8}.ac{fill:#0f3b68}.ad{opacity:.4;fill:#959595}.ae{opacity:.6;fill:#abc3d2}.af{opacity:0;fill:#cae4eb}.ag{opacity:.4;fill:#bfdceb}.ah{opacity:.1;fill:#c6deec}.ai{opacity:.1;fill:#ddf0f8}.aj{opacity:.1;fill:#d6d6d6}.ak{opacity:.6;fill:#a6bfd0}.al{opacity:0;fill:#c7e6ec}.am{opacity:.2;fill:#bebebe}.an{opacity:.1;fill:#d8e5f0}.ao{opacity:0;fill:#dcdcdc}.ap{opacity:0;fill:#e6f4f9}.aq{opacity:0;fill:#e2eef6}.ar{fill:#0c0c0c}.as{opacity:0;fill:#e5f0f6}.at{opacity:.4;fill:#b8d7df}.au{fill:#162e5e}.av{fill:#0d3f82}.aw{opacity:0;fill:#d1dce5}.ax{fill:#708aa3}.ay{opacity:.4;fill:#cbd6db}.az{opacity:.2;fill:#c8c8c8}.aA{fill:#224a70}.aB{opacity:0;fill:#daf1f8}.aC{opacity:0;fill:#efefef}.aD{opacity:.5;fill:#838584}.aE{opacity:.3;fill:#b8cfe0}.aF{opacity:0;fill:#e2f1f8}.aG{opacity:0;fill:#e2e2e2}.aH{fill:#01284a}.aI{opacity:0;fill:#dbe2e6}.aJ{opacity:.3;fill:#a5c9d1}.aK{opacity:.7;fill:#989897}.aL{opacity:0;fill:#e2f6fb}.aM{opacity:.1;fill:#e1e1e1}.aN{opacity:0;fill:#e5f7fa}.aO{opacity:.2;fill:#bdbdbd}.aP{opacity:.3;fill:#c0d2da}.aQ{opacity:0;fill:#e3f0f6}.aR{opacity:1;fill:#093d61}.aS{opacity:.1;fill:#cecece}.aT{opacity:.2;fill:#d4d4d4}.aU{opacity:0;fill:#e0edf5}.aV{opacity:0;fill:#dce9f1}.aW{opacity:.1;fill:#d7e4eb}.aX{fill:#2a4e71}.aY{opacity:0;fill:#eaeaea}.aZ{fill:#191919}.b0{opacity:.1;fill:#b5b5b5}.b1{fill:#202020}.b2{opacity:.7;fill:#989898}.b3{opacity:.2;fill:#c3c3c3}.b4{fill:#1a1a1a}.b5{opacity:0;fill:#c9e4ee}.b6{opacity:.3;fill:#c9d6e0}.b7{opacity:.9;fill:#194569}.b8{opacity:.3;fill:#b9d1df}.b9{opacity:0;fill:#d7f2f7}.ba{opacity:0;fill:#e4e4e4}.bb{fill:#141414}.bc{opacity:.1;fill:#efefef}.bd{opacity:0;fill:#cbe3ed}.be{fill:#175586}.bf{fill:#0e4087}.bg{opacity:0;fill:#e3ebf2}.bh{opacity:0;fill:#dce5f1}.bi{opacity:0;fill:#d9e6ee}.bj{opacity:.9;fill:#7c7c7c}.bk{opacity:0;fill:#e9e9e9}.bl{opacity:0;fill:#f8f8f8}.bm{opacity:0;fill:#d5d5d5}.bn{opacity:.9;fill:#91afc5}.bo{opacity:.3;fill:#b3b3b3}.bp{opacity:.5;fill:#858585}.bq{opacity:.1;fill:#d0d0d0}.br{fill:#333}.bs{opacity:0;fill:#d4e8f1}.bt{opacity:.3;fill:#cacaca}.bu{opacity:.1;fill:#cdcdcd}.bv{opacity:.3;fill:#b3ceda}.bw{fill:#185386}.bx{opacity:0;fill:#d1e8f1}.by{fill:#18507f}.bz{opacity:.3;fill:#b8b8b8}.bA{opacity:0;fill:#cfdbe2}.bB{fill:#232323}.bC{fill:#1e4f74}.bD{opacity:.1;fill:#cfcfcf}.bE{opacity:.2;fill:#bbb}.bF{opacity:.2;fill:#bfe2ef}.bG{opacity:0;fill:#cae7f0}.bH{opacity:0;fill:#d6edf3}.bI{fill:#113d61}.bJ{opacity:.1;fill:#d3d3d3}.bK{opacity:.1;fill:#ccc}.bL{opacity:.2;fill:#aacbd8}.bM{opacity:.3;fill:#afafaf}.bN{opacity:.3;fill:#cdcdcd}.bO{opacity:.8;fill:#676767}.bP{opacity:.3;fill:#b7dae4}.bQ{opacity:.1;fill:#d0e6f5}.bR{opacity:0;fill:#e2e2e1}.bS{opacity:.1;fill:#e6e6ea}.bT{opacity:0;fill:#f4fafc}.bU{opacity:0;fill:#cde8f3}.bV{opacity:.3;fill:#a3a3a3}.bW{opacity:.1;fill:#eaeaea}.bX{opacity:.7;fill:#7e7e7e}.bY{opacity:0;fill:#e3e3e1}.bZ{opacity:.8;fill:#818181}.c0{opacity:0;fill:#cde3eb}.c1{fill:#0f2f5f}.c2{opacity:0;fill:#e8ecf5}.c3{opacity:0;fill:#c7c7c7}.c4{opacity:.1;fill:#cee9fb}.c5{fill:#0e2954}.c6{opacity:0;fill:#f1f1f1}.c7{opacity:.8;fill:#445c7d}.c8{opacity:0;fill:#ddeefe}.c9{opacity:.1;fill:#edeeed}.ca{opacity:0;fill:#dceff7}.cb{opacity:.3;fill:#aac8d9}.cc{opacity:.1;fill:#e2e2e2}.cd{opacity:0;fill:#dcf5f9}.ce{opacity:0;fill:#d3f1f7}.cf{opacity:0;fill:#e5e5e5}.cg{opacity:.4;fill:#bed9e7}.ch{opacity:.6;fill:#b4c6cf}.ci{opacity:0;fill:#d0eff5}.cj{opacity:.1;fill:#cce4ec}.ck{opacity:.4;fill:#abbdca}.cl{opacity:0;fill:#cddee8}.cm{opacity:0;fill:#d8ebf1}.cn{fill:#0e3f67}.co{opacity:.8;fill:#a1b9cc}.cp{opacity:.3;fill:#a9c8da}.cq{opacity:.1;fill:#c6e8f2}.cr{opacity:0;fill:#d7f1f6}.cs{opacity:.2;fill:#d0dde4}.ct{fill:#21476a}.cu{opacity:0;fill:#ddedf2}.cv{opacity:.1;fill:#e0e0e0}.cw{opacity:0;fill:#d7e8f2}.cx{opacity:.5;fill:#9dbac6}.cy{opacity:0;fill:#daf1f9}.cz{opacity:.2;fill:#d5d5d5}.cA{opacity:.2;fill:#c9dde8}.cB{fill:#154d7e}.cC{opacity:0;fill:#c2c2c2}.cD{opacity:.2;fill:#bdd5e1}.cE{opacity:0;fill:#ebf6f9}.cF{opacity:.4;fill:#a0bcd1}.cG{opacity:.1;fill:#ddd}.cH{opacity:.1;fill:#c0dde8}.cI{opacity:.1;fill:#c2d9e7}.cJ{fill:#21557d}.cK{opacity:.5;fill:#9d9d9d}.cL{opacity:0;fill:#d7eef3}.cM{opacity:.2;fill:#e1e1e1}.cN{opacity:.9;fill:#797979}.cO{fill:#1f466b}.cP{opacity:0;fill:#d1ebf1}.cQ{opacity:0;fill:#d3eaf2}.cR{opacity:0;fill:#d2eef3}.cS{opacity:.6;fill:#95bacb}.cT{opacity:0;fill:#ecf8fc}.cU{opacity:0;fill:#d9f3f9}.cV{opacity:0;fill:#d2d2d2}.cW{opacity:0;fill:#e3f7fb}.cX{opacity:.6;fill:#939392}.cY{opacity:.3;fill:#d1e8f4}.cZ{opacity:0;fill:#d7eef6}.d0{opacity:0;fill:#f0f0f0}.d1{opacity:.4;fill:#949494}.d2{opacity:0;fill:#ececec}.d3{opacity:0;fill:#ebebeb}.d4{opacity:.1;fill:#d7d7d7}.d5{opacity:.6;fill:#78787a}.d6{opacity:.5;fill:#8c8c8c}.d7{opacity:.1;fill:#cbcbcb}.d8{opacity:.5;fill:#b2b2b2}.d9{opacity:0;fill:#f2f2f2}</style><path fill-rule="evenodd" class="a" d="m176.5 401.5q-1 0-2 0 0.4-3.6 2 0z"/><path fill-rule="evenodd" class="b" d="m116.5 401.5q-1 0.5-2 1 0.3-2.9 2-1z"/><path fill-rule="evenodd" class="c" d="m174.5 401.5q-1.1 2.8-3 5-0.8-3 1.5-6 0.6 0.8 1.5 1z"/><path fill-rule="evenodd" class="d" d="m174.5 401.5q1 0 2 0 1.4 1.2 2 3-0.3 1.5 1 2 1.7 1.7 2 4-0.1 2.3 2 3 1.7 1.7 2 4-0.1 2.3 2 3 0 0.5 0 1-0.1 2.3 2 3-0.1 2.3 2 3 1.8 1.5 2 4-0.1 2.3 2 3 0 0.5 0 1 0.6 1.8 2 3-0.1 2.3 2 3 0.2 2.5 2 4-0.1 2.3 2 3-0.1 2.3 2 3 0 0.5 0 1-0.1 2.3 2 3 0.2 2.5 2 4-0.1 2.3 2 3 0 0.5 0 1 0.5 1.5 2 2 0 0.5 0 1-0.1 2.3 2 3-0.1 2.3 2 3 0 0.5 0 1-0.1 2.3 2 3-0.1 2.3 2 3 0 0.5 0 1-0.1 2.3 2 3-0.1 2.3 2 3 0 0.5 0 1-0.1 2.3 2 3-0.1 2.3 2 3 1.8 1.5 2 4-0.1 2.3 2 3 0 0.5 0 1 0.6 1.8 2 3-0.1 2.3 2 3 1.8 1.5 2 4-0.1 2.3 2 3 0.2 2.5 2 4-0.1 2.3 2 3 1.8 1.5 2 4-0.1 2.3 2 3 1.7 1.7 2 4-0.1 2.3 2 3-0.1 2.3 2 3 0 0.5 0 1 0.6 1.8 2 3-30.2 2-61.5 2-30.8-0.5-61.5-1 0.9-1.4 1-3 2.1-0.7 2-3 0-1 0-2 0.5 0 1 0 50.9-1 102-2-1.2-2.8-3-5 0.1-2.3-2-3 0-0.5 0-1-0.6-1.8-2-3-0.6-1.8-2-3-0.2-2.5-2-4-0.6-1.8-2-3-0.9-4.2-4-7-0.2-2.5-2-4-0.6-1.8-2-3-0.2-2.5-2-4-3.2-3.4-5-8 0.3-1.5-1-2 0.1-2.3-2-3-1.7-1.7-2-4-0.2-2.5-2-4-2.5-5.4-6-10 0.1-2.3-2-3 0-0.5 0-1-2.5-5.4-6-10-0.6-1.8-2-3 0-0.5 0-1-0.6-1.8-2-3 0.1-2.3-2-3 0.1-2.3-2-3-1.7-1.7-2-4-0.9-4.2-4-7 0-0.5 0-1-0.8-2.4-3-1.5-1.9 2.6-3 5.5-1.4 1.2-2 3 0 0.5 0 1-2.1 0.7-2 3-1.4 1.2-2 3 0 0.5 0 1-1.4 1.2-2 3-0.8 3.1-3 1-1.5-3.4-4-6 0-2 0-4 0.9-1.3 1-3 0.5 0 1 0 2.1-2.1 3-5 1.3-0.5 1-2 2.1-2.1 3-5 2.1-0.7 2-3 0-0.5 0-1 2.1-0.7 2-3 1.3-0.5 1-2-0.3-1.5 1-2 1.9-2.2 3-5z"/><path fill-rule="evenodd" class="e" d="m116.5 401.5q2.1 0.7 2 3-2.1-0.7-2-3z"/><path fill-rule="evenodd" class="f" d="m114.5 402.5q0.1 2.3-2 3-0.1-2.3 2-3z"/><path fill-rule="evenodd" class="g" d="m178.5 404.5q3.3-0.1 1 2-1.3-0.5-1-2z"/><path fill-rule="evenodd" class="h" d="m118.5 404.5q2.5 1.5 4.5 4 0.8 3.8 3.5 6.5-0.8 0.6-1 1.5-4.2-5.5-7-12z"/><path fill-rule="evenodd" class="i" d="m170.5 408.5q0.3 1.5-1 2-2.3-2.1 1-2z"/><path fill-rule="evenodd" class="j" d="m169.5 410.5q0.1 2.3-2 3-0.8-1.9 2-3z"/><path fill-rule="evenodd" class="k" d="m181.5 410.5q2.1 0.7 2 3-2.1-0.7-2-3z"/><path fill-rule="evenodd" class="l" d="m167.5 414.5q0.1 2.3-2 3-1.5-2.4 2-3z"/><path fill-rule="evenodd" class="m" d="m125.5 416.5q3.4 1.2 3 5-2.1-2.1-3-5z"/><path fill-rule="evenodd" class="n" d="m165.5 417.5q-0.9 2.9-3 5-0.3-3.6 3-5z"/><path fill-rule="evenodd" class="o" d="m185.5 417.5q2.1 0.7 2 3-2.1-0.7-2-3z"/><path fill-rule="evenodd" class="p" d="m162.5 422.5q0.3 1.5-1 2-2.3-2.1 1-2z"/><path fill-rule="evenodd" class="q" d="m177.5 423.5q-2 0.5 0 1 3.1 2.8 4 7-2.3-2.8-5-5.5-2.7-0.3-5 1.5 1.1-2.9 3-5.5 2.2-0.9 3 1.5z"/><path fill-rule="evenodd" class="r" d="m187.5 421.5q2.1 0.7 2 3-2.1-0.7-2-3z"/><path fill-rule="evenodd" class="s" d="m161.5 424.5q-0.9 2.9-3 5-0.3-3.6 3-5z"/><path fill-rule="evenodd" class="t" d="m189.5 424.5q2.1 0.7 2 3-2.1-0.7-2-3z"/><path fill-rule="evenodd" class="u" d="m128.5 421.5q2.9 1.7 4.5 5 3.7 6.9 6.5 14-3.5-5-7-10-1.6-4.7-4-9z"/><path fill-rule="evenodd" class="a" d="m157.5 429.5q-1-2 0 0z"/><path fill-rule="evenodd" class="v" d="m171.5 427.5q0.3 2.5-2 3 0.6-1.8 2-3z"/><path fill-rule="evenodd" class="w" d="m156.5 432.5q0 2 0 4-4-2 0-4z"/><path fill-rule="evenodd" class="x" d="m169.5 431.5q0.1 2.3-2 3-0.1-2.3 2-3z"/><path fill-rule="evenodd" class="y" d="m193.5 431.5q2.1 0.7 2 3-2.1-0.7-2-3z"/><path fill-rule="evenodd" class="z" d="m116.5 401.5q-0.1 2.3 2 3 2.8 6.5 7 12 0.9 2.9 3 5 2.4 4.3 4 9-8.1-10.4-15-21.5-3.1 0-6 2-13.2 26.6-27.5 52.5-7.4 7-10.5 16.5 2.2 3.1-2 2.5 0 2.5-2 4 0.3 0.9 1 1.5-4.6 4.3-9 8.5 0.5-2 1-4 26.1-42.8 50-87 2.1-0.7 2-3 1-0.5 2-1z"/><path fill-rule="evenodd" class="A" d="m195.5 435.5q2.3 0.5 2 3-1.4-1.2-2-3z"/><path fill-rule="evenodd" class="B" d="m167.5 434.5q0.3 2.5-2 3 0.6-1.8 2-3z"/><path fill-rule="evenodd" class="C" d="m183.5 435.5q2.1 0.7 2 3-2.1-0.7-2-3z"/><path fill-rule="evenodd" class="D" d="m118.5 425.5q-2.7-1.2-4.5 2-11 19-22 38-1 1.1-2.5 1 11.9-21.4 24-43 3.8-3.8 5 2z"/><path fill-rule="evenodd" class="E" d="m165.5 438.5q0.3 2.5-2 3 0.6-1.8 2-3z"/><path fill-rule="evenodd" class="F" d="m185.5 438.5q2.1 0.7 2 3-2.1-0.7-2-3z"/><path fill-rule="evenodd" class="G" d="m156.5 436.5q2.5 2.6 4 6-4.2-1.3-4-6z"/><path fill-rule="evenodd" class="H" d="m197.5 438.5q2.1 0.7 2 3-2.1-0.7-2-3z"/><path fill-rule="evenodd" class="I" d="m139.5 440.5q3.2 2.4 5 6-1 0-1 1-2.4-3.2-4-7z"/><path fill-rule="evenodd" class="J" d="m187.5 441.5q1.4 1.2 2 3-2.3-0.5-2-3z"/><path fill-rule="evenodd" class="K" d="m199.5 441.5q2.4 1.2 2 4-1.8-1.5-2-4z"/><path fill-rule="evenodd" class="L" d="m144.5 446.5q1.4 1.6 1 4-1.4-1.2-2-3 1 0 1-1z"/><path fill-rule="evenodd" class="M" d="m189.5 445.5q1.4 1.2 2 3-2.3-0.5-2-3z"/><path fill-rule="evenodd" class="N" d="m201.5 445.5q2.1 0.7 2 3-2.1-0.7-2-3z"/><path fill-rule="evenodd" class="O" d="m203.5 448.5q2.1 0.7 2 3-2.1-0.7-2-3z"/><path fill-rule="evenodd" class="P" d="m191.5 448.5q3.5 4.6 6 10-1.5 0.1-2.5-1-2.6-4.2-3.5-9z"/><path fill-rule="evenodd" class="Q" d="m112.5 405.5q-23.9 44.2-50 87 23.7-42.4 47.5-85 1.1-1.3 2.5-2z"/><path fill-rule="evenodd" class="R" d="m132.5 449.5q3.1 2.8 4 7-3.1-2.8-4-7z"/><path fill-rule="evenodd" class="S" d="m205.5 452.5q2.1 0.7 2 3-2.1-0.7-2-3z"/><path fill-rule="evenodd" class="T" d="m145.5 450.5q5.8 5.1 9 12.5-0.8 0.6-1 1.5-4.6-6.6-8-14z"/><path fill-rule="evenodd" class="U" d="m113.5 423.5q-12.1 21.6-24 43-1.8 1.5-2 4-15 25-30 50 1.5-3.8 2.5-8 5.7-8.2 10.5-17 1.2-2.9 1.5-6 2.9-4.4 7-8 3.8-8.5 8-17 6.5-8.8 11.5-19-0.3-0.9-1-1.5 3.7-1.8 5.5-5.5 4.2-6.5 6.5-14 1.8-1.4 4-1z"/><path fill-rule="evenodd" class="V" d="m207.5 455.5q2.4 1.2 2 4-1.8-1.5-2-4z"/><path fill-rule="evenodd" class="W" d="m136.5 456.5q1 0.5 2 1 0 1 0 2-2.1-0.7-2-3z"/><path fill-rule="evenodd" class="x" d="m197.5 459.5q2.1 0.7 2 3-2.1-0.7-2-3z"/><path fill-rule="evenodd" class="X" d="m209.5 459.5q2.1 0.7 2 3-2.1-0.7-2-3z"/><path fill-rule="evenodd" class="B" d="m211.5 463.5q2 0 2 2-1.5-0.5-2-2z"/><path fill-rule="evenodd" class="Y" d="m140.5 463.5q2.1 0.7 2 3-2.1-0.7-2-3z"/><path fill-rule="evenodd" class="Z" d="m199.5 462.5q3.5 4.6 6 10-4.7-3.8-6-10z"/><path fill-rule="evenodd" class="a0" d="m153.5 464.5q1.5-0.1 2.5 1 3 5 6 10 6.6 11.1 11.5 23-10.5-16.6-20-34z"/><path fill-rule="evenodd" class="a1" d="m89.5 466.5q1.5 3-2 4 0.2-2.5 2-4z"/><path fill-rule="evenodd" class="a2" d="m142.5 466.5q2.1 0.7 2 3-2.1-0.7-2-3z"/><path fill-rule="evenodd" class="a3" d="m213.5 466.5q2.1 0.7 2 3-2.1-0.7-2-3z"/><path fill-rule="evenodd" class="a4" d="m144.5 469.5q1.8 1.5 2 4-2.4-1.2-2-4z"/><path fill-rule="evenodd" class="a5" d="m215.5 469.5q2.1 0.7 2 3-2.1-0.7-2-3z"/><path fill-rule="evenodd" class="a6" d="m205.5 472.5q1.8 1.5 2 4-2.4-1.2-2-4z"/><path fill-rule="evenodd" class="a7" d="m217.5 473.5q2.1 0.7 2 3-2.1-0.7-2-3z"/><path fill-rule="evenodd" class="n" d="m219.5 476.5q2.1 0.7 2 3-2.1-0.7-2-3z"/><path fill-rule="evenodd" class="a8" d="m872.5 482.5q-3.6 0-7-1.5-23-0.8-46-0.5 5.2-1.5 11-2 10.8 2 22.5 0 7.3 0.4 14.5 1.5 2.7 1.1 5 2.5z"/><path fill-rule="evenodd" class="a9" d="m921.5 479.5q11.8-1.9 24 0.5 2.7 1.1 5 2.5-2 0-4 0-4.1-2.2-9-2.5-8-0.7-16-0.5z"/><path fill-rule="evenodd" class="aa" d="m758.5 479.5q-3.1 1.7-7 2 2.9-2.5 7-2z"/><path fill-rule="evenodd" class="ab" d="m921.5 479.5q-3 2.1-7 2 2.9-2.5 7-2z"/><path fill-rule="evenodd" class="C" d="m209.5 480.5q2.1 0.7 2 3-2.3-0.5-2-3z"/><path fill-rule="evenodd" class="ac" d="m758.5 479.5q18-2.1 34 6 0.3 1.5-1 2-9.6-6.5-21.5-5-13.2-1-25 5-1.5-0.5-1.5-2 2.5-0.2 4-2 2.5-0.2 4-2 3.9-0.3 7-2z"/><path fill-rule="evenodd" class="ad" d="m221.5 480.5q2.1 0.7 2 3-2.1-0.7-2-3z"/><path fill-rule="evenodd" class="ae" d="m751.5 481.5q-1.5 1.8-4 2 1.2-2.4 4-2z"/><path fill-rule="evenodd" class="af" d="m793.5 485.5q-0.5 0-1 0-16-8.1-34-6 15.1-3.6 30 2.5 3.1 1 5 3.5z"/><path fill-rule="evenodd" class="ag" d="m914.5 481.5q-1.5 1.8-4 2 1.2-2.4 4-2z"/><path fill-rule="evenodd" class="ah" d="m872.5 482.5q3.3 0.4 5 3-3.3-0.4-5-3z"/><path fill-rule="evenodd" class="ai" d="m950.5 482.5q3.1-0.1 5 2-3.1 0.1-5-2z"/><path fill-rule="evenodd" class="aj" d="m211.5 483.5q1.3 0.5 1 2-3.3 0.1-1-2z"/><path fill-rule="evenodd" class="ak" d="m747.5 483.5q-1.5 1.8-4 2 1.2-2.4 4-2z"/><path fill-rule="evenodd" class="al" d="m910.5 483.5q-2.6 2.6-6 4 1.8-3.8 6-4z"/><path fill-rule="evenodd" class="am" d="m223.5 483.5q2.1 0.7 2 3-2.1-0.7-2-3z"/><path fill-rule="evenodd" class="an" d="m955.5 484.5q3.3 0.4 5 3-3.3-0.4-5-3z"/><path fill-rule="evenodd" class="ao" d="m124.5 488.5q1.7-1.9 2 1-1-0.5-2-1z"/><path fill-rule="evenodd" class="q" d="m124.5 488.5q-1.1 2.8-3 5-1.3-3.8 3-5z"/><path fill-rule="evenodd" class="ap" d="m87.5 470.5q0.2 2.1-0.5 4-12 21-24 42-2.1 3.8-5.5 6 0-1 0-2 15-25 30-50z"/><path fill-rule="evenodd" class="a0" d="m146.5 473.5q9.6 13.7 17 29-9.6-13.7-17-29z"/><path fill-rule="evenodd" class="r" d="m225.5 487.5q2.1 0.7 2 3-2.1-0.7-2-3z"/><path fill-rule="evenodd" class="aq" d="m799.5 489.5q2 0 2 2-1.5-0.5-2-2z"/><path fill-rule="evenodd" class="ar" d="m124.5 488.5q1 0.5 2 1 1.3 0.5 1 2-0.1 2.3 2 3 0 3 0 6-5.5 10-11 20-4.8 7.2-9 15-2.1 0.7-2 3-1.4 1.2-2 3 0 1 1 1-0.5 1.3-2 1-1.3 0.5-1 2-10 19.1-21 36-2.1 1.9-2 5 66.3 0.5 132-1-1.1-2.8-3-5-1 0-1-1-1.1-2.8-3-5-2.1-0.7-2-3 0.3-2.5-2-3 0-0.5 0-1-1.2-2.3-1-5 4.5 0 9 0 0.5 1.5 2 2-0.1 2.3 2 3-0.1 2.3 2 3 0 0.5 0 1 0.6 1.8 2 3-0.1 2.3 2 3 0.6 1.8 2 3-0.1 2.3 2 3 1.7 1.7 2 4-0.1 2.3 2 3 0.6 1.8 2 3-82.5 3-166 2 0-0.5 0-1 1.8-1.5 2-4 1.4-1.2 2-3 1.3-0.5 1-2 2.1-2.1 3-5 1.8-1.5 2-4-0.3-1.5 1-2 2.6-1.1 3-4 0-0.5 0-1 1.3-0.5 1-2 2.2-1.4 3-4 1-2 0-3.5 0.9-0.7 2-0.5 2.4-3.2 4-7 1.4-1.2 2-3 0-0.5 0-1 1.5-0.5 2-2 0-0.5 0-1 1.4-1.2 2-3 1.8-1.5 2-4 2.1-2.1 3-5 2.1-2.1 3-5 1.8-1.5 2-4 2.1-0.7 2-3-0.3-1.5 1-2 2.1-2.1 3-5 2.1-0.7 2-3 0.1-1.7 1-3 2.1-0.7 2-3 0.5-1 1-2 2.1-0.7 2-3 1.3-0.5 1-2 1.9-2.2 3-5 1.9-2.2 3-5z"/><path fill-rule="evenodd" class="as" d="m864.5 490.5q-17 0-34 0 0 16.5 0 33-0.5 0-1 0-0.5 0-1 0 0-17 0-34 18.3-0.5 36 1z"/><path fill-rule="evenodd" class="at" d="m904.5 487.5q-0.9 3.4-4 5 1-3.4 4-5z"/><path fill-rule="evenodd" class="au" d="m119.5 425.5q2.5 1.5 4.5 4 4.1 9.8 10.5 18 2.2 2.4 5 4 3.8-1.5 0-2.5 1.2-2.7-0.5-5.5-5.7-5.4-6.5-13 3.5 5 7 10 1.6 3.8 4 7 0.6 1.8 2 3 3.4 7.4 8 14 9.5 17.4 20 34 0.6 1.8 2 3-0.1 2.3 2 3 1.3 0.5 1 2-1.8 1.9-5 2-3.6-0.2-7-1-0.4-3.3-3-5-7.4-15.3-17-29-0.2-2.5-2-4 0.1-2.3-2-3 0.1-2.3-2-3-1.8-1.5-2-4 0-1 0-2-1-0.5-2-1-0.9-4.2-4-7-0.9-4.2-4-7-1.3-0.5-1-2-1.8-4.5-5-8-1.3-0.5-1-2-0.6-2.7-2-5z"/><path fill-rule="evenodd" class="av" d="m138.5 457.5q0-2.5 0-5 2 0.3 3.5-1 1.5 2.2 4 3 4.7 7.1 5.5 14.5 3.2 1.5 5 4.5 5.9 8.4 9.5 18 6.4 5.5 5.5 14-2 0.3-3.5-1-4.1-10.8-12-19-7.8-12.3-13.5-25.5-1.3-2.4-4-2.5z"/><path fill-rule="evenodd" class="aw" d="m801.5 491.5q2 0 2 2-1.5-0.5-2-2z"/><path fill-rule="evenodd" class="ax" d="m943.5 490.5q4 0.6 7.5 0 0.6 2.1 1.5 4-4.8-1.6-9-4z"/><path fill-rule="evenodd" class="ay" d="m963.5 489.5q1.6 0.2 2 2-0.1 1.4-1 2 0.1-2.2-1-4z"/><path fill-rule="evenodd" class="az" d="m227.5 490.5q2.1 0.7 2 3-2.1-0.7-2-3z"/><path fill-rule="evenodd" class="aA" d="m946.5 482.5q2 0 4 0 1.9 2.1 5 2 1.7 2.6 5 3 2.3-0.1 3 2 1.1 1.8 1 4-1.6 6.2-7 4-0.7-2.1-3-2-1.5 0.3-2-1-0.9-1.9-1.5-4-3.5 0.6-7.5 0-11.6-4.6-24-1.5-3.8 0.6-6 3.5-1.7-1.2 0-3 11.3-5.7 24-3.5 6.1 1.4 12 3.5 2.7-0.8 5-2.5-4.2-2.3-8-4.5z"/><path fill-rule="evenodd" class="aB" d="m943.5 490.5q-7.3-0.8-14.5-2-8.2 0.8-15.5 4 2.2-2.9 6-3.5 12.4-3.1 24 1.5z"/><path fill-rule="evenodd" class="aC" d="m121.5 493.5q-1.1 2.8-3 5-0.4-3.8 3-5z"/><path fill-rule="evenodd" class="aD" d="m127.5 491.5q2.1 0.7 2 3-2.1-0.7-2-3z"/><path fill-rule="evenodd" class="aE" d="m735.5 491.5q-1 2-3 3 0-3 3-3z"/><path fill-rule="evenodd" class="aF" d="m877.5 485.5q10.6 5.7 11.5 18 1.8 11.1-5.5 19 0-1 0-2 2.7-2.8 3.5-7 3.7-17-9.5-28z"/><path fill-rule="evenodd" class="aG" d="m217.5 493.5q1.8 1.5 2 4-3.5-1-2-4z"/><path fill-rule="evenodd" class="aH" d="m819.5 481.5q1.5 44.2 1 89 3.8-0.5 7 1-4 0-8 0 0-45 0-90z"/><path fill-rule="evenodd" class="aI" d="m803.5 494.5q-0.4 2.9-3 4 0.4-2.9 3-4z"/><path fill-rule="evenodd" class="aJ" d="m954.5 495.5q2.3-0.1 3 2-2.3 0.1-3-2z"/><path fill-rule="evenodd" class="aK" d="m129.5 494.5q3.7 3.1 0 6 0-3 0-6z"/><path fill-rule="evenodd" class="E" d="m118.5 498.5q0.3 1.5-1 2-2.3-2.1 1-2z"/><path fill-rule="evenodd" class="aL" d="m173.5 498.5q2.3 0.5 2 3-1.4-1.2-2-3z"/><path fill-rule="evenodd" class="aM" d="m219.5 497.5q1.4 1.2 2 3-2.3-0.5-2-3z"/><path fill-rule="evenodd" class="aN" d="m746.5 495.5q-4 5-9 9 3-6 9-9z"/><path fill-rule="evenodd" class="aO" d="m231.5 497.5q2.1 0.7 2 3-2.1-0.7-2-3z"/><path fill-rule="evenodd" class="aP" d="m793.5 497.5q2.3 0.3 4 2 1.4-0.9 3-1-4 4.1-7-1z"/><path fill-rule="evenodd" class="aQ" d="m898.5 496.5q-1.5 9.1 1 18-3.3-4.3-3-10-0.2-4.5 2-8z"/><path fill-rule="evenodd" class="aR" d="m868.5 490.5q-2 0-4 0-17.7-1.5-36-1 0 17 0 34-1.7-0.9-3-2.5 1.2-15.1 1.5-30.5 1-2.3 3.5-3 17.9 1.2 36 1.5 1.4 0.4 2 1.5z"/><path fill-rule="evenodd" class="aS" d="m221.5 500.5q1.8 1.5 2 4-2.4-1.2-2-4z"/><path fill-rule="evenodd" class="B" d="m233.5 501.5q2.3 0.5 2 3-1.4-1.2-2-3z"/><path fill-rule="evenodd" class="aT" d="m117.5 500.5q0.1 2.3-2 3-0.8-1.9 2-3z"/><path fill-rule="evenodd" class="aU" d="m62.5 492.5q-0.5 2-1 4-14.3 22.5-27 46-0.5 0-1 0 0-2.7 1.5-5 13.5-22.8 27.5-45z"/><path fill-rule="evenodd" class="aV" d="m163.5 502.5q2.6 1.7 3 5-3.3-1.4-3-5z"/><path fill-rule="evenodd" class="aW" d="m175.5 501.5q2.1 0.7 2 3-2.1-0.7-2-3z"/><path fill-rule="evenodd" class="F" d="m499.5 505.5q-2.4 0.4-4-1-0.1-0.7 0.5-1 2 0.9 3.5 2z"/><path fill-rule="evenodd" class="aX" d="m921.5 479.5q8-0.2 16 0.5 4.9 0.3 9 2.5-15-2.2-30 0.5-22.3 8.8-14.5 31.5 9.2 7.7 20.5 11.5 12.6 1.6 25 4 1.1 1 1 2.5-1 0-2 0-3.4-2.6-8-2-8.9-0.3-17-3-3.5-2.3-8-2-2.5-2.3-6-3-3.9-1.4-6-5 0.1-2.3-2-3-2.5-8.9-1-18 0.2-2.5 2-4 3.1-1.6 4-5 3.4-1.4 6-4 2.5-0.2 4-2 4 0.1 7-2z"/><path fill-rule="evenodd" class="aY" d="m114.5 505.5q0.1 2.3-2 3-0.3-2.5 2-3z"/><path fill-rule="evenodd" class="aZ" d="m426.5 505.5q1.6 1.4 4 1 17.7 5.7 22 24 0.2 9.6-1 19-7.7 22.5-31.5 24-27.5-2.2-32.5-28 0-6.5 0-13 0-1 0-2 1.4-1.1 1-3 2.1-7.7 8-13 1.5-0.5 2-2 12.1-10.2 28-7zm-26.5 20q-9 21 8.5 35.5 26.4 8.9 34.5-17.5 1.6-27.3-25.5-30-11.1 2.3-17.5 12z"/><path fill-rule="evenodd" class="b0" d="m430.5 506.5q-2.4 0.4-4-1-0.1-0.7 0.5-1 2 0.9 3.5 2z"/><path fill-rule="evenodd" class="j" d="m583.5 506.5q4.7-1.5 10-1-0.4 3.4 1 6-0.5 1-1 2-1.5-3.2-1-7-4.5 0-9 0z"/><path fill-rule="evenodd" class="b1" d="m645.5 506.5q1.9 0.4 3-1 14.4-3.6 24 7 0.5 1.5 2 2 3.2 4.4 4.5 10 0.8 23.5 0.5 47-5 0-10 0-0.1-21.2 0-42-1.6-7.2 0-12.5-3.7-0.6-8-1.5-15.8-5.7-25.5 8 0.1 23.6 0.5 48-5.5 0-11 0 0.3-23.5-0.5-47-8.3-15.1-24.5-8.5-3.7 2.2-6.5 5.5-0.3 25.3-1.5 50 0.5-25.4-1-50.5 0.2-3.9 4-7-0.9-0.7-2-0.5 0.5-1 1-2 1.5-0.5 2-2 14.4-9.1 29-1.5 3.4 4.4 8.5 6.5 4.3-6.1 11.5-8z"/><path fill-rule="evenodd" class="b2" d="m648.5 505.5q-1.1 1.4-3 1 1-1.2 2.5-2 0.6 0.3 0.5 1z"/><path fill-rule="evenodd" class="b3" d="m235.5 504.5q2.1 0.7 2 3-2.1-0.7-2-3z"/><path fill-rule="evenodd" class="b1" d="m557.5 571.5q0.5-3.6-1-7-0.9 0.2-1 1-13 12.2-30 5.5-10-5-13.5-15.5-0.8-25-0.5-50 4.9-0.4 9.5 1 0.5 22.5 1 45 7 16.4 24.5 11.5 9.8-4 11-14.5-1.7-20.4-0.5-41 4.6-3.4 10-1 0.8 32.5 0.5 65-5 0-10 0z"/><path fill-rule="evenodd" class="b4" d="m583.5 506.5q4.5 0 9 0-0.5 3.8 1 7 1.1-0.2 2 0.5-3.8 3.1-4 7 1.5 25.1 1 50.5-5 0-10 0-0.4-32.5 1-65z"/><path fill-rule="evenodd" class="b5" d="m725.5 504.5q-0.4 2.9-2 5-0.6-3.3 2-5z"/><path fill-rule="evenodd" class="n" d="m500.5 505.5q1.5 4.2 1 9-2.9 0.4-5-1 2 0 4 0 0-4 0-8z"/><path fill-rule="evenodd" class="b6" d="m178.5 506.5q1.8 2.5-1.5 4-4.6-1.2-9.5-1.5-0.8-0.6-1-1.5 3.4 0.8 7 1 3.2-0.1 5-2z"/><path fill-rule="evenodd" class="b7" d="m792.5 485.5q0.5 0 1 0 3.5 1.3 6 4 0.5 1.5 2 2 0.5 1.5 2 2 0 0.5 0 1-2.6 1.1-3 4-1.6 0.1-3 1-1.7-1.7-4-2-1.1-2.6-4-3-4.8-1.6-9-4-1.1-1.2-3-1.5-9.5-1-19 0-5.3 1-9 4.5-1.2 1.4-3 2-6 3-9 9-6.7 8.7-7 20 0.5 6 1.5 12 0.6 3 2.5 5-0.4 2.8 2 4-0.1 2.3 2 3-0.1 2.3 2 3 1.5 0.5 2 2 1.1 2.6 4 3 0.5 1 1 2-6.7-2.4-11.5-8-3.1-6-6-12-1.8-15.8 2-31 3.6-4.1 6-9 12.5-12.7 31-12 8.8-0.3 16.5 4 1.3-1.2 1-3 2.5 0 5 0 1.3-0.5 1-2z"/><path fill-rule="evenodd" class="b8" d="m789.5 494.5q2.9 0.4 4 3-2.9-0.4-4-3z"/><path fill-rule="evenodd" class="b9" d="m780.5 490.5q-16-2.9-31 3 3.7-3.5 9-4.5 9.5-1 19 0 1.9 0.3 3 1.5z"/><path fill-rule="evenodd" class="ba" d="m223.5 504.5q3.1 2.8 4 7-3-2.1-5-5.5 0.8-0.6 1-1.5z"/><path fill-rule="evenodd" class="bb" d="m495.5 504.5q1.6 1.4 4 1 0.5 0 1 0 0 4 0 8-2 0-4 0-12.9-0.1-19 11-1.1 0.6-1.5 2-1.2 22.6 0.5 45 0.1 0.7-0.5 1-5-1-10-2 0.6-32 0.5-64 4.5 0 9 0-0.5 4.1 1 8 0.9-0.2 1-1 0.7-1.4 2-2.5-1-0.5-2-1 4 0.1 5.5-3.5 1.4 1.7 2.5-0.5 4.9-1.6 10-1.5z"/><path fill-rule="evenodd" class="bc" d="m596.5 509.5q-0.5 1.5-2 2 0-2 2-2z"/><path fill-rule="evenodd" class="bd" d="m737.5 504.5q-8.1 17.9-3 37-1.9-2-2.5-5-1-6-1.5-12 0.3-11.3 7-20z"/><path fill-rule="evenodd" class="be" d="m882.5 520.5q-3 1.8-6 0 8.6-14.5-2-27.5-1-1-2 0 2 1.2 2 3.5-2.5-2-5-4-0.5-1-1-2-0.6-1.1-2-1.5-18.1-0.3-36-1.5-2.5 0.7-3.5 3-0.3 15.4-1.5 30.5 1.3 1.6 3 2.5 0.5 0 1 0 0 0.5 0 1 0.2 0.9 1 1.5 17 1.2 34-0.5 3.3 0.1 6 2-1.3 1.1-3 1.5-19 0.3-38 1.5-0.5 1-1 2-2.7 16.9-2.5 35-2.6 2.1-4-1-1.3-42 0.5-84 22.4 1.2 45 1.5 20.7 6 17.5 27.5-1.5 4.5-2.5 9z"/><path fill-rule="evenodd" class="bf" d="m132.5 430.5q0.8 7.6 6.5 13 1.7 2.8 0.5 5.5 3.8 1 0 2.5-2.8-1.6-5-4-6.4-8.2-10.5-18-2-2.5-4.5-4-0.5 0-1 0-1.2-5.8-5-2-2.2-0.4-4 1-2.3 7.5-6.5 14-1.8 3.7-5.5 5.5 0.7 0.6 1 1.5-5 10.2-11.5 19-4.2 8.5-8 17-4.1 3.6-7 8-0.3 3.1-1.5 6-4.8 8.8-10.5 17-1 4.2-2.5 8 0 1 0 2-1.6 2.8-4 5-3 1.7-3 5.5 0.4 2 2 3 9.5 0.7 19 0.5 0.4 2.2-1 4-3.6 0.6-6 3-10.5 0-21 0-1.6-1.4-4-1 0.5-4.5 1.5-9 9.7-6.9 11-19 5.8-8.6 9.5-18 4.4-4.2 9-8.5-0.7-0.6-1-1.5 2-1.5 2-4 4.2 0.6 2-2.5 3.1-9.5 10.5-16.5 14.3-25.9 27.5-52.5 2.9-2 6-2 6.9 11.1 15 21.5z"/><path fill-rule="evenodd" class="bg" d="m128.5 442.5q3.1 2.8 4 7-3.1-2.8-4-7z"/><path fill-rule="evenodd" class="bh" d="m122.5 432.5q3.2 3.5 5 8-4-3-5-8z"/><path fill-rule="evenodd" class="bi" d="m118.5 425.5q0.5 0 1 0 1.4 2.3 2 5-2.6-1.7-3-5z"/><path fill-rule="evenodd" class="bj" d="m111.5 511.5q0.1 2.3-2 3-1.5-2.4 2-3z"/><path fill-rule="evenodd" class="bk" d="m227.5 511.5q1.4 1.2 2 3-2.3-0.5-2-3z"/><path fill-rule="evenodd" class="bl" d="m398.5 512.5q-0.5 1.5-2 2 0-2 2-2z"/><path fill-rule="evenodd" class="bm" d="m672.5 512.5q2 0 2 2-1.5-0.5-2-2z"/><path fill-rule="evenodd" class="bn" d="m723.5 509.5q0.4 3.6-2 6-0.4-3.6 2-6z"/><path fill-rule="evenodd" class="bo" d="m239.5 511.5q2.1 0.7 2 3-2.1-0.7-2-3z"/><path fill-rule="evenodd" class="bp" d="m466.5 506.5q4.7-1.5 10-1-0.5 4.3 1 8-0.1 0.8-1 1-1.5-3.9-1-8-4.5 0-9 0z"/><path fill-rule="evenodd" class="bq" d="m229.5 514.5q1.8 1.5 2 4-2.4-1.2-2-4z"/><path fill-rule="evenodd" class="br" d="m661.5 515.5q4.3 0.9 8 1.5-1.6 5.3 0 12.5-1.6-8.3-8-14z"/><path fill-rule="evenodd" class="bs" d="m899.5 514.5q2.1 0.7 2 3-2.1-0.7-2-3z"/><path fill-rule="evenodd" class="bt" d="m109.5 514.5q-0.9 2.9-3 5-0.3-3.6 3-5z"/><path fill-rule="evenodd" class="bu" d="m241.5 514.5q2.4 1.2 2 4-1.8-1.5-2-4z"/><path fill-rule="evenodd" class="bv" d="m875.5 515.5q-1.5 4.5-6 6 2.5-3.5 6-6z"/><path fill-rule="evenodd" class="bw" d="m946.5 482.5q3.8 2.2 8 4.5-2.3 1.7-5 2.5-5.9-2.1-12-3.5-12.7-2.2-24 3.5-1.7 1.8 0 3-0.5 1.5-2 2 0.2-1.3-1-2-2.5 1.7-4.5 4-2 10.2 3 19 0.5-0.5 1-1 4.9 2.5 9.5 5.5 16.4 0.8 32 6 6.7 4.3 12 10 1.3 5.1 3 10-1.2 6-5 10.5-0.6-1.6-2 0-1.2 4.7-6 5-0.2-1.6 0.5-3 3.5-3.4 6.5-5.5-1.2-5.6-1.5-11.5-1-1.9-1.5 0-1-1.5-2-3-2-1-3-3-1.4-2.2-4-3 0.1-1.5-1-2.5-12.4-2.4-25-4-11.3-3.8-20.5-11.5-7.8-22.7 14.5-31.5 15-2.7 30-0.5z"/><path fill-rule="evenodd" class="bx" d="m911.5 494.5q-6.5 9.7 1 18.5 14 5.6 29 7 5.5 0.9 10 3.5-14.9-3.2-30-5.5-18.4-3.6-12.5-21.5 1.1-1.3 2.5-2z"/><path fill-rule="evenodd" class="bk" d="m231.5 518.5q1.4 1.2 2 3-2.3-0.5-2-3z"/><path fill-rule="evenodd" class="by" d="m791.5 487.5q-2.5 0-5 0 0.3 1.8-1 3-7.7-4.3-16.5-4-18.5-0.7-31 12-2.4 4.9-6 9-3.8 15.2-2 31 2.9 6 6 12 4.8 5.6 11.5 8 2 0.5 4 1 3.4 2.9 8 3.5 8.5 1 17 0 2.3-0.3 4-1.5 3.1 0.1 5-2 1.5-1.8 4-2-1.4 1.3 0 2 1.9-0.8 3.5-2 1.8 2.1 4.5 2.5-24.4 18.8-52 5-3.9-3.8-9-6-1.4-2.1-2.5-4.5-0.7 1.4-0.5 3-1-0.5-2-1-1 0-1-1-1.3-3.5-4-6-2.7-2.9-3-7-0.3-3.9-2-7 0-9.5 0-19 0-0.5 0-1 2.4-2.4 2-6 1.6-2.1 2-5 2-6.1 7-10 2-1 3-3 2.7-4.7 8-6 0 1.5 1.5 2 11.8-6 25-5 11.9-1.5 21.5 5z"/><path fill-rule="evenodd" class="a" d="m118.5 520.5q2 1 0 0z"/><path fill-rule="evenodd" class="bz" d="m243.5 518.5q2.1 0.7 2 3-2.1-0.7-2-3z"/><path fill-rule="evenodd" class="bA" d="m721.5 516.5q0 9.5 0 19-3.9-9.5 0-19z"/><path fill-rule="evenodd" class="bB" d="m358.5 530.5q-18 0-36 0 0 20.5 0 41-5.5 0-11 0-0.3-45.5 0.5-91 32.6-1.5 65.5-1 1.6 4.8 0 9.5-27 0.8-54 0.5 0 16 0 32 17.8-0.5 36 0 0.5 4.8-1 9z"/><path fill-rule="evenodd" class="bC" d="m882.5 520.5q0.5 0 1 0 0 1 0 2-1.5 2.5-4 4-5.7 3.1-12 5.5-18.9 2-38 1.5-0.5 0-1 0 0-0.5 0-1 0.5-1 1-2 19-1.2 38-1.5 1.7-0.4 3-1.5-2.7-1.9-6-2-17 1.7-34 0.5-0.8-0.6-1-1.5 17 0.3 34-0.5 3.3-0.8 6-2.5 4.5-1.5 6-6 2.7-2.2 2-6 2-4.7-1-9 0.4-2.8-2-4 0-2.3-2-3.5 1-1 2 0 10.6 13 2 27.5 3 1.8 6 0z"/><path fill-rule="evenodd" class="bD" d="m233.5 521.5q1.4 1.2 2 3-3.8-0.2-2-3z"/><path fill-rule="evenodd" class="bE" d="m105.5 521.5q0.1 2.3-2 3-0.1-2.3 2-3z"/><path fill-rule="evenodd" class="bF" d="m869.5 521.5q-2.7 1.7-6 2.5-17 0.8-34 0.5 0-0.5 0-1 0.5 0 1 0 15.9 0.1 32-0.5 3.4-1.5 7-1.5z"/><path fill-rule="evenodd" class="bG" d="m907.5 522.5q3.5 0.7 6 3-3.9 0.1-6-3z"/><path fill-rule="evenodd" class="bH" d="m951.5 523.5q3.9-0.1 6 3-3.5-0.7-6-3z"/><path fill-rule="evenodd" class="bI" d="m911.5 494.5q-1.4 0.7-2.5 2-5.9 17.9 12.5 21.5 15.1 2.3 30 5.5 2.5 2.3 6 3 1 0 1 1 18.7 20.2-2 39-15.3 8.3-32 5 7.9 0.6 15-2 12.3-0.8 21.5-10 0.7-1.4 0.5-3 3.8-4.5 5-10.5-1.7-4.9-3-10-5.3-5.7-12-10-15.6-5.2-32-6-4.6-3-9.5-5.5-0.5 0.5-1 1-5-8.8-3-19 2-2.3 4.5-4 1.2 0.7 1 2z"/><path fill-rule="evenodd" class="bJ" d="m103.5 524.5q-0.2 2.5-2 4-1.4-2.7 2-4z"/><path fill-rule="evenodd" class="bK" d="m235.5 525.5q2.1 0.7 2 3-2.1-0.7-2-3z"/><path fill-rule="evenodd" class="bL" d="m913.5 525.5q4.5-0.3 8 2-4.5 0.3-8-2z"/><path fill-rule="evenodd" class="bM" d="m247.5 525.5q2.1 0.7 2 3-2.1-0.7-2-3z"/><path fill-rule="evenodd" class="k" d="m388.5 527.5q0.4 1.9-1 3-2-2.1 1-3z"/><path fill-rule="evenodd" class="bN" d="m101.5 528.5q-0.9 2.9-3 5-0.8-3.3 3-5z"/><path fill-rule="evenodd" class="bO" d="m477.5 524.5q-1.4 22.8-1 47-1.7-22.4-0.5-45 0.4-1.4 1.5-2z"/><path fill-rule="evenodd" class="bP" d="m938.5 530.5q4.6-0.6 8 2-4.3-0.5-8-2z"/><path fill-rule="evenodd" class="bQ" d="m57.5 522.5q-1.2 4.7 0 10 6.7 0.3 13.5 0 2.7 0.9 5.5 1.5 1 1.5 0 3.5-0.5 0-1 0 0-1.5 0-3-12 0-24 0 0.6-3.6 2-7 2.4-2.2 4-5z"/><path fill-rule="evenodd" class="bR" d="m98.5 533.5q-0.9 2.9-3 5-0.4-3.8 3-5z"/><path fill-rule="evenodd" class="bS" d="m237.5 528.5q1.8 2.2 3 5-51.1 1-102 2 0.9-2.3 3.5-3 47.3 0.9 90.5 0.5 2-0.5 4-1 0.2-1.7 1-3.5z"/><path fill-rule="evenodd" class="bT" d="m879.5 526.5q-4.5 4.7-11 6.5-18.9 2-38 1.5 0.5 18.3-1 36 0-18.5 0-37 19.1 0.5 38-1.5 6.3-2.4 12-5.5z"/><path fill-rule="evenodd" class="bU" d="m946.5 532.5q1 0 2 0 2.6 0.8 4 3-3.5-0.7-6-3z"/><path fill-rule="evenodd" class="a" d="m137.5 535.5q-1-2 0 0z"/><path fill-rule="evenodd" class="bV" d="m251.5 532.5q2.1 0.7 2 3-2.1-0.7-2-3z"/><path fill-rule="evenodd" class="bW" d="m358.5 530.5q-17.2 1.5-35 1 0.5 20.3-1 40 0-20.5 0-41 18 0 36 0z"/><path fill-rule="evenodd" class="B" d="m109.5 535.5q0.1 2.3-2 3-0.1-2.3 2-3z"/><path fill-rule="evenodd" class="bO" d="m387.5 532.5q0 6.5 0 13-1-6.1-2-12.5 0.9-0.7 2-0.5z"/><path fill-rule="evenodd" class="a" d="m76.5 537.5q2 1 0 0z"/><path fill-rule="evenodd" class="n" d="m253.5 535.5q2.1 0.7 2 3-2.1-0.7-2-3z"/><path fill-rule="evenodd" class="bX" d="m452.5 530.5q1 3.7 1 8 0.3 6-2 11 1.2-9.4 1-19z"/><path fill-rule="evenodd" class="bY" d="m95.5 538.5q-0.2 2.5-2 4 0-1-1-1 0.5-2.5 3-3z"/><path fill-rule="evenodd" class="bZ" d="m137.5 537.5q0.1 2.3-2 3-1.5-2.4 2-3z"/><path fill-rule="evenodd" class="c0" d="m721.5 535.5q1.7 3.1 2 7-2.5-2.9-2-7z"/><path fill-rule="evenodd" class="c1" d="m61.5 496.5q-3.7 9.4-9.5 18-1.3 12.1-11 19-1 4.5-1.5 9 2.4-0.4 4 1-4.8 0.5-9-1 12.7-23.5 27-46z"/><path fill-rule="evenodd" class="c2" d="m75.5 537.5q0 1 1 1-0.4 3.9-4 5 0.7-3.5 3-6z"/><path fill-rule="evenodd" class="ba" d="m107.5 538.5q0.4 2.4-1 4-1 0-1-1 0.6-1.8 2-3z"/><path fill-rule="evenodd" class="c3" d="m255.5 539.5q2.3 0.5 2 3-1.4-1.2-2-3z"/><path fill-rule="evenodd" class="c4" d="m819.5 480.5q0 0.5 0 1 0 45 0 90-1.7-2.3-2-5.5 1-43 2-85.5z"/><path fill-rule="evenodd" class="c5" d="m53.5 527.5q-1.4 3.4-2 7 12 0 24 0 0 1.5 0 3-2.3 2.5-3 6-4 0-8 0 2.4-2.4 6-3 1.4-1.8 1-4-9.5 0.2-19-0.5-1.6-1-2-3 0-3.8 3-5.5z"/><path fill-rule="evenodd" class="c6" d="m92.5 541.5q1 0 1 1-0.6 1.8-2 3-0.7 0.1-1-0.5 0.9-2 2-3.5z"/><path fill-rule="evenodd" class="c7" d="m33.5 542.5q0.5 0 1 0 4.2 1.5 9 1 10.5 0 21 0 4 0 8 0-0.5 1.3-2 1-19.1 1-37-2z"/><path fill-rule="evenodd" class="c8" d="m33.5 542.5q17.9 3 37 2-15.8 1-32 2-2.9-1.3-6-1-0.4-1.9 1-3z"/><path fill-rule="evenodd" class="bD" d="m104.5 543.5q2.3 2.1-1 2-0.3-1.5 1-2z"/><path fill-rule="evenodd" class="c9" d="m135.5 540.5q-0.1 1.6-1 3 30.8 0.5 61.5 1 31.3 0 61.5-2 2.1 2.8-1.5 4-60.6-2-121 0-5-3.4 0.5-6z"/><path fill-rule="evenodd" class="ca" d="m734.5 541.5q1.8 1.5 2 4-2.4-1.2-2-4z"/><path fill-rule="evenodd" class="cb" d="m828.5 533.5q0.5 0 1 0 0 18.5 0 37-1.8 1.9-5 2-2.8 0-5-1 4 0 8 0 1.5-18.7 1-38z"/><path fill-rule="evenodd" class="cc" d="m91.5 546.5q-0.5 1.5-2 2-0.7 0.1-1-0.5 1.1-1.6 3-1.5z"/><path fill-rule="evenodd" class="cd" d="m736.5 545.5q2.1 0.7 2 3-2.1-0.7-2-3z"/><path fill-rule="evenodd" class="ce" d="m955.5 538.5q1 1.5 2 3 0.5 4.3-1 8-0.1-5.5-1-11z"/><path fill-rule="evenodd" class="cf" d="m89.5 549.5q-0.6 1.8-2 3-0.3-2.5 2-3z"/><path fill-rule="evenodd" class="cg" d="m738.5 548.5q2.1 0.7 2 3-2.1-0.7-2-3z"/><path fill-rule="evenodd" class="ch" d="m905.5 552.5q-2.7-1.7-6-2 0.4-1.2 1.5-2 3 1.2 4.5 4z"/><path fill-rule="evenodd" class="ci" d="m956.5 549.5q0.6 3.3-2 5 0.4-2.9 2-5z"/><path fill-rule="evenodd" class="cj" d="m726.5 549.5q2.7 2.5 4 6-3.5-2-4-6z"/><path fill-rule="evenodd" class="ck" d="m802.5 556.5q-2.5-2-5-4-2.2 2.2-5 3 5.9-8.3 10 1z"/><path fill-rule="evenodd" class="cl" d="m742.5 553.5q2.9 0.4 4 3-2.9-0.4-4-3z"/><path fill-rule="evenodd" class="cm" d="m958.5 527.5q10.4 5.8 10 18 0.2 14.3-12 21 20.7-18.8 2-39z"/><path fill-rule="evenodd" class="cn" d="m819.5 481.5q0-0.5 0-1 23-0.3 46 0.5 3.4 1.5 7 1.5 1.7 2.6 5 3 13.2 11 9.5 28-0.8 4.2-3.5 7-0.5 0-1 0 1-4.5 2.5-9 3.2-21.5-17.5-27.5-22.6-0.3-45-1.5-1.8 42-0.5 84 1.4 3.1 4 1-0.2-18.1 2.5-35 0 0.5 0 1 0.5 19.3-1 38-3.2-1.5-7-1 0.5-44.8-1-89z"/><path fill-rule="evenodd" class="co" d="m877.5 509.5q0.7 3.8-2 6 0.6-3.3 2-6z"/><path fill-rule="evenodd" class="cp" d="m876.5 500.5q3 4.3 1 9-0.7-4.5-1-9z"/><path fill-rule="evenodd" class="cq" d="m874.5 496.5q2.4 1.2 2 4-1.8-1.5-2-4z"/><path fill-rule="evenodd" class="cr" d="m864.5 490.5q2 0 4 0 0.5 1 1 2-2.9-0.4-5-2z"/><path fill-rule="evenodd" class="cs" d="m895.5 554.5q0.5 2 1 4-3-1.6-1-4z"/><path fill-rule="evenodd" class="ct" d="m899.5 550.5q3.3 0.3 6 2 3.8 4.9 10 7 3.3 3.1 8 3 1.5 1 3 2-7.3-0.7-14-3.5-5.3-3.3-10.5-6.5-1.3 6.3 4.5 9.5 7.9 3.4 15 7.5-1 0-2 0-2.6-1.9-6-2-4.5-1.2-8-4-0.7-2.1-3-2-2.1-3.6-6-5-0.5-2-1-4 1.5-2.5 4-4z"/><path fill-rule="evenodd" class="cu" d="m905.5 552.5q5.6 2.8 10 7-6.2-2.1-10-7z"/><path fill-rule="evenodd" class="cv" d="m87.5 552.5q-1.6 3.8-4 7-0.1-4.2 4-7z"/><path fill-rule="evenodd" class="cw" d="m731.5 556.5q1 0.5 2 1 2 2.5 4 5-4.5-1.5-6-6z"/><path fill-rule="evenodd" class="cx" d="m954.5 554.5q-1 4-5 5 2-3 5-5z"/><path fill-rule="evenodd" class="cy" d="m915.5 559.5q4.4 0.7 8 3-4.7 0.1-8-3z"/><path fill-rule="evenodd" class="cz" d="m209.5 562.5q-4.5 0-9 0-0.2 2.7 1 5-0.9 0.2-1.5 1-1-3.5-1.5-7 3.9 0.4 7.5-1 2 0.9 3.5 2z"/><path fill-rule="evenodd" class="cA" d="m896.5 558.5q3.9 1.4 6 5-3.9-1.4-6-5z"/><path fill-rule="evenodd" class="cB" d="m926.5 564.5q7.6 0.2 15-1 2.1-0.2 4 0.5-0.7 0.6-1 1.5-10.6 1-21 2.5 8 0.6 16 1.5-7.1 2.6-15 2-1.5 0-3 0-7.1-4.1-15-7.5-5.8-3.2-4.5-9.5 5.3 3.3 10.5 6.5 6.7 2.8 14 3.5z"/><path fill-rule="evenodd" class="cC" d="m209.5 562.5q2 0 2 2-1.5-0.5-2-2z"/><path fill-rule="evenodd" class="cD" d="m737.5 562.5q2.3-0.1 3 2-2.3 0.1-3-2z"/><path fill-rule="evenodd" class="cE" d="m799.5 562.5q-2 3.5-6 4 2.5-2.7 6-4z"/><path fill-rule="evenodd" class="cF" d="m923.5 562.5q9 1.8 18 0 0 0.5 0 1-7.4 1.2-15 1-1.5-1-3-2z"/><path fill-rule="evenodd" class="cG" d="m81.5 563.5q-0.8 2.6-3 4-0.6-3.7 3-4z"/><path fill-rule="evenodd" class="cH" d="m902.5 563.5q2.3-0.1 3 2-2.3 0.1-3-2z"/><path fill-rule="evenodd" class="cI" d="m740.5 564.5q2.3-0.1 3 2-2.3 0.1-3-2z"/><path fill-rule="evenodd" class="cJ" d="m961.5 556.5q0.2 1.6-0.5 3-9.2 9.2-21.5 10-8-0.9-16-1.5 10.4-1.5 21-2.5 0.3-0.9 1-1.5-1.9-0.7-4-0.5 0-0.5 0-1 3.9-1.5 8-3 4-1 5-5 2.6-1.7 2-5 1.5-3.7 1-8 0.5-1.9 1.5 0 0.3 5.9 1.5 11.5-3 2.1-6.5 5.5-0.7 1.4-0.5 3 4.8-0.3 6-5 1.4-1.6 2 0z"/><path fill-rule="evenodd" class="cK" d="m211.5 564.5q2.1 0.7 2 3-2.1-0.7-2-3z"/><path fill-rule="evenodd" class="cL" d="m743.5 566.5q2.3-0.1 3 2-2.3 0.1-3-2z"/><path fill-rule="evenodd" class="cM" d="m78.5 567.5q0.3 1.5-1 2-1.4-1.2 1-2z"/><path fill-rule="evenodd" class="cN" d="m201.5 568.5q2.3 0.5 2 3-1.4-1.2-2-3z"/><path fill-rule="evenodd" class="o" d="m555.5 565.5q0.1-0.8 1-1 1.5 3.4 1 7-1-3-2-6z"/><path fill-rule="evenodd" class="cO" d="m802.5 556.5q1.6 4-3 6-3.5 1.3-6 4-1.5 1.8-4 2-15 5.3-31 4-3-2.1-7-2-1.9-2.1-5-2-0.7-2.1-3-2-0.7-2.1-3-2-0.7-2.1-3-2-2-2.5-4-5-0.2-1.6 0.5-3 1.1 2.4 2.5 4.5 5.1 2.2 9 6 27.6 13.8 52-5-2.7-0.4-4.5-2.5-1.6 1.2-3.5 2-1.4-0.7 0-2 2.3 0.1 3-2 2.8-0.8 5-3 2.5 2 5 4z"/><path fill-rule="evenodd" class="cP" d="m785.5 559.5q-1.9 2.1-5 2 1.9-2.1 5-2z"/><path fill-rule="evenodd" class="cQ" d="m751.5 559.5q14.2 4.8 29 2-1.7 1.2-4 1.5-8.5 1-17 0-4.6-0.6-8-3.5z"/><path fill-rule="evenodd" class="cR" d="m746.5 556.5q3.3 0.4 5 3-2-0.5-4-1-0.5-1-1-2z"/><path fill-rule="evenodd" class="cS" d="m792.5 555.5q-0.7 2.1-3 2 0.7-2.1 3-2z"/><path fill-rule="evenodd" class="am" d="m213.5 567.5q2.1 0.7 2 3-2.1-0.7-2-3z"/><path fill-rule="evenodd" class="cT" d="m746.5 568.5q3.1-0.1 5 2-3.1 0.1-5-2z"/><path fill-rule="evenodd" class="cU" d="m913.5 569.5q3.4 0.1 6 2-3.6 0.4-6-2z"/><path fill-rule="evenodd" class="cV" d="m217.5 574.5q-1.4-1.2-2-3 0.9-0.2 1.5-1 0.7 1.9 0.5 4z"/><path fill-rule="evenodd" class="cW" d="m751.5 570.5q4-0.1 7 2-4 0.1-7-2z"/><path fill-rule="evenodd" class="cX" d="m77.5 570.5q-0.4 2.9-3 4 0.4-2.9 3-4z"/><path fill-rule="evenodd" class="cY" d="m789.5 568.5q-2.8 2.7-7 3.5-7.7 1.5-15.5 2.5-4.6-0.4-8.5-2 16 1.3 31-4z"/><path fill-rule="evenodd" class="cZ" d="m956.5 566.5q-1.6 2.1-4 3.5-16.5 7.1-33 1.5 1 0 2 0 1.5 0 3 0 16.7 3.3 32-5z"/><path fill-rule="evenodd" class="d0" d="m205.5 574.5q1.9 2.2 3 5-4.3-1.2-3-5z"/><path fill-rule="evenodd" class="d1" d="m217.5 574.5q2.1 0.7 2 3-2.1-0.7-2-3z"/><path fill-rule="evenodd" class="v" d="m73.5 576.5q-0.2 2.5-2 4-1.4-2.7 2-4z"/><path fill-rule="evenodd" class="d2" d="m219.5 577.5q2.3 0.5 2 3-1.4-1.2-2-3z"/><path fill-rule="evenodd" class="ao" d="m71.5 580.5q-0.9 2.9-3 5-1.4-3.7 3-5z"/><path fill-rule="evenodd" class="d3" d="m209.5 580.5q1.9 2.2 3 5-1 0-2 0-0.5-2-2-2.5 0.4-1.4 1-2.5z"/><path fill-rule="evenodd" class="d4" d="m221.5 580.5q2.1 0.7 2 3-2.1-0.7-2-3z"/><path fill-rule="evenodd" class="aS" d="m68.5 585.5q0.3 1.5-1 2-2.3-2.1 1-2z"/><path fill-rule="evenodd" class="d5" d="m82.5 581.5q0.1 1.6 1 3 62.9 1.2 127 1 1 0 2 0-65.7 1.5-132 1-0.1-3.1 2-5z"/><path fill-rule="evenodd" class="E" d="m67.5 587.5q-0.6 1.8-2 3-0.3-2.5 2-3z"/><path fill-rule="evenodd" class="d6" d="m225.5 587.5q2.1 0.7 2 3-2.1-0.7-2-3z"/><path fill-rule="evenodd" class="C" d="m227.5 590.5q2.3 0.5 2 3-1.4-1.2-2-3z"/><path fill-rule="evenodd" class="d7" d="m65.5 590.5q-0.2 2.5-2 4 0-1-1-1 0.5-2.5 3-3z"/><path fill-rule="evenodd" class="d8" d="m229.5 593.5q2.1 2.2-1 3-8.5 0-17 0-72.9 1.5-145 0-1.9 0.4-3-1 83.5 1 166-2z"/><path fill-rule="evenodd" class="d9" d="m62.5 593.5q1 0 1 1 0 0.5 0 1 1.1 1.4 3 1-1.7 1.6-4 0.5-1.9-1.9 0-3.5z"/><path fill-rule="evenodd" class="a" d="m-451.5 595.5q8.5 0 17 0 1.4 1.3 0 2-8.7-0.9-17-2z"/></svg>